<?xml version="1.0" encoding="utf-8"?>
<!-- Generator: Adobe Illustrator 23.1.1, SVG Export Plug-In . SVG Version: 6.00 Build 0)  -->
<svg version="1.1" id="Layer_1" xmlns="http://www.w3.org/2000/svg" xmlns:xlink="http://www.w3.org/1999/xlink" x="0px" y="0px"
	 viewBox="0 0 346.2 442" style="enable-background:new 0 0 346.2 442;" xml:space="preserve">
<style type="text/css">
	.st0{fill:#FFFFFF;stroke:#1D1D1B;stroke-width:4;stroke-miterlimit:10;}
	.st1{fill:#1D1D1B;}
</style>
<title>Artboard 3</title>
<rect x="26.5" y="55.6" class="st0" width="293.2" height="282.4"/>
<path class="st1" d="M69.2,91.6h66.4v6.9H78.4v35.1h54.1v7.1H78.4v36.5h57.2v6.9H69.2V91.6z"/>
<path class="st1" d="M274.4,91.6v92.6h-7.5v-74.1l-32.5,74.1h-6l-32.8-73.5l0.1,73.5h-7.5V91.6h6.6l36.7,82.9l36.1-82.9H274.4z"/>
<path class="st1" d="M69.1,214.1l92.6,0.1v7.5l-74.1-0.1l74.1,32.6v6l-73.5,32.6h73.4v7.5L69,300.3v-6.6l83-36.6l-82.9-36.2V214.1z"
	/>
<path class="st1" d="M256.2,275.2h-49.9l-10.7,24.7h-8.3l40.3-92.6h7.3l40.1,92.6h-8.3L256.2,275.2z M253.1,268.2l-21.8-51.1
	l-22,51.1H253.1z"/>
<g>
	<path class="st1" d="M63.5,355.4H66v26.3h14.7v2.2H63.5V355.4z"/>
	<path class="st1" d="M92.6,381.4c-1.9-1.9-2.8-4.7-2.8-8.4v-17.5h2.5v17.8c0,5.9,2.9,8.8,8.6,8.8c2.8,0,4.9-0.7,6.4-2.2
		s2.2-3.7,2.2-6.6v-17.8h2.4v17.5c0,3.7-0.9,6.5-2.8,8.4s-4.6,2.9-8.2,2.9S94.5,383.3,92.6,381.4z"/>
	<path class="st1" d="M151.6,355.4v28.5h-2.3v-22.8l-10,22.8h-1.8l-10.1-22.6v22.6H125v-28.5h2l11.3,25.5l11.1-25.5H151.6z"/>
	<path class="st1" d="M167.8,383.3c-1.7-0.6-3.3-1.6-4.6-2.8l1-2c1.2,1.2,2.7,2.1,4.3,2.7c1.7,0.6,3.4,0.8,5.2,0.8
		c2,0.1,3.9-0.4,5.6-1.5c1.3-1,2.1-2.5,2-4.2c0-0.9-0.3-1.9-1-2.5c-0.7-0.7-1.6-1.2-2.5-1.5c-1.3-0.5-2.6-0.8-4-1.1
		c-1.8-0.4-3.6-0.9-5.3-1.5c-1.3-0.5-2.5-1.3-3.5-2.3c-1-1.2-1.5-2.6-1.4-4.2c0-1.5,0.4-3,1.2-4.2c0.9-1.3,2.1-2.3,3.5-2.8
		c1.7-0.7,3.5-1,5.3-1c1.8,0,3.7,0.3,5.4,0.9c1.6,0.6,3.1,1.6,4.3,2.8l-1,2c-1.2-1.1-2.6-2-4.1-2.6c-1.5-0.6-3-0.9-4.6-0.8
		c-2-0.1-4,0.4-5.6,1.6c-1.3,1-2.1,2.6-2,4.3c-0.1,1.4,0.6,2.8,1.8,3.5c1.6,1,3.3,1.6,5.2,2l1.2,0.3c1.7,0.4,3.4,0.9,5.1,1.5
		c1.2,0.5,2.3,1.2,3.2,2.2c0.9,1.1,1.4,2.4,1.3,3.8c0,1.5-0.4,2.9-1.2,4.1c-0.9,1.2-2.1,2.2-3.5,2.8c-1.7,0.7-3.5,1-5.3,1
		C171.7,384.3,169.7,384,167.8,383.3z"/>
	<path class="st1" d="M195.4,355.4h9.2c4.5,0,8,1.2,10.5,3.7c2.5,2.5,3.7,6,3.7,10.5s-1.2,8.1-3.7,10.6s-6,3.7-10.5,3.7h-9.2V355.4z
		 M204.4,381.7c3.9,0,6.8-1,8.7-3.1c1.9-2,2.9-5.1,2.9-9.1c0-8-3.9-12-11.6-12h-6.6v24.2L204.4,381.7z"/>
	<path class="st1" d="M231,355.4h17.6v2.1h-15.1v10.8h14.3v2.2h-14.3v11.2h15.1v2.1H231V355.4z"/>
	<path class="st1" d="M282.7,355.4v28.5h-1.9l-18.1-24.3v24.3h-2.3v-28.5h2l18,24.3v-24.3H282.7z"/>
</g>
</svg>
