<svg id="Layer_1" data-name="Layer 1" xmlns="http://www.w3.org/2000/svg" viewBox="0 0 346.21 345.83">
  <defs>
    <style>
      .cls-1 {
        fill: #fff;
        stroke: #1d1d1b;
        stroke-miterlimit: 10;
        stroke-width: 4px;
      }

      .cls-2 {
        fill: #1d1d1b;
      }
    </style>
  </defs>
  <title>Artboard 3</title>
  <rect class="cls-1" x="26.48" y="7.5" width="293.24" height="282.43"/>
  <path class="cls-2" d="M69.16,43.54h57.07v6.89H77.09v35.1h46.54v7.15H77.09v36.53h49.14v6.89H69.16Z"/>
  <path class="cls-2" d="M274.39,43.54V136.1h-7.54V62l-32.5,74.1h-6L195.61,62.65l.13,73.45H188.2V43.54h6.63l36.66,82.94,36.14-82.94Z"/>
  <path class="cls-2" d="M69,166.08l92.56.12v7.54l-74.09-.1,74.05,32.6v6L88,244.88l73.45,0v7.54l-92.56-.12v-6.63l83-36.56L69,172.84Z"/>
  <path class="cls-2" d="M256.18,227.16H206.26l-10.66,24.7h-8.32l40.3-92.56h7.28L275,251.86h-8.32Zm-3.12-7-21.84-51.09-22,51.09Z"/>
  <g>
    <path class="cls-2" d="M62.88,301.38h2.48V327.7H80.08v2.16H62.88Z"/>
    <path class="cls-2" d="M92,327.32c-1.87-1.91-2.81-4.71-2.81-8.42V301.38h2.48v17.8q0,8.81,8.6,8.8,4.19,0,6.38-2.22t2.18-6.58v-17.8h2.44V318.9c0,3.71-.94,6.51-2.81,8.42s-4.59,2.86-8.19,2.86S93.87,329.23,92,327.32Z"/>
    <path class="cls-2" d="M151,301.38v28.48h-2.32v-22.8l-10,22.8h-1.84l-10.08-22.6,0,22.6h-2.32V301.38h2l11.29,25.52,11.12-25.52Z"/>
    <path class="cls-2" d="M167.22,329.28a12.54,12.54,0,0,1-4.58-2.82l1-2a13.73,13.73,0,0,0,4.3,2.68,15.16,15.16,0,0,0,5.18.8,9.23,9.23,0,0,0,5.6-1.48,4.86,4.86,0,0,0,2-4.16,3.41,3.41,0,0,0-1-2.54,6.79,6.79,0,0,0-2.48-1.54,31.48,31.48,0,0,0-4-1.12,39.86,39.86,0,0,1-5.34-1.5,8.78,8.78,0,0,1-3.46-2.34,6,6,0,0,1-1.4-4.16,7.47,7.47,0,0,1,1.24-4.24,8,8,0,0,1,3.54-2.84,13.28,13.28,0,0,1,5.34-1,15,15,0,0,1,5.4.94,11.66,11.66,0,0,1,4.28,2.78l-1,2a13.89,13.89,0,0,0-4.08-2.64,12,12,0,0,0-4.56-.84,9,9,0,0,0-5.62,1.56,5.13,5.13,0,0,0-2,4.28,3.94,3.94,0,0,0,1.76,3.52,16.56,16.56,0,0,0,5.16,2l1.16.28a41.8,41.8,0,0,1,5.08,1.48,8.25,8.25,0,0,1,3.2,2.16,5.46,5.46,0,0,1,1.32,3.84,7,7,0,0,1-1.24,4.1,7.88,7.88,0,0,1-3.54,2.76,13.57,13.57,0,0,1-5.34,1A18,18,0,0,1,167.22,329.28Z"/>
    <path class="cls-2" d="M194.84,301.38H204q6.81,0,10.48,3.68t3.68,10.52q0,6.84-3.7,10.56T204,329.86h-9.16Zm9,26.32q5.81,0,8.72-3.06t2.92-9.06q0-12-11.64-12h-6.56V327.7Z"/>
    <path class="cls-2" d="M230.4,301.38H248v2.12H232.84v10.8h14.32v2.2H232.84v11.24H248v2.12H230.4Z"/>
    <path class="cls-2" d="M282.12,301.38v28.48H280.2l-18.08-24.28v24.28H259.8V301.38h2l18,24.28V301.38Z"/>
  </g>
</svg>
