<svg id="Layer_1" data-name="Layer 1" xmlns="http://www.w3.org/2000/svg" viewBox="0 0 1920 1080"><defs><style>.cls-1{fill:#c5e7e8;}.cls-2,.cls-3{fill:#999;stroke:#999;}.cls-18,.cls-19,.cls-2,.cls-21,.cls-24,.cls-3,.cls-9{stroke-miterlimit:10;}.cls-3,.cls-9{stroke-width:5px;}.cls-4{fill:#f7d5ad;}.cls-5{fill:#faebcb;}.cls-6{fill:#efe0c5;}.cls-7{fill:#c7b299;}.cls-8{fill:#f15a24;}.cls-18,.cls-21,.cls-24,.cls-9{fill:none;}.cls-9{stroke:#f4cb95;}.cls-10{fill:#754c24;}.cls-11,.cls-15,.cls-20{fill:#fff;}.cls-12{fill:#a67c52;}.cls-13{fill:#603813;}.cls-14{fill:#8c6239;}.cls-15{opacity:0.8;}.cls-16{opacity:0.37;}.cls-17{fill:#736357;}.cls-18,.cls-19{stroke:#000;}.cls-20{opacity:0.63;}.cls-21{stroke:#534741;stroke-width:2px;}.cls-22,.cls-23{fill:#f48eb8;}.cls-22{opacity:0.83;}.cls-23{opacity:0.44;}.cls-24{stroke:#736357;stroke-width:3px;}</style></defs><title>startskærm</title><rect class="cls-1" x="-0.37" y="1.13" width="1920" height="1080"/><polygon class="cls-2" points="91.67 92.14 91.67 322.37 694.63 322.37 594.35 207.25 694.63 92.14 91.67 92.14"/><line class="cls-3" x1="93.97" y1="322.37" x2="93.97" y2="607.26"/><polygon class="cls-4" points="45.63 56.13 45.63 286.36 703.63 286.36 594.2 171.24 703.63 56.13 45.63 56.13"/><ellipse class="cls-5" cx="283.97" cy="892.99" rx="26.52" ry="89.45" transform="translate(-291.64 153.57) rotate(-20.26)"/><ellipse class="cls-6" cx="283.24" cy="892.18" rx="19.54" ry="79.83" transform="translate(-291.92 153.67) rotate(-20.3)"/><ellipse class="cls-7" cx="280.91" cy="891.18" rx="8.38" ry="37.2" transform="translate(-291.88 152.92) rotate(-20.31)"/><path class="cls-8" d="M112.72,179.77c-.31,4-1.24,5.5-3.41,8.29a9.15,9.15,0,0,1-7,4c-2.72.36-21.88.09-22.89,0s-.85,0-1.47-.54c-.7-.72-9.39-10.64-9.78-11s-.31-.54-.38-1.36.07-16.31.07-23.79.39-39.58.47-40.39c0-.54,0-.63.85-.72s12.1,0,15.13.09c2.87.09,4.65-.09,8,1.8,3.41,1.71,6.9,5.41,8.69,7.3a49.1,49.1,0,0,1,6.36,8,54.7,54.7,0,0,1,4.58,9c.69,1.71.77,2.62.93,5.5s.07,13.34.07,18.93S113.11,175.8,112.72,179.77Zm-12.88-47.6a19.2,19.2,0,0,0-4.5-11.09,14.09,14.09,0,0,0-8.45-4.87c-2.48-.27-16-.36-16.52-.36s-.78-.18-.78.18-.31,21.1-.31,24.34c0,3.43-.08,37.32-.16,37.68s-.07.45.16.64,9.08.18,13.58-.19,6.43-.18,9.54-2.34a15.5,15.5,0,0,0,5.5-6.85,17.67,17.67,0,0,0,1.79-6.67c.08-2.17.08-5.95.15-10.46S99.92,135.86,99.84,132.17Zm-20.63-4.33a10.71,10.71,0,0,1,2.33-.36,25.1,25.1,0,0,1,2.87.18,6.8,6.8,0,0,1,4.19,2.25,9.4,9.4,0,0,1,1.78,5.23c.16,1.54,0,7.48,0,12.17s-.23,13.71-.47,15a6.08,6.08,0,0,1-1.55,3.24,4.45,4.45,0,0,1-2.79,1.81,22,22,0,0,1-6,0c-.55-.18-.93-.45-.93-.72s.23-37.87.23-38.23A.51.51,0,0,1,79.21,127.84Z"/><path class="cls-8" d="M164.86,187.7a2.9,2.9,0,0,1-.39,1.35,7.13,7.13,0,0,1-3,2.8c-1.32.63-4.65.36-5.58.36a5.9,5.9,0,0,1-3.26-.72c-1.4-.72-9.77-8.3-10.47-9.11s-1-.36-1,.27c0,.81-.31,8.21-.08,8.75,0,.54-.46.72-1.08.81l-11-.09a.86.86,0,0,1-.78-.36c-.23-.27-10.24-11.36-10.55-11.72a2.57,2.57,0,0,1-.62-1.9c0-.81-.07-62.11,0-62.83,0-1,.47-1,1.71-1.17s13.26.09,17.84.63a21.48,21.48,0,0,1,11.87,5.32c3.26,2.79,9,10,10.55,12.35,1.71,2.43,3.57,4.69,4.73,9a23.35,23.35,0,0,1,.78,11,18.86,18.86,0,0,1-3.18,6.76c-.31.45-.31.63-.08,1a17.29,17.29,0,0,1,2.64,4c1.08,2.62.77,6.22.85,10.46C164.78,178.78,164.86,187.25,164.86,187.7Zm-10.4-17.31c-.23-.18-2.33-.81-3.18-2.7-.85-1.72-.85-2.35-.93-5.23s-.15-6.76-1.16-9.2a31.13,31.13,0,0,0-2.64-4.78.65.65,0,0,1,0-.9,15.52,15.52,0,0,0,3.26-7,19.79,19.79,0,0,0-.78-12.44c-1.47-3.06-3.64-7.39-7.83-9.82a21.83,21.83,0,0,0-10.71-2.62c-2.48-.18-11.25-.36-11.71-.36-.39.18-.31.27-.39.54-.08.54.15,20.55.08,31.82-.16,11,0,29.57,0,30.11s0,.91.46.91h8.85c.38-.1.62-.1.54-.73s.08-23.08.08-23.8.23-.72.62-.81,6.36-.63,8.38.9c1.93,1.72,3,3.16,3,7.31s0,11.26,1.94,13.79c1.78,2.61,3.26,3.24,5.12,3.15s3.49-.09,5.27-2.61a10.94,10.94,0,0,0,1.94-4.6C154.85,170.57,154.85,170.57,154.46,170.39Zm-25.75-42.73a29.4,29.4,0,0,1,4-.18,8.44,8.44,0,0,1,4,.81,7.17,7.17,0,0,1,3.81,6.85c-.24,4.51-2.33,5.5-4.12,6.22s-6.28.45-7.21.36-.93-.72-.93-1.26-.23-11.54-.16-12.17C128.16,127.84,128.4,127.75,128.71,127.66Z"/><path class="cls-8" d="M214.51,180a14.53,14.53,0,0,1-2.33,6.76,12.87,12.87,0,0,1-7.83,5.77c-3.26.81-8.3.54-11.41.09-2.94-.36-5.19-1.26-10.31-5.23a59.4,59.4,0,0,1-11.1-11.72c-2.09-3.07-3.25-7.12-4-10.28s-.23-12.71-.16-20.28.31-12.71.39-15.42a19.7,19.7,0,0,1,3-9.37c1.86-3.07,6-7.57,11.94-8.12a17.19,17.19,0,0,1,11.64,2.62,70,70,0,0,1,8.84,7.12,67.26,67.26,0,0,1,6.75,8,26.19,26.19,0,0,1,4.19,8.84c1.17,4.24,1,10.46.93,21.37S214.67,178.5,214.51,180Zm-12.88-33.36c-.08-7.21-.08-11.27-.31-14.87s-1.24-8.93-5.27-12.8-7.61-5-11.87-4.78-7.6,1.26-11.33,6.67a21.15,21.15,0,0,0-3.8,10.55c-.08,2.61,0,5.41-.15,14.06s-.24,15-.08,17.58a15.93,15.93,0,0,0,4.5,10.1c3.41,3.69,6.36,5.94,11.87,5.4,5.35-.36,7.6-1.26,10.62-4.59,3-3.52,5.2-7.94,5.51-12S201.63,154,201.63,146.68Zm-17.06-20.55a6.08,6.08,0,0,1,4.88,1.71c1.48,1.44,1.71,3,1.79,5.5.08,2.34.15,22.36.23,24.43s0,8.84-5.9,9-6-5-6.28-6.86-.39-8.74-.39-14.87-.07-9.65,0-11.09a10.68,10.68,0,0,1,1.24-5.23A4.83,4.83,0,0,1,184.57,126.13Z"/><path class="cls-8" d="M298.45,127.21c0,.27-14.43,66.44-14.5,67s-.16.36-.47.36-17.38,0-17.84.09a.79.79,0,0,1-.7-.27c-.16-.45-7.22-11.45-7.45-11.9s-.31-.54-.39,0c-.07.36-2.4,10.91-2.48,11.45s-.15.54-.39.63l-15.43.18c-.39.09-.39,0-.7-.36s-10.78-14.6-10.86-14.78a1,1,0,0,1-.31-.63c0-.09-3.73-15.33-7.3-31.2-3.72-16.67-7.44-33.26-7.52-33.44-.08-.36,0-.45.39-.45.23,0,3.8-.09,7.37-.09s6.9-.09,7.13-.09a1.19,1.19,0,0,1,.94.27c.31.36,10.7,10.27,11.09,10.64s.31.18.39-.18c.23-.46,2.32-9.83,2.32-10.1s0-.45.47-.45,12.33.09,12.72.09c.24,0,.24.09.54.36s11.41,10.37,12,10.82.62.27.7-.18c0-.27,2.17-10.19,2.25-10.46s.08-.45.39-.45,11.71,0,12.25,0a1.44,1.44,0,0,1,1.09.54c.31.27,13.89,11.81,14.2,12S298.53,126.85,298.45,127.21Zm-15.75-11c-.23.09-2.71-.18-4.73-.18a28.2,28.2,0,0,0-5.43.18c-.23,0-.39.09-.46.45s-8.38,37.23-8.61,38.32-.08,1.26-.39.09c-.08-.82-3.34-14.79-5.59-25.88-1.55-7.39-3.1-12.8-3.18-12.89-.08-.36-.08-.36-.46-.36l-9.31.09c-.47,0-.39.36-.47.63s-8.45,41-8.76,42-.16,1.89-.63,0-9.15-41.74-9.3-42.19-.39-.54-.7-.54l-9.23-.09c-.24,0-.39.09-.31.45.07.18,3.87,16.32,5,21.37s8.92,40.29,9,40.74c.07.28,0,.46.38.46s10.63,0,11,0c.23,0,.31,0,.39-.46.08-.27,2.17-9.28,4-18.12,1.71-8,3.26-15.95,3.34-16.31.08-.81.23-.36.39.36s9.15,34,9.23,34.25.15.37.46.37h9.93c.31,0,.31-.09.39-.37s14-61.57,14.2-61.93S283,116.21,282.7,116.21Z"/><path class="cls-8" d="M348.65,171.92c0,3.34-.31,11.9-3.33,16a10.67,10.67,0,0,1-8.15,5,79,79,0,0,1-11.17-.27c-2.41-.27-6.59-2.26-10.24-5.59a70.34,70.34,0,0,1-10.24-11.9,27.71,27.71,0,0,1-4.5-12.26c-.23-2.89-.39-7.3-.39-7.75s.24-.45.62-.45,7.53-.09,8.61-.09.39-.28.08-.55-.93-.9-2-2.25a30,30,0,0,1-3.56-5.14,22.77,22.77,0,0,1-3.26-9,25.46,25.46,0,0,1,.07-10.82,20.28,20.28,0,0,1,4.74-9c2-2.52,4.26-3.78,7.76-4.68a15.83,15.83,0,0,1,9.46.54c2.87.72,5.2,3,7.76,5.14a48.81,48.81,0,0,1,6.2,6.13A76.45,76.45,0,0,1,345,135a21.46,21.46,0,0,1,3.26,8.75,36.51,36.51,0,0,1,.24,6.13,1.6,1.6,0,0,1-.7,1.53,16,16,0,0,1-3.88.27c-1.16,0-4.81-.18-5-.18s-.24,0,0,.18,1.32,1.62,3.8,5.14a63.77,63.77,0,0,1,4.89,8.11A17.59,17.59,0,0,1,348.65,171.92ZM332.59,150c-2-3.25-5.51-7.48-11.25-8.66-5.58-1.17-7.44-2.16-8.68-5a8,8,0,0,1,1.16-8.11,5.7,5.7,0,0,1,7.68-.72c2.87,2,3.26,7.84,3.26,8.11s0,.45.54.45,8.3.36,8.69.36.54.1.54-.53a29.92,29.92,0,0,0-.54-6.86c-.78-3.33-1.86-7.12-5.43-10.36a15.85,15.85,0,0,0-11.56-4.6c-4.27,0-8.77,3.06-11,6s-4.18,6.85-4.11,11.36,1.17,10,4,13.7A14.38,14.38,0,0,0,314,151.1c2.49.72,5.82,1.17,7.3,2.16a7.25,7.25,0,0,1,3.64,6.67c.16,4.15-2.56,7.12-6.28,6.86a6.48,6.48,0,0,1-6.05-5.14A22.23,22.23,0,0,1,312,157c0-.36-.16-.36-.54-.36l-8.85.09c-.46,0-.46.09-.46.36a39.9,39.9,0,0,0,1.16,8c1.16,3.16,2.48,6.94,6.59,10.28a13.71,13.71,0,0,0,10.4,3.24,13.91,13.91,0,0,0,11-6.3c3.57-5,3.57-9.2,3.65-12.54A18.28,18.28,0,0,0,332.59,150Z"/><path class="cls-8" d="M398.38,135.14a5,5,0,0,1-.46,2c-.31.72-9.62,26.05-10.17,27.58a33.53,33.53,0,0,0-1.16,4.24,48.19,48.19,0,0,0-.39,5.23c0,1-.15,17.4-.15,17.85s-.08.63-.55.63c-.69,0-14.74,0-15.59-.09a2,2,0,0,1-1.63-.72c-.23-.27-9.54-11.27-10-11.81a2,2,0,0,1-.31-1.35c0-.64.24-24.53.24-25.07a11.54,11.54,0,0,0-.31-2.52c-.24-1.08-12.49-35.25-12.65-35.7s-.08-.81.47-.9,11.71,0,12.41-.09c.85-.09.78.09,1.24.63s8.38,8.92,9,9.65.62.63.78.09,3.64-9.65,3.8-10.1.15-.45.54-.45,3.18-.18,6.21-.18c3.18,0,5.5.09,6,.09s.54.18.93.54c.47.63,10.86,12.89,11.25,13.25a1.3,1.3,0,0,1,.46,1.17C398.38,129.73,398.46,134.6,398.38,135.14Zm-15-19.38-8.84-.18c-.39,0-.47,0-.62.36-.16.54-8.07,20.28-8.31,20.83s-.46,1.17-1-.18c-.39-1.36-7.45-19.75-7.61-20.29s-.15-.45-.62-.45-8.22.27-8.61.36-.39.09-.23.63,11.71,32.64,11.95,33.45a7.79,7.79,0,0,1,.23,2.25c0,.63-.23,24.79-.23,25.33s.07.82.46.82,9.16.18,9.47.09.46.18.38-.73.55-25.78.55-26.23a6.22,6.22,0,0,1,.38-1.26c.16-.54,12.73-33.81,12.8-34.26S383.72,115.76,383.41,115.76Z"/><path class="cls-8" d="M473.25,179.77c-.31,4-1.24,5.5-3.41,8.29a9.15,9.15,0,0,1-7,4c-2.71.36-21.87.09-22.88,0s-.85,0-1.47-.54c-.7-.72-9.39-10.64-9.78-11s-.31-.54-.39-1.36.08-16.31.08-23.79.39-39.58.47-40.39c0-.54,0-.63.85-.72s12.1,0,15.13.09c2.87.09,4.65-.09,8,1.8,3.41,1.71,6.9,5.41,8.69,7.3a49.64,49.64,0,0,1,6.36,8,54.48,54.48,0,0,1,4.57,9c.7,1.71.78,2.62.93,5.5s.08,13.34.08,18.93S473.64,175.8,473.25,179.77Zm-12.88-47.6a19.33,19.33,0,0,0-4.5-11.09,14.09,14.09,0,0,0-8.45-4.87c-2.49-.27-16-.36-16.53-.36s-.77-.18-.77.18-.31,21.1-.31,24.34c0,3.43-.08,37.32-.16,37.68s-.08.45.16.64,9.07.18,13.57-.19,6.44-.18,9.54-2.34a15.46,15.46,0,0,0,5.51-6.85,17.67,17.67,0,0,0,1.79-6.67c.07-2.17.07-5.95.15-10.46S460.45,135.86,460.37,132.17Zm-20.63-4.33a10.69,10.69,0,0,1,2.32-.36,25.1,25.1,0,0,1,2.87.18,6.75,6.75,0,0,1,4.19,2.25,9.35,9.35,0,0,1,1.79,5.23c.15,1.54,0,7.48,0,12.17s-.24,13.71-.47,15a6.08,6.08,0,0,1-1.55,3.24,4.48,4.48,0,0,1-2.79,1.81,22,22,0,0,1-6,0c-.54-.18-.93-.45-.93-.72s.24-37.87.24-38.23A.51.51,0,0,1,439.74,127.84Z"/><path class="cls-8" d="M524.92,180a14.53,14.53,0,0,1-2.33,6.76,12.9,12.9,0,0,1-7.83,5.77c-3.26.81-8.3.54-11.41.09-2.94-.36-5.19-1.26-10.31-5.23a59.4,59.4,0,0,1-11.1-11.72c-2.09-3.07-3.26-7.12-4-10.28s-.23-12.71-.16-20.28.31-12.71.39-15.42a19.7,19.7,0,0,1,3-9.37c1.86-3.07,6-7.57,11.94-8.12a17.21,17.21,0,0,1,11.64,2.62,70,70,0,0,1,8.84,7.12,67.26,67.26,0,0,1,6.75,8,26.19,26.19,0,0,1,4.19,8.84c1.16,4.24,1,10.46.93,21.37S525.07,178.5,524.92,180ZM512,146.68c-.08-7.21-.08-11.27-.31-14.87s-1.24-8.93-5.27-12.8-7.61-5-11.87-4.78-7.61,1.26-11.33,6.67a21.15,21.15,0,0,0-3.8,10.55c-.08,2.61,0,5.41-.16,14.06s-.23,15-.07,17.58a15.93,15.93,0,0,0,4.5,10.1c3.41,3.69,6.36,5.94,11.87,5.4,5.35-.36,7.6-1.26,10.62-4.59,3-3.52,5.2-7.94,5.51-12S512,154,512,146.68ZM495,126.13a6.09,6.09,0,0,1,4.89,1.71c1.48,1.44,1.71,3,1.79,5.5.07,2.34.15,22.36.23,24.43s0,8.84-5.9,9-6-5-6.28-6.86-.39-8.74-.39-14.87-.08-9.65,0-11.09a10.68,10.68,0,0,1,1.24-5.23A4.82,4.82,0,0,1,495,126.13Z"/><path class="cls-8" d="M577,191.12c0,.82-.31,1-.86,1s-2.71.09-3.25.09a1.33,1.33,0,0,1-1.17-.54,33.09,33.09,0,0,1-2.71-3c-.39-.72-.47-.54-.55-.18-.23.36-.62,1.08-1.16,1.89a3.42,3.42,0,0,1-2.56,1.72,70,70,0,0,1-8.69,0c-1.94,0-2.87-.09-6-1.35s-7.84-6.14-10.24-8.57A70.65,70.65,0,0,1,532.14,172c-1.32-2.16-2-5-2.33-9-.39-4.33-.31-26.23-.31-30.2a24.47,24.47,0,0,1,2.25-11.27c1.71-3.88,6-8.29,13.89-9.19,7.83-.73,12.8,4,16.29,7.12,3.64,3,8.92,9.37,10.94,12.26,1.86,3.06,3.41,5.68,4.11,9.55.54,3.88.23,12.53.23,13.07s-.08.73-.7.73l-7.13-.09c-.47,0-.32-.1,0,.36s5.11,6,6.28,8.2a10.81,10.81,0,0,1,1.71,5.77C577.44,171.47,577.05,190.22,577,191.12Zm-13.35-37.86c-.07-.36-.07-.45-.31-.45s-2.32,0-4.81-.09c-2.25-.09-4.42-.18-4.73-.18s-.31,0-.31.45,0,3.07-.08,5.5-.46,4.78-2.17,6.13-2.64,1.9-4.34,1.8a6.18,6.18,0,0,1-4-2.16A6.06,6.06,0,0,1,541.6,160c-.08-2-.23-11-.23-16.31s.08-10.28.15-11.81a6.72,6.72,0,0,1,1.79-3.88,6.06,6.06,0,0,1,3.65-1.44,5.26,5.26,0,0,1,4.57,2.43,10,10,0,0,1,1.55,5.14c.08,1.62.24,5,.24,5.59s0,.81.46.81h9.16c.38,0,.54-.36.54-.72a84.25,84.25,0,0,0-.78-9.83,20.38,20.38,0,0,0-4.57-10c-3.11-4-5.51-4.87-7.22-5.23s-4.89-1.08-7.76-.09-6.28,2.79-8.14,5.41c-1.55,2.34-4,5.32-4,11.54-.07,6.49-.07,13.25-.07,18.39,0,5.32-.16,13,.46,15.5a19.49,19.49,0,0,0,4.11,8.21,15.48,15.48,0,0,0,9,4.5,18,18,0,0,0,9.54-1.35l3.19-1.8c.31-.09.38,0,.77.36.31.54,1.63,2.7,1.78,3s.16.18.47.18,2.79.1,3,.1.23-.19.23-.55c0,0,.23-7.84.23-12.71S563.71,153.71,563.63,153.26Z"/><path class="cls-5" d="M480.45,943.37c.05-.6.64-8.69-4.68-13.66a13.73,13.73,0,0,0-6.41-3.24c4.18-2.51,8.07-5.09,11.31-7.3a11,11,0,0,0,5-3,11.25,11.25,0,0,0,.76-.92l.18-.12-.06-.06c9.24-13.08-9.7-49.69-43.44-83.3-27.68-27.56-71.42-52.25-83.23-40.87a8,8,0,0,0-1.2,1.48l-.12-.12c-1.59,2.8-3.73,6.69-6.13,11.39-2.65,5.21-5.84,11.48-8.87,19.16a122.35,122.35,0,0,0-7.07,23.28,111.5,111.5,0,0,0-1.84,26.15,104.25,104.25,0,0,0,3.86,23.67A74.82,74.82,0,0,0,372,937.44c15,8.47,30.82,9.44,45.34,7.37a23.94,23.94,0,0,0,2.06,3.11c4.44,6,10.15,8.49,15.77,10.9,5.29,2.27,10.61,4.55,18,4.55a28.52,28.52,0,0,0,12-2.07C466.81,960.63,479.44,955,480.45,943.37Zm-22.72,7.31a29.06,29.06,0,0,1-12.3.41,24.79,24.79,0,0,1-13.5-7,20.79,20.79,0,0,1-1.57-1.92,223,223,0,0,0,23.77-8l.06,0a25.63,25.63,0,0,0,2.6.57c3.16.56,3.73-.1,6.69.55,2.52.55,4.42,1,5.34,2.48,1.61,2.64-.5,7.37-3.34,9.94C463.42,949.51,461.26,950,457.73,950.68Z"/><path class="cls-6" d="M343,870.81c.19,15.84,3.51,25.16,4.39,27.53,0,0,7.12,19.11,24.29,31.83a46.54,46.54,0,0,0,10.76,5.92c4.08,1.58,9.71,3.77,10.85,2.17,1.75-2.44-9.45-10.26-18.58-27.16-4-7.33-9.17-17.25-8-29.5a50.35,50.35,0,0,1,3.63-13.8c4.88-12.21,10.4-13.92,10.35-20.74,0-5.25-3.34-6.17-9.05-16-8.22-14.16-6.83-21.64-10-22C355.21,808.16,342.67,839.1,343,870.81Z"/><path d="M179.58,219c0,3.5,2.11,5.95,3.83,5.95,1-.09,2-.18,2.72-.18.92,0,1.4.36,1.4,1,0,.78-.56,1.28-1.72,1.28-.92,0-1.92-.23-3.48-.23-4.75,0-9.86,4.63-9.86,10.22,0,4.54,2.71,7.31,6.71,7.31,4.87,0,10.54-3.68,13.74-9.26,0,0,.28-.5.64-.5a.81.81,0,0,1,.84.9,1.93,1.93,0,0,1-.16.59c-3.68,6.5-9.67,10.32-15.14,10.32-5.12,0-9-3.46-9-9.36s5-10.63,10.35-11.58A7.39,7.39,0,0,1,177.3,219c0-6.08,5.43-10.49,11-10.49a8.08,8.08,0,0,1,3.59.77,10.49,10.49,0,0,1,5.23-2c.68,0,.92.32.92.77s-.24.82-1.11.91a9.84,9.84,0,0,0-3.4,1.45,6.38,6.38,0,0,1,1.92,4.73c0,3.81-2.44,6.63-5.12,6.63-2.23,0-3.67-1.77-3.67-4.36a9.45,9.45,0,0,1,3.35-6.59,7.83,7.83,0,0,0-1.79-.22A8.53,8.53,0,0,0,179.58,219Zm12.3-7.45c-1.76,1.5-3.19,3.5-3.19,5.77,0,1.59.63,2.41,1.71,2.41,1.6,0,3.08-2.14,3.08-4.68A4.24,4.24,0,0,0,191.88,211.57Z"/><path d="M207.94,240.33c.2-.41.44-.55.64-.55a.72.72,0,0,1,.64.77c0,1.27-1.88,4-4.08,4s-3.43-1.55-3.43-4.18c0-4,3.75-8.41,3.75-11.59,0-1-.51-1.59-1.39-1.59-2.12,0-5.6,3-7.55,5.64-1.64,2.27-3.12,6.72-4.12,10.35-.16.59-.4,1.37-1.2,1.37a.81.81,0,0,1-.8-.91,3.6,3.6,0,0,1,.16-1.09c1.56-5.45,3.68-11.45,5.36-16,.28-.77.72-1.18,1.28-1.18a.92.92,0,0,1,1,1,7.37,7.37,0,0,1-1,2.63l-.56,1.55c2.23-2.77,5.15-5.18,7.47-5.18A3.37,3.37,0,0,1,207.5,229c0,3.87-3.67,7.73-3.67,11.72,0,1.32.6,2.05,1.55,2.05S207.26,241.6,207.94,240.33Z"/><path d="M228.08,230.51c2.19-2.77,5.11-5.13,7.42-5.13a3.37,3.37,0,0,1,3.4,3.63c0,3.87-3.67,7.73-3.67,11.72,0,1.32.64,2.05,1.63,2.05,2.12,0,4.76-3.73,7-7.72a.78.78,0,0,1,.68-.5.85.85,0,0,1,.8.9,1.37,1.37,0,0,1-.16.64c-2.47,4.36-5.39,8.5-8.67,8.5-2.07,0-3.43-1.55-3.43-4.18,0-4,3.75-8.41,3.75-11.59,0-1-.52-1.59-1.4-1.59-2.11,0-5.59,3-7.54,5.64-1.64,2.27-3.12,6.72-4.12,10.35-.16.59-.4,1.37-1.2,1.37a.81.81,0,0,1-.8-.91,3.6,3.6,0,0,1,.16-1.09c2.64-8.72,6.31-18.81,9.15-26.39.36-1,1-1.59,1.48-1.59a1,1,0,0,1,1.08,1.09c0,1-.76,2.95-2.32,5.76Z"/><path d="M264,235.06a.78.78,0,0,1,.68-.5.85.85,0,0,1,.8.9,1.37,1.37,0,0,1-.16.64c-2.48,4.36-5.4,8.5-8.67,8.5-2.08,0-3.84-1.64-3.84-4.73a2.69,2.69,0,0,1,0-.59c-1.88,3-4,5.32-6.11,5.32s-3.67-1.59-3.67-4.77c0-3,1.59-7.45,3-10.59,1.24-2.72,1.88-3.86,2.48-3.86a1,1,0,0,1,1.08,1.09c0,.77-.6,2.14-1.72,4.18-1.28,3-2.64,6.68-2.64,9.27,0,2,.76,2.72,1.68,2.72,1.8,0,3.68-2.41,5.51-5.4a55.82,55.82,0,0,0,3.8-8.59c.92-2.41,1.48-3.27,2.12-3.27a1,1,0,0,1,1.07,1.09c0,.77-.68,2.14-1.79,4.18-1.24,3-2.68,6.68-2.68,9.22,0,2,.8,2.91,2,2.91C259.07,242.78,261.71,239.05,264,235.06Z"/><path d="M283.56,235.06a.78.78,0,0,1,.68-.5.85.85,0,0,1,.8.9,1.37,1.37,0,0,1-.16.64c-2.48,4.36-5.39,8.5-8.67,8.5-2.08,0-3.43-1.55-3.43-4.18,0-4,3.75-8.41,3.75-11.59,0-1-.52-1.59-1.4-1.59-2.11,0-5.59,3-7.55,5.64-1.63,2.27-3.11,6.72-4.11,10.35-.16.59-.4,1.37-1.2,1.37a.81.81,0,0,1-.8-.91,3.6,3.6,0,0,1,.16-1.09c1.56-5.45,3.68-11.45,5.35-16,.28-.77.72-1.18,1.28-1.18a.92.92,0,0,1,1,1,7.24,7.24,0,0,1-1,2.63l-.56,1.55c2.24-2.77,5.16-5.18,7.47-5.18a3.37,3.37,0,0,1,3.4,3.63c0,3.87-3.68,7.73-3.68,11.72,0,1.32.64,2.05,1.64,2.05C278.65,242.78,281.29,239.05,283.56,235.06Z"/><path d="M300.66,240.33c.2-.41.44-.55.64-.55a.72.72,0,0,1,.64.77c0,1.27-1.88,4-4.08,4-2,0-3.67-1.64-3.67-4.73a3.62,3.62,0,0,1,.08-1c-2,3.18-4.32,5.68-6.79,5.68-2.68,0-4.6-2-4.6-5.64,0-6.72,6.12-13.58,11-13.58a4.12,4.12,0,0,1,3.87,2c1.2-3.58,3-8.67,4-11.21.4-1,1-1.59,1.48-1.59a1,1,0,0,1,1.08,1.09c0,1.13-.8,3.17-2.44,6.17-.48,1.18-2,5.23-3.12,8.63-1.52,4.41-2.47,7.68-2.47,9.36,0,2,.72,2.91,1.79,2.91S300,241.6,300.66,240.33ZM297,229.74c-.2-1.54-1.28-2.5-3.16-2.5-3.72,0-8.71,6.32-8.71,11.9,0,2.32,1.12,3.55,2.52,3.55,2,0,4.11-2.36,6-5.45A39.94,39.94,0,0,0,297,229.74Z"/><path d="M333.26,235.06s.28-.5.64-.5a.85.85,0,0,1,.84.95,1.63,1.63,0,0,1-.16.59c-2.8,4.91-7.27,8.5-11.83,8.5-3.87,0-6-2.19-6-6.18,0-7.5,5.87-13,10.15-13a3.44,3.44,0,0,1,3.79,3.77c0,3.68-5.11,7.09-11.58,7.77,0,.5-.08,1-.08,1.54,0,2.77,1.59,4.18,3.95,4.18C326.23,242.64,330.66,239.64,333.26,235.06Zm-13.78,0c5.15-.73,9-3.46,9-6.18a1.56,1.56,0,0,0-1.67-1.64C324.39,227.24,320.75,230.51,319.48,235.06Z"/><path d="M345.88,235.06s.28-.5.64-.5a.87.87,0,0,1,.84.95,1.63,1.63,0,0,1-.16.59c-2.36,4-4.91,6.13-7.87,6.13a5.09,5.09,0,0,1-1.16-.13,14.29,14.29,0,0,1,.44,3.22c0,6-3,11.09-6,11.09-1.92,0-3.24-1.55-3.24-4.73,0-2.86,1.12-7.72,2.68-13a154.6,154.6,0,0,1,7.15-18.94c1.76-4,3.36-5.13,4.67-5.13,1.68,0,2.8,1.27,2.8,3.76,0,6-5.15,14.45-11.18,18.13a9.22,9.22,0,0,1,2,3.41,3.21,3.21,0,0,0,1.84.54C341.33,240.46,343.72,238.78,345.88,235.06Zm-9.71,6a6.61,6.61,0,0,1-2-2.46l-.24.82c-1.48,5-2.52,9.54-2.52,12.22,0,2,.6,2.77,1.4,2.77,1.84,0,3.87-4,3.87-9.17A15.78,15.78,0,0,0,336.17,241.1ZM341,220.7c-1.84,4.14-3.76,9-5.44,13.68,5.24-3.73,9.27-11.41,9.27-16,0-1.4-.44-1.9-1-1.9S342.57,217.16,341,220.7Z"/><path d="M356.51,235.06c.2-.37.4-.55.68-.55a.88.88,0,0,1,.84.82,1.33,1.33,0,0,1-.2.72c-2.64,4.68-5.44,8.55-8.67,8.55-2.44,0-4-1.73-4-5.09,0-2.86,1.6-7.72,3.48-12.36h-1.88c-.64,0-1-.27-1-.91s.4-.86,1-.86h2.64c.72-1.68,1.48-3.36,2.15-4.82,1.24-2.72,1.88-3.85,2.48-3.85a1,1,0,0,1,1.08,1.08c0,.78-.6,2.14-1.72,4.18l-1.52,3.41h2.28c.64,0,1,.36,1,.82a.89.89,0,0,1-1,1h-3c-2,4.82-3.75,9.77-3.75,12.68,0,2.09.88,2.95,2.08,2.95C351.55,242.78,354.31,239.19,356.51,235.06Z"/><path d="M372.53,235.06s.28-.5.64-.5a.85.85,0,0,1,.83.95,1.63,1.63,0,0,1-.16.59c-2.79,4.91-7.27,8.5-11.82,8.5-3.88,0-6-2.19-6-6.18,0-7.5,5.87-13,10.14-13a3.45,3.45,0,0,1,3.8,3.77c0,3.68-5.11,7.09-11.59,7.77,0,.5-.08,1-.08,1.54,0,2.77,1.6,4.18,4,4.18C365.5,242.64,369.93,239.64,372.53,235.06Zm-13.79,0c5.16-.73,9-3.46,9-6.18a1.56,1.56,0,0,0-1.68-1.64C363.66,227.24,360,230.51,358.74,235.06Z"/><path d="M383.59,240.33c.2-.41.44-.55.64-.55a.72.72,0,0,1,.64.77c0,1.27-1.88,4-4.08,4s-3.55-1.69-3.55-4.55c0-3.63,3.47-7.67,3.47-10.17,0-1.23-1.55-1.73-2.51-2.41-1.24,2.77-2.68,5.59-4.36,8.58-.2.37-.4.64-.76.64a.8.8,0,0,1-.79-.82,1.58,1.58,0,0,1,.24-.81,70.69,70.69,0,0,0,4.15-8.63v-.6c0-3,1.36-5.08,2.36-5.08a1.23,1.23,0,0,1,1.32,1.31,9.81,9.81,0,0,1-1.24,3.77c1.32,1.19,3.79,1.82,3.79,4,0,3-3.55,6.81-3.55,10.58,0,1.55.64,2.41,1.67,2.41S382.91,241.6,383.59,240.33Z"/><path d="M417.67,235.06a.78.78,0,0,1,.68-.5.85.85,0,0,1,.8.9,1.37,1.37,0,0,1-.16.64c-2.52,4.45-5.6,8.5-9.27,8.5-3,0-5-2.23-6.27-6.23a3.28,3.28,0,0,1-.16-1c0-.63.4-1,1.23-1.22,4.16-.91,7.79-4.41,7.79-7.32,0-1-.52-1.59-1.39-1.59-2,0-5.6,3-7.55,5.64-1.64,2.27-3.12,6.72-4.12,10.35-.16.59-.4,1.37-1.2,1.37a.81.81,0,0,1-.8-.91,3.6,3.6,0,0,1,.16-1.09c2.64-8.72,6.32-18.81,9.15-26.39.36-1,1-1.59,1.48-1.59a1,1,0,0,1,1.08,1.09c0,1-.8,2.95-2.36,5.76l-3.39,9.27c2.27-2.86,5.43-5.36,7.71-5.36a3.3,3.3,0,0,1,3.39,3.63c0,3.5-4.27,7.5-9.15,8.86.88,3.09,2.6,4.91,4.72,4.91C412.35,242.78,415.35,239.14,417.67,235.06Z"/><path d="M439.24,235.06a.78.78,0,0,1,.68-.5.85.85,0,0,1,.8.9,1.37,1.37,0,0,1-.16.64c-2.48,4.36-5.4,8.5-8.67,8.5-2.08,0-3.84-1.64-3.84-4.73a2.69,2.69,0,0,1,0-.59c-1.91,3-4.19,5.32-6.59,5.32-2.67,0-4.59-2-4.59-5.64,0-6.72,6.11-13.58,11-13.58a4.13,4.13,0,0,1,4,2.23c.36-1.37,1.08-2.23,1.72-2.23a1,1,0,0,1,1.07,1.09c0,.77-.67,2.14-1.79,4.18-1.24,3-2.68,6.68-2.68,9.22,0,2,.8,2.91,2,2.91C434.33,242.78,437,239.05,439.24,235.06Zm-11.55,2.18a39.94,39.94,0,0,0,3.36-7.5c-.2-1.54-1.28-2.5-3.16-2.5-3.71,0-8.7,6.32-8.7,11.9,0,2.32,1.15,3.55,2.51,3.55C423.74,242.69,425.82,240.33,427.69,237.24Z"/><path d="M451.86,235.06s.28-.5.64-.5a.87.87,0,0,1,.84.95,1.63,1.63,0,0,1-.16.59c-2.36,4-4.91,6.13-7.87,6.13a5.09,5.09,0,0,1-1.16-.13,14.29,14.29,0,0,1,.44,3.22c0,6-2.95,11.09-6,11.09-1.92,0-3.24-1.55-3.24-4.73,0-2.86,1.12-7.72,2.68-13a154.6,154.6,0,0,1,7.15-18.94c1.76-4,3.36-5.13,4.68-5.13,1.67,0,2.79,1.27,2.79,3.76,0,6-5.15,14.45-11.18,18.13a9,9,0,0,1,2,3.41,3.21,3.21,0,0,0,1.84.54C447.31,240.46,449.71,238.78,451.86,235.06Zm-9.7,6a6.64,6.64,0,0,1-2-2.46l-.24.82c-1.48,5-2.52,9.54-2.52,12.22,0,2,.6,2.77,1.4,2.77,1.84,0,3.87-4,3.87-9.17A15.81,15.81,0,0,0,442.16,241.1ZM447,220.7c-1.84,4.14-3.76,9-5.43,13.68,5.23-3.73,9.26-11.41,9.26-16,0-1.4-.44-1.9-1-1.9S448.55,217.16,447,220.7Z"/><path d="M464.49,235.06s.28-.5.64-.5a.87.87,0,0,1,.83.95,1.63,1.63,0,0,1-.16.59c-2.35,4-4.91,6.13-7.86,6.13a5.09,5.09,0,0,1-1.16-.13,14.29,14.29,0,0,1,.44,3.22c0,6-3,11.09-6,11.09-1.91,0-3.23-1.55-3.23-4.73,0-2.86,1.12-7.72,2.68-13a153,153,0,0,1,7.15-18.94c1.75-4,3.35-5.13,4.67-5.13,1.68,0,2.8,1.27,2.8,3.76,0,6-5.16,14.45-11.19,18.13a9.09,9.09,0,0,1,2,3.41,3.2,3.2,0,0,0,1.83.54C459.93,240.46,462.33,238.78,464.49,235.06Zm-9.71,6a6.64,6.64,0,0,1-2-2.46l-.24.82c-1.48,5-2.51,9.54-2.51,12.22,0,2,.59,2.77,1.39,2.77,1.84,0,3.88-4,3.88-9.17A15.78,15.78,0,0,0,454.78,241.1Zm4.83-20.4c-1.83,4.14-3.75,9-5.43,13.68,5.23-3.73,9.27-11.41,9.27-16,0-1.4-.44-1.9-1-1.9S461.17,217.16,459.61,220.7Z"/><path d="M474.19,225.38a3.45,3.45,0,0,1,3.8,3.77c0,3.68-5.11,7.09-11.59,7.77,0,.5-.08,1-.08,1.54,0,2.68,1.56,4.14,3.84,4.14a5.6,5.6,0,0,0,4.67-3.18c.2-.41.44-.55.68-.55a.83.83,0,0,1,.72.91c0,1.45-2.84,4.82-6.43,4.82s-5.75-2.23-5.75-6.18C464.05,230.92,469.92,225.38,474.19,225.38Zm-7.39,9.68c5.16-.73,9-3.46,9-6.18a1.56,1.56,0,0,0-1.68-1.64C471.72,227.24,468.08,230.51,466.8,235.06Z"/><line class="cls-9" x1="48.15" y1="286.36" x2="48.15" y2="571.25"/><path class="cls-10" d="M371.56,796.73c2.43-4.4,6.13-3.46,12.17-6.21.64-.29,1.23-.58,1.82-.91a36.51,36.51,0,0,0,5.52-3.79c10.09-8.56,28.45-46.16,28.45-46.16h0a22,22,0,0,0,2.43-3.35,22.54,22.54,0,0,0,1.63-3.36c.51-1.1,1.05-2.22,1.63-3.36,1.06-2.1,2.16-4.06,3.25-5.87,0,0,15.27-23.84,13.27-85.15,0-1.37-.11-2.71-.11-2.71-.16-2.56-.44-4.65-1-11.76-.62-7.5-5.74-74.74-5.64-101,.1-27.05.31-82,35-121.69,30.23-34.59,91.05-62.54,131.7-35.25,19.15,12.86,37.21,40.37,33.33,67.14-6.66,46.05-74,60.53-69.1,91.48,1.73,10.88,11.77,19.94,21.14,21.82,23.55,4.75,49-34.24,66.56-61.78,27.68-43.44,32.4-68.15,49.69-104.39C716.51,352.68,739,314.16,778.86,273a279.58,279.58,0,0,1,23.57-25.17c85.66-80.77,220.83-103.72,335-70.46,33.08,9.63,129.24,38.46,192.32,135.35,14.74,22.65,64.13,98.51,53.18,200.14-8,74.13-44,123.8-57.61,142.12-42.63,57.3-92.8,80.8-104.58,86-65.08,29-170.17,40.69-234.86-16.44-25.41-22.45-43.08-54.19-80.65-58-23-2.34-41.86,6.93-51.4,11.6-10.57,5.18-52.52,25.74-53.18,59.95-.07,3.72.19,16.08,8,26.1,18.76,24.14,63.71,12.25,77.11,8.7,33.21-8.78,39.38-22.59,57.6-18.37,19.39,4.49,36.08,25.83,39,46.41,6.14,43.29-48.19,85.07-84,102.32-64.72,31.19-134,13.64-149.09,9.83-12.13-3.07-20.91-6.4-69.59-19.9-41.3-11.45-50.95-13.48-61.79-15.11-30.2-4.53-49.32-7.32-72.35-1.68-39.26,9.62-49.65,34-74.8,28.54-6.22-1.35-10.68-4-30.77-22.79C396.42,841.4,363.72,811,371.56,796.73Z"/><path class="cls-11" d="M835.51,318.69c7.39,3.46,10,3.73,11.69,1.42,1.36-2,.68-3.85-4.4-9.43C838.39,305.93,833,300,835,292.76c2.64-9.4,10.71-12.29,23.34-8.51,11.06,3.31,21,13.27,17.12,17.61-2.77,3-6.16,0-9.52-1.61-7.18-3.5-9.4-3.12-10.13-.53-.48,1.72.53,3.48,5,8.58,5,5.45,11.48,12.58,8.86,21.89-3.07,10.93-13.08,15-26.46,11-13.56-4.06-24.9-17.85-19.38-24.21C825.79,314.94,828.78,315.42,835.51,318.69Zm3.29,19.49c-9.54-5.14-16.36-14.56-12.81-18.6,1-1.15,3.22-.7,9.36,2.18,7.3,3.43,11.53,4.49,14.09.79,2.38-3.45.42-7.26-4.41-12.66-4.35-4.94-8.9-10.26-7.28-16,2.21-7.87,9-10,20.76-6.47,8.08,2.42,16.12,9.3,16.62,12.88,1.38-3.85-8.06-12.19-17.07-14.89-12-3.59-19.45-1-21.9,7.69-1.86,6.62,3.06,12,7.47,16.8,5.37,6,6.32,8.34,4.49,10.91-2,2.93-5.2,2.71-13.12-1-6.11-3-8.77-3.56-10.21-2C820.6,322.65,828.47,333,838.8,338.18Zm21.37-27.29c4.4,4.75,9.23,10.15,8.94,16.92,1-7.69-4.41-13.69-9-18.72-3.9-4.39-5.43-6.51-5.5-8.4C854,303.52,855.92,306.29,860.17,310.89Z"/><path class="cls-11" d="M930.11,271.59c14.8,0,25,3.4,25,8.79,0,3.6-2.42,5.09-5.22,6.89a17.78,17.78,0,0,0-5.61,4.8c-1.74,2.09-3.2,8.79-4,17.87-1,11.09-1.84,20.58-10.16,20.58S921,321,920,309.94c-.59-6.39-1.36-15.08-4.36-18.37a30.21,30.21,0,0,0-5-4.1c-2.9-1.8-5.42-3.39-5.42-7.09C905.15,275,915.31,271.59,930.11,271.59Zm-19,14.88a24.86,24.86,0,0,1,5.32,4.3c3.2,3.59,4.07,12.68,4.65,19.07,1.06,10.59,1.64,18.78,8.12,19.48-4.83-1.4-5.51-8.69-6.38-18.58-.58-6.39-1.36-16.18-4.84-20a25.86,25.86,0,0,0-5.51-4.4c-2.91-1.79-4.45-2.39-4.45-5,0-3.69,9.38-6.79,23-6.79,12.48,0,21.38,2.6,22.83,5.79,0-4.49-10.06-7.59-23.8-7.59s-23.8,3.1-23.8,7.59C906.31,283.38,908.25,284.68,911.15,286.47Z"/><path class="cls-11" d="M1032.71,292.24c17,0,28.63,17.78,28.63,43.74,0,8.79-4.16,15-10.25,15-5.71,0-9.68-5.49-13.16-10.28-3.77-5.3-5.9-7.19-8-7.19-3.48,0-5.22,3.79-7.06,7.89-2.23,4.59-4.45,9.48-9.48,9.48-5.71,0-9.1-5.89-9.1-15.58C1004.26,310.62,1016.36,292.24,1032.71,292.24Zm-20,57.42c-3.58-1.09-5.51-6-5.51-13.38,0-23.67,11.32-41,26.5-41,12.68,0,22.16,10.78,25.45,27.86-3.2-18.08-13.06-29.66-26.41-29.66-15.77,0-27.29,17.87-27.29,41.84C1005.42,343.87,1008,349.17,1012.68,349.66Zm20.9-22.07c6.29,0,12.28-1,12.28-10.88,0-7.59-4.64-13.59-10.74-14.48,5.23,1.3,9,6.69,9,13.48,0,9.19-5.32,10.09-11.51,10.09-4.84,0-9.77-.7-11.13-6.59C1022.45,326.79,1028.35,327.59,1033.58,327.59Zm-1-3c6.09,0,10.35-.7,10.35-8.89,0-7.09-4.55-12.59-10.35-12.59s-10.35,5.6-10.35,12.59C1022.26,323.9,1026.9,324.6,1032.61,324.6ZM1038.9,340c3.29,4.49,6.67,9.19,11.32,9.68-3.87-1-6.78-5.09-9.77-9.18-2.62-3.7-5.62-7.69-9.2-8C1034.06,333.39,1036.58,336.68,1038.9,340Z"/><path class="cls-11" d="M1145.29,305.93c17.8,0,27,7.69,27,22.77a30.61,30.61,0,0,1-3.1,14.09,7.46,7.46,0,0,0-1.26,3.69,17.51,17.51,0,0,0,.87,3.8c2.91,10.28,1.84,14.38-4.16,14.38-5.22,0-9.57-4.1-13.54-7.89-3.09-3-6-5.8-8.8-5.8-2.23,0-3.49,1.4-5.32,6.6-1.94,5.49-3.39,7.29-6.19,7.29-6.68,0-10.65-10.89-10.65-28.27C1120.13,314.32,1127,305.93,1145.29,305.93Zm-14.8,57.73c-4.45-1.5-7.45-11.19-7.45-26.07,0-21.27,6.09-28.66,23.21-28.66,14.32,0,22.45,5,24.48,15.08-1.74-11.29-10.16-16.88-25.44-16.88-17.61,0-24,7.79-24,29.46C1121.29,352.67,1124.78,363.26,1130.49,363.66Zm13.44-23.17c8.32,0,12.77-4.3,12.77-12.38,0-7.1-3.09-11.19-9.38-12.19,5.13,1.3,7.64,4.89,7.64,11.19,0,7.69-4.06,11.58-12,11.58-6.77,0-10.64-2.6-11.8-7.79Q1132.62,340.49,1143.93,340.49Zm-1-3c7.26,0,10.84-3.39,10.84-10.38,0-7.19-3.39-10.39-10.84-10.39-7.25,0-11,3.49-11,10.39C1131.94,334.2,1135.42,337.49,1143,337.49Zm9,18.38c3.68,3.49,7.26,7,11.51,7.49-3.58-.9-6.38-4.3-9.67-7.49-2.9-2.8-6.58-5.49-9.87-5.89C1146.64,350.78,1149.35,353.37,1152,355.87Z"/><path class="cls-11" d="M1217.87,325.81c14.73-6.8,26.35-8.19,28.75-3,1.6,3.47-.14,6-2.13,9.05a19.4,19.4,0,0,0-3.46,7.2c-.8,2.82.73,9.94,4,19.05,4,11.14,7.32,20.69-1,24.5s-13.28-5-19.27-15.17c-3.42-5.9-8-13.92-12.5-15.72a33.51,33.51,0,0,0-6.83-1.64c-3.69-.4-6.9-.78-8.55-4.35C1194.53,340.54,1203.14,332.61,1217.87,325.81Zm-12.26,23.05a27.79,27.79,0,0,1,7.21,1.7c4.78,2,9.68,10.37,13.1,16.26,5.77,9.72,10,17.35,16.75,15.05-5.43.87-9.35-5.85-14.61-15-3.42-5.9-8.55-15-13.7-17a28.28,28.28,0,0,0-7.44-1.71c-3.69-.39-5.5-.26-6.65-2.77-1.65-3.56,6.32-10.85,19.89-17.12,12.43-5.73,22.44-7.31,25.31-4.89-2-4.33-13.39-2.7-27.07,3.6s-22.31,13.92-20.31,18.25C1199.42,348.1,1201.92,348.46,1205.61,348.86Z"/><path class="cls-11" d="M759,581.88c5.63,6,8,7.28,10.36,5.77,2-1.33,2-3.33-.73-10.44-2.4-6.1-5.26-13.7-.81-19.62,5.81-7.73,14.34-7.35,24.74,1,9.09,7.29,14.83,20.35,9.62,22.88-3.65,1.76-5.73-2.32-8.28-5.12-5.42-6-7.62-6.48-9.22-4.35-1.07,1.42-.75,3.45,1.62,9.9,2.72,7,6.17,16.07.42,23.72-6.76,9-17.52,9-28.53.16s-16.77-26.08-9.37-29.89C751.28,574.69,753.89,576.28,759,581.88Zm-3.91,19.37c-7-8.41-10-19.77-5.26-22.17,1.37-.67,3.24.58,7.92,5.59,5.56,6,9.12,8.57,12.81,6.09,3.45-2.3,3-6.58.43-13.44-2.28-6.25-4.61-12.92-1.05-17.65,4.86-6.47,12-5.83,21.6,1.88,6.65,5.33,11.67,14.78,10.86,18.3,2.66-3.05-3.14-14.39-10.56-20.33-9.86-7.9-17.71-8.37-23.1-1.19-4.09,5.44-1.46,12.36.94,18.45,2.86,7.6,2.9,10.16.28,11.85-2.93,2-5.79.55-11.83-5.93-4.62-5.09-6.88-6.65-8.77-5.76C743.71,579.88,747.32,592.51,755.08,601.25ZM784.69,584c2.4,6.09,5,13,2.27,19.14,3.73-6.75.79-14.41-1.72-20.85-2.06-5.57-2.71-8.12-2.11-9.9C781.57,574.81,782.39,578.12,784.69,584Z"/><path class="cls-11" d="M866.5,509.85c17.8,0,27,7.69,27,22.77,0,15.28-6.78,23.57-20.13,24.66-5.9.5-7.74,3.5-9.48,6.19s-3.38,5.3-8.51,5.3c-9,0-14-10.49-14-28.26C841.35,518.23,848.22,509.85,866.5,509.85Zm-12.28,57.62c-6.29-1.6-10-10.79-10-26,0-21.27,6.1-28.66,23.22-28.66,14.32,0,22.45,5,24.48,15.08C890.21,516.64,881.79,511,866.5,511c-17.6,0-24,7.79-24,29.47C842.51,556.79,846.67,566.57,854.22,567.47Zm11-22.67c8.32,0,12.77-4.29,12.77-12.38,0-7.09-3.1-11.19-9.39-12.19,5.13,1.3,7.65,4.89,7.65,11.19,0,7.69-4.07,11.58-12,11.58-6.77,0-10.64-2.59-11.8-7.79Q853.92,544.8,865.25,544.8Zm-1-3c7.26,0,10.83-3.39,10.83-10.38,0-7.19-3.38-10.39-10.83-10.39-7.26,0-11,3.5-11,10.39C853.25,538.51,856.73,541.8,864.28,541.8Z"/><path class="cls-11" d="M938.63,527.83c7.64,0,11.22,9.59,11.22,29.36,0,19.08-3.77,29.56-10.93,29.56-8.23,0-12.29-10-12.29-29.56C926.63,538.41,930.89,527.83,938.63,527.83Zm-.58,57.72c-5.61-1.59-8.52-10.68-8.52-27.36,0-17.68,3.78-27.37,10.06-27.37,4,0,6.68,3.6,8.13,11.09-1.45-8.59-4.45-12.88-9.09-12.88-7,0-10.84,10.28-10.84,28.16C927.79,575.27,931.18,584.75,938.05,585.55Z"/><path class="cls-11" d="M1023.41,529c4.74.8,7.06,6.89,9.29,23.26.58,4.7,1.06,8.89,2.12,10.79,1.84,3.2,4.74,3.7,7.65,4.3,3.67.59,5.22,1.29,6.38,3.09,4.26,7.59-6.58,17.18-19.25,17.18-13.06,0-19.83-10.19-19.35-29.06C1010.83,538.87,1015.77,527.59,1023.41,529Zm2.8,57.12c-9-2-13.54-11-13.06-26.47.58-18.37,4.94-28.66,10.94-27.66,2.12.4,3.77,2.5,5.12,7.19-1.54-5.89-3.38-8.49-6-9-6.77-1.19-11.22,9.79-11.8,28.47C1010.93,575,1016.06,584.51,1026.21,586.11Zm7.94-21.07c2.22,4,6.09,4.69,9,5.29,3.29.5,4.26,1,5,2.2a5.31,5.31,0,0,1,.49,1.1,5.76,5.76,0,0,0-.78-2.5c-1-1.5-2.22-2.1-5.61-2.6-2.9-.6-6.38-1.19-8.41-4.89a18.41,18.41,0,0,1-1.45-4.79A21.33,21.33,0,0,0,1034.15,565Z"/><path class="cls-11" d="M1105,561.36c4.74.79,7.06,6.89,9.29,23.26.58,4.7,1.06,8.89,2.12,10.79,1.84,3.2,4.74,3.7,7.65,4.3,3.67.59,5.22,1.29,6.38,3.09,4.26,7.59-6.58,17.18-19.25,17.18-13.06,0-19.83-10.19-19.35-29.06C1092.46,571.24,1097.4,560,1105,561.36Zm2.8,57.12c-9-2-13.54-11-13.06-26.46.58-18.38,4.94-28.67,10.94-27.67,2.12.4,3.77,2.5,5.12,7.19-1.55-5.89-3.38-8.49-6-9-6.77-1.19-11.22,9.79-11.8,28.47C1092.56,607.39,1097.69,616.88,1107.84,618.48Zm7.94-21.07c2.22,4,6.09,4.69,9,5.29,3.29.5,4.26,1,5,2.2a5.31,5.31,0,0,1,.49,1.1,5.76,5.76,0,0,0-.78-2.5c-1-1.5-2.22-2.1-5.61-2.6-2.9-.6-6.38-1.19-8.41-4.89a18.41,18.41,0,0,1-1.45-4.79A21.33,21.33,0,0,0,1115.78,597.41Z"/><path class="cls-11" d="M1197.17,529.88c19.84,0,31.64,3.1,31.64,8.89,0,4-5.32,5.4-20.7,6.29-13.36.8-16.26,1.7-16.26,4.1s3,3.59,14.42,4.29c13.25.8,17.7,2.2,17.7,6.19,0,2.9-2.71,4.2-10.74,5.7-7.74,1.4-9.86,2.59-9.86,4.89s2.12,3.2,11.31,3.8c10.36.69,14.13,2,14.13,5.59,0,6-11.61,9.19-31.64,9.19-8,0-17.8-.9-16.73-13.59.87-11,.38-18.67-.29-29.46C1179.28,530.88,1190.4,529.88,1197.17,529.88Zm-15.57,45.44c-.68,8.09,3.38,10.89,8.51,11.79-4.35-1.1-7.35-3.8-6.77-10.69.87-11.18.39-19-.29-29.76-.77-13,8.42-13.78,15.09-13.78,16.45,0,27.86,2.4,29.51,6v-.1c0-4.89-12.1-7.69-30.48-7.69-6.67,0-16.64.9-15.86,14.58C1182,556.55,1182.47,564.24,1181.6,575.32Zm25.54-18.87c10.45.6,14.7,1.6,15.67,3.39v-.2c0-3.09-4.45-4.29-16.64-5-10.45-.6-14.41-1.7-15.28-4.19C1191.18,555,1196.88,555.85,1207.14,556.45Zm8.41,20.57c8,.5,11.32,1.4,12.1,2.8v-.2c0-2.7-3.58-3.8-13.06-4.4-8.23-.6-11.42-1.49-12.19-3.69C1202.59,575.62,1207.33,576.52,1215.55,577Z"/><path class="cls-11" d="M1303.91,569c14.79,6.68,23.45,14.55,21.09,19.77-1.57,3.48-4.64,3.84-8.23,4.31a19.52,19.52,0,0,0-7.7,2.11c-2.66,1.24-7,7.06-11.78,15.51-5.81,10.29-10.83,19.08-19.14,15.32s-4.94-13.29-1.15-24.49c2.21-6.45,5.24-15.21,3.68-19.75a33,33,0,0,0-3.23-6.23c-2.12-3-3.93-5.74-2.31-9.31C1277.49,561,1289.13,562.32,1303.91,569Zm-25.45,5.84a27.09,27.09,0,0,1,3.44,6.56c1.62,4.92-1.48,14.11-3.7,20.55-3.57,10.73-6.57,18.92-.4,22.52-4.22-3.54-1.71-10.9,1.75-20.86,2.21-6.45,5.72-16.27,3.9-21.51a27.89,27.89,0,0,0-3.59-6.74c-2.11-3.05-3.4-4.33-2.26-6.84,1.61-3.58,12.34-2.34,26,3.82,12.47,5.63,20.22,12.16,20.27,15.91,2-4.35-6.73-11.89-20.45-18.09s-25.13-7.75-27.09-3.4C1275,569.66,1276.35,571.79,1278.46,574.84Z"/><path class="cls-12" d="M489,444.69c-3.93-3.57,21-62.67,67-69.65,4.59-.69,30.31-4.59,42.5,11.36,5.61,7.34,9.05,19.81,3.91,27.92-4.84,7.64-15.3,8.26-25.7,8.74-19.4.88-25.29-5.45-38-5.83C509.9,416.37,492,447.41,489,444.69Z"/><path class="cls-13" d="M389.45,817.71c-.17-20.3,32.88-20.91,54.62-58.25,13.83-23.75,6.46-32.48,20.73-51.36,15.76-20.86,48.29-37.19,65.29-24.67,11.66,8.6,15.79,30.61,8.13,42.8-6.71,10.67-17.49,5.94-40.26,20.38-10.09,6.4-20.52,13.45-25,26.51-.27.79-5.86,17.62,2.24,27,9.05,10.48,30.54,6.21,44.16-1.16,17.69-9.57,19.79-22.16,40-48.23,18.39-23.7,27.59-35.55,43.1-43,33.88-16.16,75-.3,98,16.44a106.87,106.87,0,0,1,23.6,23.7c7.14,9.86,28.48,39.35,18.34,68-1.16,3.27-6.7,17.73-20.56,24.85-16,8.21-33,2.4-43.69-1.31-29-10.08-32.06-26.61-55.36-31.79-14.34-3.19-25.77.27-39.66,4.47-35.32,10.69-49.26,31.19-105,63.51-4.18,2.43-11.72,8.75-21.54,7.94-10.85-.9-17.54-9.39-28.86-22.2C394.82,824.18,389.51,825.86,389.45,817.71Z"/><path class="cls-13" d="M684.15,870c-.15,4,25.8,17.1,55.26,18.81,11.62.67,40.68,1.87,58.27-20.85,3.68-4.75,9.68-12.74,7.59-22.39C803,835.21,792.4,827,783.76,826.48c-6.53-.39-10.19,3.76-19.39,12.44C754,848.73,743,858.23,738.71,861.48,714.54,879.82,684.31,865.64,684.15,870Z"/><path class="cls-14" d="M996.73,694.34c-2,4.23,27,28.07,65.85,41.13,15.32,5.14,53.88,17.5,87.8,0,7.11-3.67,18.78-9.9,20.33-21,1.66-11.87-8.94-24.7-20.33-28.53-8.62-2.9-15.41.12-31.7,5.87-18.4,6.5-37.47,12.44-44.72,14.27C1033.17,716.42,998.9,689.78,996.73,694.34Z"/><path class="cls-15" d="M438.88,898.76c5.78-2.36,20,11.1,17.95,18.94-3.47,13.45-54.57,9.82-54.82,7.2-.18-1.88,25.8-1.9,32.77-17.31C436.7,903.35,436.34,899.8,438.88,898.76Z"/><path class="cls-11" d="M1786.7,144.47H1468.57a26.81,26.81,0,0,0-26.73,26.74V383.29A26.81,26.81,0,0,0,1468.57,410h248q-15,36.47-9.61,39.83,6.52,4,42.63-39.82h37.08a26.81,26.81,0,0,0,26.73-26.73V171.21A26.81,26.81,0,0,0,1786.7,144.47Z"/><path class="cls-8" d="M1517.08,312.59c0,.2-9.12,49.11-9.16,49.51s-.1.27-.3.27-11,0-11.27.06-.25,0-.44-.2-4.56-8.46-4.71-8.79-.19-.4-.24,0-1.52,8.06-1.57,8.46-.1.4-.25.47l-9.75.13c-.24.06-.24,0-.44-.27s-6.81-10.79-6.86-10.93a.86.86,0,0,1-.2-.46c0-.07-2.35-11.33-4.6-23.06-2.36-12.33-4.71-24.59-4.76-24.72s0-.33.25-.33,2.4-.07,4.65-.07,4.36-.07,4.51-.07a.67.67,0,0,1,.59.2c.2.27,6.76,7.6,7,7.87s.19.13.24-.14,1.47-7.26,1.47-7.46,0-.33.3-.33,7.79.06,8,.06.14.07.34.27,7.2,7.66,7.55,8,.39.2.44-.14,1.37-7.53,1.42-7.73.05-.33.24-.33,7.4,0,7.75,0a.85.85,0,0,1,.68.4c.2.2,8.78,8.73,9,8.86S1517.13,312.32,1517.08,312.59Zm-9.95-8.13c-.15.07-1.71-.13-3-.13a15.3,15.3,0,0,0-3.43.13c-.15,0-.24.07-.29.33s-5.3,27.52-5.44,28.32,0,.93-.25.07c0-.6-2.11-10.93-3.53-19.13-1-5.46-2-9.46-2-9.52,0-.27,0-.27-.29-.27l-5.88.07c-.3,0-.25.26-.3.46s-5.34,30.32-5.53,31-.1,1.4-.4,0-5.78-30.85-5.88-31.18-.24-.4-.44-.4l-5.83-.07c-.15,0-.25.07-.2.34s2.45,12.06,3.19,15.79,5.63,29.78,5.68,30.12,0,.33.25.33,6.71,0,7,0,.19,0,.24-.33,1.38-6.87,2.55-13.4c1.08-5.93,2.06-11.79,2.11-12.06,0-.6.15-.26.25.27s5.78,25.12,5.83,25.32.09.27.29.27h6.27c.2,0,.2-.07.25-.27s8.87-45.51,9-45.78S1507.33,304.46,1507.13,304.46Z"/><path class="cls-8" d="M1549.57,351.64a11.83,11.83,0,0,1-1.47,5,8.36,8.36,0,0,1-4.95,4.27,18.57,18.57,0,0,1-7.2.06c-1.86-.26-3.28-.93-6.52-3.86a42.06,42.06,0,0,1-7-8.66,26.72,26.72,0,0,1-2.55-7.6c-.49-2.4-.14-9.39-.09-15s.19-9.4.24-11.39a16.49,16.49,0,0,1,1.91-6.94c1.18-2.26,3.78-5.59,7.55-6a9.65,9.65,0,0,1,7.35,1.93,46.26,46.26,0,0,1,5.59,5.26,49.12,49.12,0,0,1,4.26,5.93,20.82,20.82,0,0,1,2.65,6.53c.73,3.14.64,7.73.59,15.8S1549.67,350.5,1549.57,351.64ZM1541.44,327c0-5.33,0-8.33-.2-11s-.78-6.6-3.33-9.46-4.8-3.67-7.5-3.54-4.8.94-7.15,4.93a17.45,17.45,0,0,0-2.41,7.8c0,1.93,0,4-.09,10.4s-.15,11.06,0,13a12.73,12.73,0,0,0,2.84,7.46c2.16,2.73,4,4.4,7.5,4s4.8-.93,6.71-3.4a17.61,17.61,0,0,0,3.48-8.86C1541.39,335.31,1541.44,332.38,1541.44,327Zm-10.78-15.19a3.53,3.53,0,0,1,3.08,1.26c.93,1.07,1.08,2.2,1.13,4.07s.1,16.52.15,18.06,0,6.53-3.73,6.66-3.77-3.66-4-5.06-.24-6.47-.24-11,0-7.13,0-8.19a9,9,0,0,1,.78-3.87A3.05,3.05,0,0,1,1530.66,311.79Z"/><path class="cls-8" d="M1582.41,351.64a12,12,0,0,1-1.47,5,8.39,8.39,0,0,1-5,4.27,18.58,18.58,0,0,1-7.2.06c-1.87-.26-3.29-.93-6.52-3.86a41.39,41.39,0,0,1-7-8.66,26.72,26.72,0,0,1-2.55-7.6c-.49-2.4-.15-9.39-.1-15s.2-9.4.25-11.39a16.34,16.34,0,0,1,1.91-6.94c1.18-2.26,3.77-5.59,7.55-6a9.65,9.65,0,0,1,7.35,1.93,47,47,0,0,1,5.59,5.26,49.12,49.12,0,0,1,4.26,5.93,21.07,21.07,0,0,1,2.65,6.53c.73,3.14.63,7.73.59,15.8S1582.51,350.5,1582.41,351.64ZM1574.28,327c0-5.33,0-8.33-.2-11s-.78-6.6-3.33-9.46-4.81-3.67-7.5-3.54-4.8.94-7.16,4.93a17.43,17.43,0,0,0-2.4,7.8c0,1.93,0,4-.1,10.4s-.14,11.06,0,13a12.83,12.83,0,0,0,2.85,7.46c2.15,2.73,4,4.4,7.5,4s4.8-.93,6.71-3.4a17.7,17.7,0,0,0,3.48-8.86C1574.23,335.31,1574.28,332.38,1574.28,327Zm-10.79-15.19a3.54,3.54,0,0,1,3.09,1.26c.93,1.07,1.08,2.2,1.13,4.07s.1,16.52.15,18.06,0,6.53-3.73,6.66-3.77-3.66-4-5.06-.24-6.47-.24-11-.05-7.13,0-8.19a8.87,8.87,0,0,1,.78-3.87A3,3,0,0,1,1563.49,311.79Z"/><path class="cls-8" d="M1614.61,311.86c0,.53-.29,9.32-.34,10s-.49.87-.83.87-3.68.2-4.9.2-5.79,0-6-.07-.4.07-.2.27,2,2.86,3.23,4.46,3.09,3.87,3.19,4a.59.59,0,0,1,.15.46c0,.41.1,2.41.14,4.54s0,3.86,0,4.66-.2.67-.69.67-5.93.26-6.23.26-.29.21-.29.54.15,5.33.2,8.39.14,8.93.14,9.33-.09.53-.24.53-2.65.14-4.27.21-3.87,0-4.21-.07a.82.82,0,0,1-.64-.4c-.14-.2-6.76-7.8-7-8.13a1.65,1.65,0,0,1-.35-1.27c0-.2-.05-11.33-.1-22.79-.09-12.32,0-25,0-25.25s0-.47.54-.47,20.78.2,21.42.27a1.66,1.66,0,0,1,1.42.6c.25.33,2.11,2.6,3.14,3.93s2.3,3.13,2.5,3.47A1.23,1.23,0,0,1,1614.61,311.86Zm-8.62.46c0-.4.09-7.6,0-7.93s0-.27-.3-.2-6.86-.13-10.49-.07-8.18.07-8.43.07-.54-.13-.54.53c0,.34-.09,11.6,0,22.73s0,22.19,0,22.39c0,.46,0,.66.3.73s5.44.07,5.88.07.44-.27.39-.87-.34-17.32-.29-17.92.19-.47.44-.4,6.22,0,6.52-.07.29.07.29-.27-.1-7.33-.1-7.73,0-.53-.39-.53l-6.62-.13c-.29,0-.39.06-.39-.54s.05-8.66,0-9.19.15-.4.34-.4,4.42.13,7,.06h6.08C1606,312.59,1606,312.59,1606,312.32Z"/><path class="cls-8" d="M1687.59,312.59c0,.2-9.12,49.11-9.17,49.51s-.09.27-.29.27-11,0-11.27.06-.25,0-.44-.2-4.56-8.46-4.71-8.79-.19-.4-.24,0-1.52,8.06-1.57,8.46-.1.4-.25.47l-9.75.13c-.24.06-.24,0-.44-.27s-6.81-10.79-6.86-10.93a.86.86,0,0,1-.2-.46c0-.07-2.35-11.33-4.61-23.06-2.35-12.33-4.7-24.59-4.75-24.72s0-.33.25-.33,2.4-.07,4.65-.07,4.36-.07,4.51-.07a.68.68,0,0,1,.59.2c.19.27,6.76,7.6,7,7.87s.19.13.24-.14,1.47-7.26,1.47-7.46,0-.33.3-.33,7.79.06,8,.06.15.07.35.27,7.2,7.66,7.55,8,.39.2.44-.14,1.37-7.53,1.42-7.73.05-.33.24-.33,7.4,0,7.75,0a.85.85,0,0,1,.68.4c.2.2,8.78,8.73,9,8.86S1687.64,312.32,1687.59,312.59Zm-9.95-8.13c-.15.07-1.72-.13-3-.13a15.26,15.26,0,0,0-3.43.13c-.15,0-.25.07-.29.33s-5.3,27.52-5.44,28.32,0,.93-.25.07c0-.6-2.11-10.93-3.53-19.13-1-5.46-2-9.46-2-9.52,0-.27,0-.27-.29-.27l-5.88.07c-.3,0-.25.26-.3.46s-5.34,30.32-5.54,31-.09,1.4-.39,0-5.78-30.85-5.88-31.18-.24-.4-.44-.4l-5.83-.07c-.15,0-.25.07-.2.34s2.45,12.06,3.19,15.79,5.63,29.78,5.68,30.12,0,.33.25.33,6.71,0,7,0,.19,0,.24-.33,1.37-6.87,2.55-13.4c1.08-5.93,2.06-11.79,2.11-12.06,0-.6.15-.26.24.27s5.79,25.12,5.84,25.32.09.27.29.27h6.27c.2,0,.2-.07.25-.27s8.87-45.51,9-45.78S1677.84,304.46,1677.64,304.46Z"/><path class="cls-8" d="M1720.08,351.64a12,12,0,0,1-1.47,5,8.36,8.36,0,0,1-4.95,4.27,18.58,18.58,0,0,1-7.2.06c-1.86-.26-3.29-.93-6.52-3.86a41.72,41.72,0,0,1-7-8.66,26.72,26.72,0,0,1-2.55-7.6c-.49-2.4-.14-9.39-.1-15s.2-9.4.25-11.39a16.49,16.49,0,0,1,1.91-6.94c1.18-2.26,3.77-5.59,7.55-6a9.65,9.65,0,0,1,7.35,1.93,47,47,0,0,1,5.59,5.26,49.12,49.12,0,0,1,4.26,5.93,21.07,21.07,0,0,1,2.65,6.53c.73,3.14.64,7.73.59,15.8S1720.18,350.5,1720.08,351.64ZM1712,327c0-5.33,0-8.33-.2-11s-.78-6.6-3.33-9.46-4.8-3.67-7.5-3.54-4.8.94-7.16,4.93a17.56,17.56,0,0,0-2.4,7.8c0,1.93,0,4-.1,10.4s-.14,11.06,0,13a12.73,12.73,0,0,0,2.84,7.46c2.15,2.73,4,4.4,7.5,4s4.8-.93,6.71-3.4a17.61,17.61,0,0,0,3.48-8.86C1711.9,335.31,1712,332.38,1712,327Zm-10.78-15.19a3.53,3.53,0,0,1,3.08,1.26c.93,1.07,1.08,2.2,1.13,4.07s.1,16.52.15,18.06,0,6.53-3.73,6.66-3.77-3.66-4-5.06-.24-6.47-.24-11,0-7.13,0-8.19a9,9,0,0,1,.78-3.87A3,3,0,0,1,1701.17,311.79Z"/><path class="cls-8" d="M1752.92,351.64a12,12,0,0,1-1.47,5,8.39,8.39,0,0,1-5,4.27,18.58,18.58,0,0,1-7.2.06c-1.87-.26-3.29-.93-6.52-3.86a41.39,41.39,0,0,1-7-8.66,26.72,26.72,0,0,1-2.55-7.6c-.49-2.4-.15-9.39-.1-15s.2-9.4.25-11.39a16.34,16.34,0,0,1,1.91-6.94c1.18-2.26,3.77-5.59,7.55-6a9.65,9.65,0,0,1,7.35,1.93,47,47,0,0,1,5.59,5.26,49.12,49.12,0,0,1,4.26,5.93,21.07,21.07,0,0,1,2.65,6.53c.73,3.14.63,7.73.58,15.8S1753,350.5,1752.92,351.64ZM1744.79,327c0-5.33,0-8.33-.2-11s-.78-6.6-3.33-9.46-4.81-3.67-7.5-3.54-4.8.94-7.16,4.93a17.43,17.43,0,0,0-2.4,7.8c0,1.93,0,4-.1,10.4s-.14,11.06,0,13a12.83,12.83,0,0,0,2.85,7.46c2.15,2.73,4,4.4,7.5,4s4.8-.93,6.71-3.4a17.7,17.7,0,0,0,3.48-8.86C1744.74,335.31,1744.79,332.38,1744.79,327ZM1734,311.79a3.54,3.54,0,0,1,3.09,1.26c.93,1.07,1.08,2.2,1.13,4.07s.1,16.52.15,18.06,0,6.53-3.73,6.66-3.77-3.66-4-5.06-.25-6.47-.25-11,0-7.13,0-8.19a8.9,8.9,0,0,1,.79-3.87A3,3,0,0,1,1734,311.79Z"/><path class="cls-8" d="M1785.12,311.86c0,.53-.29,9.32-.34,10s-.49.87-.84.87-3.67.2-4.9.2-5.78,0-6-.07-.39.07-.19.27,2,2.86,3.23,4.46,3.09,3.87,3.19,4a.59.59,0,0,1,.15.46c0,.41.09,2.41.14,4.54s0,3.86,0,4.66-.19.67-.68.67-5.93.26-6.23.26-.29.21-.29.54.15,5.33.2,8.39.14,8.93.14,9.33-.1.53-.24.53-2.65.14-4.27.21-3.87,0-4.21-.07a.81.81,0,0,1-.64-.4c-.15-.2-6.76-7.8-7.06-8.13a1.69,1.69,0,0,1-.34-1.27c0-.2-.05-11.33-.1-22.79-.1-12.32,0-25,0-25.25s0-.47.54-.47,20.78.2,21.42.27a1.66,1.66,0,0,1,1.42.6c.25.33,2.11,2.6,3.14,3.93s2.3,3.13,2.5,3.47A1.23,1.23,0,0,1,1785.12,311.86Zm-8.62.46c0-.4.09-7.6,0-7.93s0-.27-.29-.2-6.86-.13-10.49-.07-8.18.07-8.43.07-.54-.13-.54.53c0,.34-.1,11.6,0,22.73s0,22.19,0,22.39c0,.46,0,.66.3.73s5.44.07,5.88.07.44-.27.39-.87-.34-17.32-.29-17.92.19-.47.44-.4,6.22,0,6.51-.07.3.07.3-.27-.1-7.33-.1-7.73,0-.53-.39-.53l-6.62-.13c-.29,0-.39.06-.39-.54s.05-8.66,0-9.19.15-.4.34-.4,4.41.13,7,.06h6.08C1776.54,312.59,1776.5,312.59,1776.5,312.32Z"/><path d="M1492.47,172.71a2.91,2.91,0,0,0-.34-1.47.82.82,0,0,1-.16-.43.62.62,0,0,1,.63-.59c.61,0,1.22.91,1.25,2.68,1.67.48,2.63,2,2.63,4.3a20.49,20.49,0,0,1-2.73,9,10.9,10.9,0,0,1,6,5.67c5-15.29,9.71-19.22,13.29-19.22,1.17,0,1.85.59,1.85,1a.48.48,0,0,1-.47.5c-.45,0-.43-.32-1.41-.32-3,0-8.06,5.32-12.83,21.39-.14.46-.24.7-.67.7a.6.6,0,0,1-.66-.59,6,6,0,0,1,.16-.88c0-2.62-2.2-5.7-5.81-7.22-3,5.08-7.56,9.49-11.77,9.49-2.84,0-4.62-1.69-4.62-4.12,0-3.72,4.91-7.56,11.46-7.56a13.91,13.91,0,0,1,4.14.64,19.68,19.68,0,0,0,2.65-8.48c0-1.55-.48-2.57-1.3-3-.64,3.45-3.74,7.65-6.53,7.65a2.69,2.69,0,0,1-2.81-2.89C1484.38,175.71,1488.87,172.74,1492.47,172.71Zm-.69,14a13.72,13.72,0,0,0-3.55-.48c-5.62,0-10,3.42-10,6.36a2.85,2.85,0,0,0,3.16,2.91C1484.94,195.51,1489,191.42,1491.78,186.72Zm.61-12.86c-2.94,0-6.6,2.49-6.6,5.19a1.44,1.44,0,0,0,1.43,1.63C1489.42,180.68,1491.92,176.8,1492.39,173.86Z"/><path d="M1506.59,196.1c-1.33,3.64-2.89,5.78-5,5.78a2.19,2.19,0,0,1-2.36-2.09c0-2.27,2.17-3.21,6.18-4.41,1.45-4.17,2.7-7.43,3.71-9.78.56-1.37,1-1.93,1.38-1.93a.64.64,0,0,1,.71.64,6.22,6.22,0,0,1-1.14,2.46,69.37,69.37,0,0,0-2.94,8,13.78,13.78,0,0,0,6-5.42s.18-.3.42-.3a.51.51,0,0,1,.56.54,1,1,0,0,1-.11.34A14.4,14.4,0,0,1,1506.59,196.1Zm-1.65.48c-2.89.89-4.51,1.74-4.51,3.21a1,1,0,0,0,1.12,1C1502.61,200.81,1503.88,199.39,1504.94,196.58Zm7.45-17a.91.91,0,0,1,1,.94,1.31,1.31,0,0,1-1.19,1.26.9.9,0,0,1-1-.91A1.38,1.38,0,0,1,1512.39,179.55Z"/><path d="M1531.44,189.37s.18-.3.42-.3a.55.55,0,0,1,.56.56,1,1,0,0,1-.11.35c-1.86,2.89-4.83,5-7.85,5-2.54,0-4-1.26-4-3.56l-.16-.08c-1.35,2-3,3.64-4.7,3.64s-3-1.18-3-3.32c0-3.95,4.06-8,7.32-8a3,3,0,0,1,3.13,2,6.4,6.4,0,0,1,4.19-2c1.59,0,2.52.8,2.52,2.22,0,2.17-3.39,4.17-7.69,4.57,0,.3,0,.62,0,.91a2.33,2.33,0,0,0,2.62,2.46C1526.77,193.83,1529.71,192.07,1531.44,189.37Zm-11.73,1.28c.91-1.34,2.44-4.17,2.44-4.17a2.08,2.08,0,0,0-2.3-1.71c-2.47,0-5.78,3.71-5.78,7,0,1.36.76,2.09,1.67,2.09C1517.09,193.86,1518.47,192.47,1519.71,190.65Zm2.58-1.28c3.42-.43,6-2,6-3.64a1,1,0,0,0-1.11-1C1525.55,184.77,1523.13,186.69,1522.29,189.37Z"/><path d="M1538.31,189.37a.52.52,0,0,1,.45-.3.54.54,0,0,1,.53.54.73.73,0,0,1-.11.37c-1.64,2.57-3.58,5-5.75,5-1.57,0-2.55-1-2.55-2.94,0-2.59,2.73-8.58,4.72-12.43.69-1.34,1.25-2.27,1.67-2.27a.63.63,0,0,1,.69.66c0,1.1-1.59,3.91-3.36,7-1.3,2.85-2.29,5.53-2.29,7.16,0,1.23.56,1.79,1.33,1.79C1535.05,193.91,1536.8,191.72,1538.31,189.37Z"/><path d="M1540.22,194.37c-.59-.38-.9-.75-.9-1.13a.53.53,0,0,1,.53-.53c.26,0,.34.1.61.37a2.58,2.58,0,0,0,1.83.8c2.52,0,5-3.79,5-7.21,0-1.21-.58-1.9-1.56-1.9-1.41,0-3.71,1.74-5,3.31s-2.18,4.2-2.87,6.1l-2.62,7.27c-.14.4-.32.69-.75.69a.61.61,0,0,1-.61-.58,1.73,1.73,0,0,1,.14-.65c1.77-5,4.69-12.69,6.31-16.54a.93.93,0,0,1,.85-.7.57.57,0,0,1,.63.59,4.13,4.13,0,0,1-.63,1.58l-.4.93c1.62-1.79,3.5-3.1,5-3.1a2.77,2.77,0,0,1,3,3.05c0,3.82-3,8.26-6.28,8.26A4.31,4.31,0,0,1,1540.22,194.37Z"/><path d="M1551.76,191.83a.87.87,0,0,1,1,.93c0,1-.82,2.22-1.72,2.22a1,1,0,0,1-1-1A2.15,2.15,0,0,1,1551.76,191.83Zm1.83-2.54c-.16.48-.35.83-.88.83a.57.57,0,0,1-.61-.57,2,2,0,0,1,.13-.64c1.81-5.24,3.8-10.45,5.57-14.46a1,1,0,0,1,.9-.72.58.58,0,0,1,.64.61,1,1,0,0,1-.08.38C1557.54,178.7,1555.58,183.48,1553.59,189.29Z"/><path d="M1570.93,191.05c-2.07,0-3.6-1.36-3.6-4.36a12,12,0,0,1,2.62-6.6,1.16,1.16,0,0,0-.32,0,3.35,3.35,0,0,0-2.44.94.72.72,0,0,1-.42.19.56.56,0,0,1-.51-.57c0-.72,1.44-1.76,3.4-1.76a5.54,5.54,0,0,1,1.14.13c2.44-2.94,5.67-5.21,7.88-5.21s3.26,1.34,3.26,3.72c0,3.66-2.26,10.61-5.49,16.81,2.89-1.12,5.43-2.59,7-4.94,0,0,.18-.3.42-.3a.51.51,0,0,1,.56.54,1,1,0,0,1-.11.34c-1.85,2.84-5.12,4.55-8.62,5.81-3.34,6-7.56,10.87-11.45,10.87-2.47,0-4.25-1.52-4.25-3.66,0-4.92,7.56-5.75,14.32-7.91,3.5-6.36,6.13-13.95,6.13-17.56,0-1.66-.72-2.49-1.83-2.49-1.75,0-4.38,2-6.47,4.49a6.91,6.91,0,0,1,3.13,6.2C1575.23,188.64,1573.11,191.05,1570.93,191.05Zm2.52,5.43c-6,1.9-12,2.91-12,6.44a2.44,2.44,0,0,0,2.73,2.49C1567.11,205.41,1570.53,201.48,1573.45,196.48Zm-2.15-15.94a11.63,11.63,0,0,0-2.49,6.26c0,2,1,3,2.15,3,1.43,0,2.84-1.82,2.84-4.15A5.79,5.79,0,0,0,1571.3,180.54Z"/><path d="M1594,189.37s.19-.3.43-.3a.53.53,0,0,1,.55.56.93.93,0,0,1-.1.35c-1.86,2.89-4.83,5-7.85,5-2.57,0-4-1.28-4-3.64,0-4.41,3.9-7.67,6.74-7.67,1.59,0,2.52.8,2.52,2.22,0,2.17-3.39,4.17-7.69,4.57,0,.3,0,.62,0,.91a2.33,2.33,0,0,0,2.62,2.46C1589.37,193.83,1592.31,192.07,1594,189.37Zm-9.15,0c3.43-.43,6-2,6-3.64,0-.59-.45-1-1.12-1C1588.15,184.77,1585.73,186.69,1584.88,189.37Z"/><path d="M1599.42,196.37c.77-2,1.17-3.4,1.54-4.46-1.28,1.73-2.73,3.07-4.33,3.07-1.77,0-3.05-1.18-3.05-3.32,0-3.95,4.06-8,7.32-8a2.81,2.81,0,0,1,2.63,1.31c.24-.8.72-1.31,1.14-1.31a.64.64,0,0,1,.72.64,6.87,6.87,0,0,1-1.2,2.46,56,56,0,0,0-1.85,5.35l-1.09,3.18c-1.33,3.88-3.48,6.84-6.13,6.84a3,3,0,0,1-2.94-1.65,1.26,1.26,0,0,1-.08-.48.59.59,0,0,1,.61-.65.69.69,0,0,1,.61.46c.42.75.79,1.25,1.8,1.25C1596.5,201.07,1598.3,199.23,1599.42,196.37Zm3.55-10.13c-.13-.91-.85-1.47-2.09-1.47-2.47,0-5.78,3.71-5.78,7,0,1.36.74,2.09,1.64,2.09,1.35,0,2.76-1.39,4-3.21A22.21,22.21,0,0,0,1603,186.24Z"/><path d="M1615.65,193.08c-.37.54-.74,1.07-1.14,1.58a.6.6,0,0,1-1,.13.63.63,0,0,1,0-.88,46.74,46.74,0,0,0,5.92-9.6v-.37c0-1.77.85-3,1.56-3s.9.32.9.8a6.6,6.6,0,0,1-1.08,2.72c.55,2,2.46,4.09,2.46,6.55a3.2,3.2,0,0,1-1.24,2.6,10.26,10.26,0,0,0,4.74-4.25s.19-.3.43-.3a.51.51,0,0,1,.55.54,1.36,1.36,0,0,1-.1.37,9.76,9.76,0,0,1-8.46,5C1617.32,195,1616.1,194.18,1615.65,193.08Zm1.14-1.58a1.4,1.4,0,0,0,0,.41,2.29,2.29,0,0,0,2.44,2,2.74,2.74,0,0,0,2.73-2.86c0-2-1.09-3.37-1.8-5.16A48.45,48.45,0,0,1,1616.79,191.5Z"/><path d="M1638.65,189.37a.52.52,0,0,1,.45-.3.54.54,0,0,1,.53.54.73.73,0,0,1-.11.37c-1.67,2.62-3.71,5-6.15,5-2,0-3.29-1.31-4.16-3.66a1.73,1.73,0,0,1-.11-.59c0-.37.27-.61.82-.72,2.76-.54,5.17-2.6,5.17-4.31a.85.85,0,0,0-.92-.93c-1.33,0-3.72,1.74-5,3.31a21,21,0,0,0-2.73,6.1c-.1.35-.26.8-.79.8a.5.5,0,0,1-.53-.53,1.94,1.94,0,0,1,.1-.65c1.75-5.13,4.19-11.06,6.07-15.53.24-.59.64-.93,1-.93a.63.63,0,0,1,.71.64,8.73,8.73,0,0,1-1.56,3.39l-2.26,5.46c1.52-1.69,3.61-3.16,5.12-3.16a2.07,2.07,0,0,1,2.26,2.14c0,2.06-2.84,4.41-6.08,5.21.59,1.82,1.73,2.89,3.13,2.89S1637.11,191.77,1638.65,189.37Z"/><path d="M1653,189.37a.52.52,0,0,1,.45-.3.54.54,0,0,1,.53.54.82.82,0,0,1-.1.37c-1.65,2.57-3.59,5-5.76,5a2.52,2.52,0,0,1-2.55-2.78,1.31,1.31,0,0,1,0-.35c-1.27,1.77-2.78,3.13-4.37,3.13-1.78,0-3-1.18-3-3.32,0-3.95,4-8,7.31-8a2.81,2.81,0,0,1,2.63,1.31c.24-.8.72-1.31,1.14-1.31a.64.64,0,0,1,.72.64,6.69,6.69,0,0,1-1.2,2.46c-.82,1.79-1.77,3.93-1.77,5.43,0,1.18.53,1.71,1.32,1.71C1649.71,193.91,1651.46,191.72,1653,189.37Zm-7.66,1.28a22.21,22.21,0,0,0,2.22-4.41c-.13-.91-.85-1.47-2.09-1.47-2.47,0-5.78,3.71-5.78,7,0,1.36.77,2.09,1.67,2.09C1642.68,193.86,1644.06,192.47,1645.31,190.65Z"/><path d="M1657,192.47a.5.5,0,0,1,.43-.32.44.44,0,0,1,.42.45A3.17,3.17,0,0,1,1655,195c-1.54,0-2.52-1-2.52-2.94,0-2.59,2.73-8.58,4.72-12.43.69-1.34,1.25-2.27,1.67-2.27a.63.63,0,0,1,.69.66c0,1.1-1.59,3.91-3.36,7-1.3,2.85-2.29,5.53-2.29,7.16,0,1.23.53,1.79,1.25,1.79S1656.5,193.21,1657,192.47Z"/><path d="M1670.16,186.69c1.46-1.63,3.39-3,4.93-3a2.11,2.11,0,0,1,2.26,2.14c0,2.27-2.44,4.55-2.44,6.9a1.05,1.05,0,0,0,1.08,1.2c1.41,0,3.16-2.19,4.67-4.54a.52.52,0,0,1,.45-.3.54.54,0,0,1,.53.54.71.71,0,0,1-.1.37c-1.65,2.57-3.58,5-5.76,5a2.2,2.2,0,0,1-2.28-2.46c0-2.38,2.49-5,2.49-6.82a.85.85,0,0,0-.92-.93c-1.41,0-3.72,1.74-5,3.31a21.28,21.28,0,0,0-2.73,6.1c-.1.35-.26.8-.79.8a.5.5,0,0,1-.53-.53,1.94,1.94,0,0,1,.1-.65c1.75-5.13,4.19-11.06,6.08-15.53.23-.59.63-.93,1-.93a.63.63,0,0,1,.71.64,8.42,8.42,0,0,1-1.54,3.39Z"/><path d="M1694.06,189.37s.18-.3.42-.3a.55.55,0,0,1,.56.56,1,1,0,0,1-.11.35c-1.56,2.41-3.15,3.69-5.2,3.69a3.43,3.43,0,0,1-1.91-.54A5.6,5.6,0,0,1,1684,195c-2.09,0-3.6-1.31-3.6-3.82,0-4,3.6-7.49,6.71-7.49a3.18,3.18,0,0,1,3.42,3.5,8.55,8.55,0,0,1-1.83,5,1.85,1.85,0,0,0,1.27.43C1691.27,192.63,1692.62,191.56,1694.06,189.37Zm-7-4.6c-2.18,0-5.17,3.21-5.17,6.47,0,1.73,1,2.62,2.15,2.62a4.32,4.32,0,0,0,3-1.63.32.32,0,0,1,0-.16.77.77,0,0,1,.72-.78,8,8,0,0,0,1.29-4.17C1689,185.54,1688.25,184.77,1687,184.77Z"/><path d="M1700.93,189.37a.52.52,0,0,1,.45-.3.54.54,0,0,1,.53.54.73.73,0,0,1-.11.37c-1.64,2.57-3.58,5-5.75,5-1.57,0-2.55-1-2.55-2.94,0-2.59,2.73-8.58,4.72-12.43.69-1.34,1.25-2.27,1.67-2.27a.63.63,0,0,1,.69.66c0,1.1-1.59,3.91-3.37,7-1.29,2.85-2.28,5.53-2.28,7.16,0,1.23.56,1.79,1.33,1.79C1697.67,193.91,1699.42,191.72,1700.93,189.37Z"/><path d="M1715.25,189.37a.52.52,0,0,1,.45-.3.54.54,0,0,1,.53.54.73.73,0,0,1-.11.37c-1.64,2.57-3.58,5-5.75,5a2.47,2.47,0,0,1-2.44-2.78,2,2,0,0,1,0-.56c-1.3,1.87-2.86,3.34-4.51,3.34s-3-1.18-3-3.32c0-3.95,4.06-8,7.32-8a2.85,2.85,0,0,1,2.58,1.21c.79-2.12,2-5.11,2.65-6.61.26-.59.63-.93,1-.93a.64.64,0,0,1,.72.64c0,.67-.54,1.87-1.62,3.63-.32.7-1.3,3.08-2.07,5.08a20.67,20.67,0,0,0-1.65,5.51c0,1.18.51,1.71,1.25,1.71C1712,193.91,1713.74,191.72,1715.25,189.37Zm-5.44-3.13c-.13-.91-.85-1.47-2.09-1.47-2.47,0-5.78,3.71-5.78,7,0,1.36.74,2.09,1.67,2.09,1.35,0,2.73-1.39,4-3.21A21.72,21.72,0,0,0,1709.81,186.24Z"/><path d="M1721.7,183.67c1.59,0,2.51.8,2.51,2.22,0,2.17-3.39,4.17-7.69,4.57,0,.3,0,.62,0,.91a2.3,2.3,0,0,0,2.55,2.43,3.75,3.75,0,0,0,3.1-1.87.51.51,0,0,1,.45-.32.52.52,0,0,1,.48.54c0,.85-1.88,2.83-4.27,2.83s-3.82-1.31-3.82-3.64C1715,186.93,1718.86,183.67,1721.7,183.67Zm-4.91,5.7c3.42-.43,6-2,6-3.64a1,1,0,0,0-1.11-1C1720.05,184.77,1717.64,186.69,1716.79,189.37Z"/><path d="M1748.59,185.76c0,2.3-2.44,4.57-2.44,7a1.05,1.05,0,0,0,1.09,1.2c1.4,0,3.15-2.19,4.66-4.54a.54.54,0,0,1,.46-.3.54.54,0,0,1,.53.54.73.73,0,0,1-.11.37c-1.65,2.57-3.58,5-5.76,5a2.21,2.21,0,0,1-2.28-2.46c0-2.4,2.5-5,2.5-6.87,0-.56-.29-.88-.8-.88-1.11,0-3,1.82-4.16,3.31a22,22,0,0,0-2.73,6.1c-.11.35-.27.8-.8.8a.55.55,0,0,1-.58-.56,2.66,2.66,0,0,1,.16-.7c.61-1.79,1.67-4.6,2.33-6.52a6.26,6.26,0,0,0,.34-1.55.77.77,0,0,0-.82-.88c-1.24,0-3.18,1.82-4.35,3.31a22,22,0,0,0-2.75,6.1c-.11.35-.27.8-.8.8a.5.5,0,0,1-.53-.53,2,2,0,0,1,.11-.65c1-3.2,2.43-6.73,3.55-9.43a.93.93,0,0,1,.85-.7.57.57,0,0,1,.63.59,3.82,3.82,0,0,1-.63,1.58l-.35.8c1.33-1.58,2.95-3,4.35-3a1.94,1.94,0,0,1,2.1,2.09,3.63,3.63,0,0,1-.22,1.15c1.33-1.66,3-3.24,4.33-3.24A2,2,0,0,1,1748.59,185.76Z"/><path d="M1758.67,189.37a.52.52,0,0,1,.45-.3.54.54,0,0,1,.53.54.73.73,0,0,1-.11.37c-1.64,2.57-3.58,5-5.75,5-1.49,0-2.47-.94-2.47-2.81a16.12,16.12,0,0,1,2-6.23c.82-1.6,1.25-2.27,1.65-2.27a.64.64,0,0,1,.71.64,6.22,6.22,0,0,1-1.14,2.46,14.16,14.16,0,0,0-1.75,5.46c0,1.2.51,1.68,1.22,1.68C1755.41,193.91,1757.16,191.72,1758.67,189.37Zm-1.64-9.82a.9.9,0,0,1,1,.94,1.31,1.31,0,0,1-1.19,1.26.9.9,0,0,1-1-.91A1.37,1.37,0,0,1,1757,179.55Z"/><path d="M1764.05,196.37c.77-2,1.17-3.4,1.54-4.46-1.27,1.73-2.73,3.07-4.32,3.07-1.78,0-3-1.18-3-3.32,0-3.95,4.06-8,7.32-8a2.84,2.84,0,0,1,2.63,1.31c.23-.8.71-1.31,1.14-1.31a.64.64,0,0,1,.71.64,6.78,6.78,0,0,1-1.19,2.46c-.66,1.47-1.43,4-1.86,5.35l-1.09,3.18c-1.32,3.88-3.47,6.84-6.12,6.84a3,3,0,0,1-3-1.65,1.43,1.43,0,0,1-.07-.48.58.58,0,0,1,.6-.65c.32,0,.48.22.62.46.42.75.79,1.25,1.8,1.25C1761.14,201.07,1762.94,199.23,1764.05,196.37Zm3.56-10.13c-.13-.91-.85-1.47-2.1-1.47-2.46,0-5.78,3.71-5.78,7,0,1.36.74,2.09,1.65,2.09,1.35,0,2.75-1.39,4-3.21A22.24,22.24,0,0,0,1767.61,186.24Z"/><path d="M1489,220.7s.19-.3.43-.3a.55.55,0,0,1,.56.56.89.89,0,0,1-.11.35c-1.59,2.46-3.29,3.8-5.22,3.8a4,4,0,0,1-2.23-.64,5.43,5.43,0,0,1-3.37,1.84c-1.62,0-2.65-1.23-2.65-3.61a15.64,15.64,0,0,1,1.56-5.4c.77-1.63,1.25-2.3,1.65-2.3a.64.64,0,0,1,.71.64,6.22,6.22,0,0,1-1.14,2.46,12.82,12.82,0,0,0-1.32,4.63c0,1.76.61,2.48,1.4,2.48a4,4,0,0,0,2.36-1.49s0-.06,0-.08a.57.57,0,0,1-.11-.38.76.76,0,0,1,.8-.77.71.71,0,0,1,.31.08,10.91,10.91,0,0,0,2.28-5.7c0-.58-.21-.88-.21-1.25s.29-.62.77-.62.88.64.88,1.53c0,2.22-1.33,4.94-3,6.95a2,2,0,0,0,1.51.58C1486.11,224.06,1487.57,222.94,1489,220.7Z"/><path d="M1503.35,220.7a.52.52,0,0,1,.45-.3.54.54,0,0,1,.53.54.73.73,0,0,1-.11.37c-1.64,2.57-3.58,5-5.75,5a2.52,2.52,0,0,1-2.55-2.78,1.31,1.31,0,0,1,0-.35c-1.28,1.77-2.79,3.13-4.38,3.13a3,3,0,0,1-3-3.31c0-4,4.06-8,7.32-8a2.83,2.83,0,0,1,2.63,1.31c.24-.8.71-1.31,1.14-1.31a.64.64,0,0,1,.71.64,6.78,6.78,0,0,1-1.19,2.46c-.82,1.79-1.78,3.93-1.78,5.43,0,1.18.53,1.71,1.33,1.71C1500.08,225.24,1501.83,223.05,1503.35,220.7Zm-7.67,1.28a21.72,21.72,0,0,0,2.23-4.41c-.13-.91-.85-1.47-2.09-1.47-2.47,0-5.79,3.71-5.79,7,0,1.37.77,2.09,1.68,2.09C1493.06,225.19,1494.44,223.8,1495.68,222Zm4-10.91a2.79,2.79,0,0,1-2.63,2.6,1.8,1.8,0,0,1-2-1.85,2.85,2.85,0,0,1,2.7-2.59A1.7,1.7,0,0,1,1499.69,211.07Zm-3.48.75c0,.62.32.88.91.88a1.66,1.66,0,0,0,1.45-1.63c0-.61-.29-.88-.85-.88A1.68,1.68,0,0,0,1496.21,211.82Z"/><path d="M1512.79,216.31c.24-.8.72-1.31,1.14-1.31a.64.64,0,0,1,.72.64,6.69,6.69,0,0,1-1.2,2.46,56,56,0,0,0-1.85,5.35l-.9,2.62a13.54,13.54,0,0,0,5.91-5.37s.18-.3.42-.3a.51.51,0,0,1,.56.54,1.09,1.09,0,0,1-.11.35,14.37,14.37,0,0,1-7.26,6.09c-1.35,3.45-3.37,6.09-5.84,6.09a2.41,2.41,0,0,1-2.65-2.27c0-2.4,2.63-3.21,7.35-4.57.53-1.44.85-2.51,1.14-3.39-1.27,1.73-2.73,3.07-4.32,3.07-1.78,0-3.05-1.18-3.05-3.31,0-4,4.05-8,7.32-8A2.81,2.81,0,0,1,1512.79,216.31Zm-4.16,11.52c-3.56,1-5.6,1.82-5.6,3.37a1.19,1.19,0,0,0,1.35,1.21C1505.74,232.41,1507.51,230.62,1508.63,227.83Zm3.6-10.26c-.13-.91-.85-1.47-2.09-1.47-2.47,0-5.78,3.71-5.78,7,0,1.37.74,2.09,1.64,2.09,1.35,0,2.76-1.39,4-3.21A22.21,22.21,0,0,0,1512.23,217.57Z"/><path d="M1527.25,220.7s.18-.3.42-.3a.53.53,0,0,1,.56.56.89.89,0,0,1-.11.35c-1.85,2.89-4.83,5-7.85,5-2.57,0-4-1.28-4-3.63,0-4.42,3.9-7.68,6.73-7.68,1.59,0,2.52.8,2.52,2.22,0,2.17-3.39,4.17-7.69,4.57,0,.3,0,.62,0,.91a2.33,2.33,0,0,0,2.62,2.46C1522.58,225.16,1525.52,223.4,1527.25,220.7Zm-9.15,0c3.42-.43,6-2,6-3.64a1,1,0,0,0-1.11-1C1521.36,216.1,1519,218,1518.1,220.7Z"/><path d="M1537.22,223.8a.5.5,0,0,1,.42-.32.44.44,0,0,1,.43.45,3.09,3.09,0,0,1-2.71,2.38,2.2,2.2,0,0,1-2.28-2.46c0-2.38,2.5-4.94,2.5-6.81a.86.86,0,0,0-.93-.94c-1.41,0-3.72,1.74-5,3.31a21.28,21.28,0,0,0-2.73,6.1c-.1.35-.26.8-.79.8a.5.5,0,0,1-.53-.53,1.94,1.94,0,0,1,.1-.65c1-3.2,2.44-6.73,3.56-9.43a.92.92,0,0,1,.85-.7.57.57,0,0,1,.63.59,4,4,0,0,1-.63,1.55l-.38.91c1.49-1.63,3.43-3.05,5-3.05a2.11,2.11,0,0,1,2.26,2.14c0,2.27-2.44,4.55-2.44,6.9,0,.77.4,1.2,1,1.2S1536.77,224.55,1537.22,223.8Z"/><path d="M1561.59,220.7s.19-.3.43-.3a.55.55,0,0,1,.56.56.89.89,0,0,1-.11.35c-1.56,2.41-3.16,3.69-5.2,3.69a3.5,3.5,0,0,1-1.91-.53,5.63,5.63,0,0,1-3.87,1.84c-2.09,0-3.61-1.31-3.61-3.82,0-4,3.61-7.49,6.71-7.49a3.18,3.18,0,0,1,3.42,3.5,8.48,8.48,0,0,1-1.83,5,1.9,1.9,0,0,0,1.28.43C1558.81,224,1560.16,222.89,1561.59,220.7Zm-7-4.6c-2.18,0-5.17,3.21-5.17,6.47,0,1.74,1,2.62,2.14,2.62a4.25,4.25,0,0,0,3-1.63.47.47,0,0,1,0-.16.76.76,0,0,1,.71-.78,7.91,7.91,0,0,0,1.3-4.17C1556.58,216.87,1555.79,216.1,1554.57,216.1Z"/><path d="M1567,227.7c.77-2,1.17-3.39,1.54-4.46-1.27,1.73-2.73,3.07-4.32,3.07-1.78,0-3-1.18-3-3.31,0-4,4-8,7.31-8a2.81,2.81,0,0,1,2.63,1.31c.24-.8.72-1.31,1.14-1.31a.64.64,0,0,1,.72.64,6.69,6.69,0,0,1-1.2,2.46,56,56,0,0,0-1.85,5.35l-1.09,3.18c-1.33,3.88-3.47,6.84-6.13,6.84a3,3,0,0,1-2.94-1.65,1.26,1.26,0,0,1-.08-.48.58.58,0,0,1,.61-.64.68.68,0,0,1,.61.45c.42.75.8,1.26,1.8,1.26C1564.06,232.41,1565.87,230.56,1567,227.7Zm3.55-10.13c-.13-.91-.84-1.47-2.09-1.47-2.47,0-5.78,3.71-5.78,7,0,1.37.74,2.09,1.64,2.09,1.35,0,2.76-1.39,4-3.21A22.21,22.21,0,0,0,1570.53,217.57Z"/><path d="M1583.88,218c1.45-1.63,3.39-3,4.93-3a2.1,2.1,0,0,1,2.25,2.14c0,2.27-2.44,4.55-2.44,6.9a1.06,1.06,0,0,0,1.09,1.2c1.41,0,3.16-2.19,4.67-4.54a.52.52,0,0,1,.45-.3.54.54,0,0,1,.53.54.73.73,0,0,1-.11.37c-1.64,2.57-3.58,5-5.75,5a2.2,2.2,0,0,1-2.28-2.46c0-2.38,2.49-4.94,2.49-6.81a.85.85,0,0,0-.93-.94c-1.4,0-3.71,1.74-5,3.31a20.75,20.75,0,0,0-2.73,6.1c-.11.35-.27.8-.8.8a.5.5,0,0,1-.53-.53,2,2,0,0,1,.11-.65c1.75-5.13,4.19-11.06,6.07-15.53.24-.59.64-.93,1-.93a.64.64,0,0,1,.72.64,8.52,8.52,0,0,1-1.54,3.39Z"/><path d="M1608.7,220.7a.52.52,0,0,1,.45-.3.54.54,0,0,1,.53.54.71.71,0,0,1-.1.37c-1.65,2.57-3.58,5-5.76,5a2.52,2.52,0,0,1-2.54-2.78,1.94,1.94,0,0,1,0-.35c-1.27,1.77-2.78,3.13-4.37,3.13-1.78,0-3-1.18-3-3.31,0-4,4-8,7.32-8a2.81,2.81,0,0,1,2.62,1.31c.24-.8.72-1.31,1.14-1.31a.64.64,0,0,1,.72.64,6.69,6.69,0,0,1-1.2,2.46c-.82,1.79-1.77,3.93-1.77,5.43,0,1.18.53,1.71,1.32,1.71C1605.44,225.24,1607.19,223.05,1608.7,220.7ZM1601,222a22.21,22.21,0,0,0,2.22-4.41c-.13-.91-.84-1.47-2.09-1.47-2.47,0-5.78,3.71-5.78,7,0,1.37.77,2.09,1.67,2.09C1598.41,225.19,1599.79,223.8,1601,222Z"/><path d="M1616.05,223.8a.5.5,0,0,1,.42-.32.44.44,0,0,1,.43.45,3.09,3.09,0,0,1-2.71,2.38c-1.43,0-2.36-1-2.36-2.67,0-2.14,2.31-4.52,2.31-6,0-.72-1-1-1.67-1.42-.82,1.63-1.78,3.29-2.89,5.06-.13.21-.27.37-.51.37a.51.51,0,0,1-.53-.48.89.89,0,0,1,.16-.48,37.56,37.56,0,0,0,2.76-5.08v-.35c0-1.79.9-3,1.57-3a.77.77,0,0,1,.87.77,5.27,5.27,0,0,1-.82,2.22c.87.69,2.52,1.07,2.52,2.33,0,1.79-2.36,4-2.36,6.22,0,.91.42,1.42,1.11,1.42S1615.6,224.55,1616.05,223.8Z"/><path d="M1639.71,220.7s.18-.3.42-.3a.55.55,0,0,1,.56.56.76.76,0,0,1-.11.35c-1.56,2.41-3.26,3.69-5.2,3.69a3.51,3.51,0,0,1-1.85-.51,6,6,0,0,1-3.93,1.82,3.1,3.1,0,0,1-3.13-3.42,11.49,11.49,0,0,1,1-4.12c.48-1.23,3.18-7.86,3.74-9.17.27-.59.64-.93,1-.93a.64.64,0,0,1,.72.64,8.59,8.59,0,0,1-1.57,3.39l-2.17,5.32c1.46-1.87,3.1-3,4.67-3s2.62,1,2.62,3.08a9.15,9.15,0,0,1-2.12,5.5,1.91,1.91,0,0,0,1.22.38C1636.82,224,1638.28,222.89,1639.71,220.7Zm-7,2.91a.8.8,0,0,1,0-.21.75.75,0,0,1,.77-.78h0a8.71,8.71,0,0,0,1.56-4.7c0-1.37-.48-1.82-1.25-1.82-1.37,0-3.36,1.52-4.64,3.37a6.54,6.54,0,0,0-1.27,3.45c0,1.55.82,2.29,1.78,2.29A4.44,4.44,0,0,0,1632.73,223.61Z"/><path d="M1645.39,225.24c1.4,0,3.15-2.19,4.66-4.54a.53.53,0,0,1,.45-.3.54.54,0,0,1,.53.54.71.71,0,0,1-.1.37c-1.65,2.57-3.58,5-5.76,5-1.43,0-2.36-1-2.36-2.67,0-2.14,2.31-4.52,2.31-6,0-.72-1-1-1.67-1.42-.82,1.63-1.78,3.29-2.89,5.06-.13.21-.27.37-.51.37a.51.51,0,0,1-.53-.48.89.89,0,0,1,.16-.48,37.56,37.56,0,0,0,2.76-5.08v-.35c0-1.79.9-3,1.57-3a.77.77,0,0,1,.87.77,5.27,5.27,0,0,1-.82,2.22c.87.69,2.52,1.07,2.52,2.33,0,1.79-2.36,4-2.36,6.22C1644.22,224.73,1644.67,225.24,1645.39,225.24Z"/><path d="M1663.39,220.7a.52.52,0,0,1,1,.24.73.73,0,0,1-.11.37c-1.65,2.57-3.58,5-5.76,5a2.52,2.52,0,0,1-2.54-2.78,1.31,1.31,0,0,1,0-.35c-1.25,1.77-2.63,3.13-4.06,3.13s-2.44-.93-2.44-2.81,1.06-4.38,2-6.22c.82-1.61,1.24-2.28,1.64-2.28a.64.64,0,0,1,.72.64,6.38,6.38,0,0,1-1.14,2.46,15,15,0,0,0-1.75,5.46c0,1.17.5,1.6,1.11,1.6,1.19,0,2.44-1.42,3.66-3.18a31.29,31.29,0,0,0,2.52-5c.61-1.42,1-1.93,1.41-1.93a.64.64,0,0,1,.71.64,6.78,6.78,0,0,1-1.19,2.46c-.82,1.79-1.78,3.93-1.78,5.43,0,1.18.53,1.71,1.33,1.71C1660.13,225.24,1661.88,223.05,1663.39,220.7Z"/><path d="M1668.78,227.7c.77-2,1.17-3.39,1.54-4.46-1.28,1.73-2.73,3.07-4.32,3.07-1.78,0-3-1.18-3-3.31,0-4,4-8,7.31-8a2.81,2.81,0,0,1,2.63,1.31c.24-.8.72-1.31,1.14-1.31a.64.64,0,0,1,.72.64,6.69,6.69,0,0,1-1.2,2.46,56,56,0,0,0-1.85,5.35l-1.09,3.18c-1.33,3.88-3.47,6.84-6.13,6.84a3,3,0,0,1-2.94-1.65,1.26,1.26,0,0,1-.08-.48.58.58,0,0,1,.61-.64.68.68,0,0,1,.61.45c.42.75.8,1.26,1.8,1.26C1665.86,232.41,1667.67,230.56,1668.78,227.7Zm3.55-10.13c-.13-.91-.84-1.47-2.09-1.47-2.47,0-5.78,3.71-5.78,7,0,1.37.74,2.09,1.64,2.09,1.35,0,2.76-1.39,4-3.21A22.21,22.21,0,0,0,1672.33,217.57Z"/><path d="M1691.67,220.7s.18-.3.42-.3a.55.55,0,0,1,.56.56.76.76,0,0,1-.11.35c-1.56,2.38-3.26,3.61-5.22,3.61a4,4,0,0,1-.77-.08,7.39,7.39,0,0,1,.29,1.9c0,3.5-2,6.52-4,6.52-1.27,0-2.14-.91-2.14-2.78a29.44,29.44,0,0,1,1.77-7.64,84.36,84.36,0,0,1,4.75-11.15c1.17-2.33,2.23-3,3.1-3,1.12,0,1.86.75,1.86,2.21,0,3.53-3.42,8.51-7.43,10.67a5.29,5.29,0,0,1,1.36,2,2.34,2.34,0,0,0,1.22.32C1688.65,223.88,1690.24,222.89,1691.67,220.7Zm-6.45,3.55a4,4,0,0,1-1.32-1.44l-.16.48a27.51,27.51,0,0,0-1.67,7.19c0,1.18.4,1.63.93,1.63,1.22,0,2.57-2.38,2.57-5.4A8.1,8.1,0,0,0,1685.22,224.25Zm3.21-12c-1.22,2.43-2.49,5.27-3.6,8,3.47-2.19,6.15-6.7,6.15-9.41,0-.82-.29-1.12-.66-1.12S1689.47,210.16,1688.43,212.25Z"/><path d="M1705.06,220.7s.19-.3.43-.3a.54.54,0,0,1,.55.56.88.88,0,0,1-.1.35c-1.57,2.41-3.16,3.69-5.2,3.69a3.45,3.45,0,0,1-1.91-.53,5.63,5.63,0,0,1-3.87,1.84c-2.1,0-3.61-1.31-3.61-3.82,0-4,3.61-7.49,6.71-7.49a3.18,3.18,0,0,1,3.42,3.5,8.48,8.48,0,0,1-1.83,5,1.9,1.9,0,0,0,1.28.43C1702.28,224,1703.63,222.89,1705.06,220.7Zm-7-4.6c-2.18,0-5.18,3.21-5.18,6.47,0,1.74,1,2.62,2.15,2.62a4.25,4.25,0,0,0,3-1.63.47.47,0,0,1,0-.16.76.76,0,0,1,.71-.78,7.91,7.91,0,0,0,1.3-4.17C1700.05,216.87,1699.26,216.1,1698,216.1Z"/><path d="M1712.41,223.8a.5.5,0,0,1,.43-.32.44.44,0,0,1,.42.45,3.09,3.09,0,0,1-2.71,2.38c-1.43,0-2.36-1-2.36-2.67,0-2.14,2.31-4.52,2.31-6,0-.72-1-1-1.67-1.42-.82,1.63-1.78,3.29-2.89,5.06-.13.21-.26.37-.5.37a.5.5,0,0,1-.53-.48.81.81,0,0,1,.16-.48,38.72,38.72,0,0,0,2.75-5.08v-.35c0-1.79.91-3,1.57-3a.77.77,0,0,1,.87.77,5.27,5.27,0,0,1-.82,2.22c.88.69,2.52,1.07,2.52,2.33,0,1.79-2.36,4-2.36,6.22,0,.91.42,1.42,1.11,1.42S1712,224.55,1712.41,223.8Z"/><path d="M1737.55,220.7a.54.54,0,0,1,.46-.3.54.54,0,0,1,.53.54.73.73,0,0,1-.11.37c-1.64,2.57-3.58,5-5.75,5a2.52,2.52,0,0,1-2.55-2.78,1.31,1.31,0,0,1,0-.35c-1.28,1.77-2.79,3.13-4.38,3.13-1.78,0-3-1.18-3-3.31,0-4,4.06-8,7.32-8a2.84,2.84,0,0,1,2.63,1.31c.23-.8.71-1.31,1.14-1.31a.64.64,0,0,1,.71.64,6.78,6.78,0,0,1-1.19,2.46c-.82,1.79-1.78,3.93-1.78,5.43,0,1.18.53,1.71,1.33,1.71C1734.29,225.24,1736,223.05,1737.55,220.7Zm-7.66,1.28a21.72,21.72,0,0,0,2.23-4.41c-.13-.91-.85-1.47-2.1-1.47-2.46,0-5.78,3.71-5.78,7,0,1.37.77,2.09,1.67,2.09C1727.27,225.19,1728.64,223.8,1729.89,222Z"/><path d="M1741.69,223.8c.14-.24.3-.32.43-.32a.44.44,0,0,1,.42.45,3.17,3.17,0,0,1-2.83,2.38c-1.62,0-2.66-1-2.66-3,0-1.69,1.06-4.55,2.31-7.28h-1.25c-.42,0-.69-.16-.69-.53s.27-.51.69-.51h1.76c.47-1,1-2,1.43-2.83.82-1.61,1.24-2.27,1.64-2.27a.64.64,0,0,1,.72.64,6.51,6.51,0,0,1-1.14,2.46l-1,2H1743c.43,0,.66.22.66.48s-.26.56-.66.56h-2c-1.32,2.84-2.49,5.75-2.49,7.46,0,1.23.59,1.74,1.36,1.74S1741.24,224.57,1741.69,223.8Z"/><path d="M1766.84,220.7a.52.52,0,0,1,.45-.3.54.54,0,0,1,.53.54.73.73,0,0,1-.11.37c-1.64,2.57-3.58,5-5.75,5a2.47,2.47,0,0,1-2.44-2.78,2,2,0,0,1,0-.56c-1.3,1.87-2.86,3.34-4.51,3.34a3,3,0,0,1-3-3.31c0-4,4.06-8,7.32-8a2.85,2.85,0,0,1,2.58,1.21c.79-2.12,2-5.11,2.65-6.61.26-.59.63-.93,1-.93a.63.63,0,0,1,.71.64,9,9,0,0,1-1.61,3.63c-.32.7-1.3,3.08-2.07,5.08a20.67,20.67,0,0,0-1.65,5.51c0,1.18.51,1.71,1.25,1.71C1763.58,225.24,1765.33,223.05,1766.84,220.7Zm-5.44-3.13c-.13-.91-.85-1.47-2.09-1.47-2.47,0-5.78,3.71-5.78,7,0,1.37.74,2.09,1.67,2.09,1.35,0,2.73-1.39,4-3.21A21.72,21.72,0,0,0,1761.4,217.57Z"/><path d="M1777.1,223.8c.14-.24.3-.32.43-.32a.44.44,0,0,1,.42.45,3.08,3.08,0,0,1-2.7,2.38,2.5,2.5,0,0,1-2.5-2.78,1.31,1.31,0,0,1,0-.35c-1.24,1.77-2.62,3.13-4.06,3.13s-2.44-.93-2.44-2.81,1.06-4.38,2-6.22c.82-1.61,1.25-2.28,1.65-2.28a.64.64,0,0,1,.71.64,6.22,6.22,0,0,1-1.14,2.46,15,15,0,0,0-1.75,5.46c0,1.17.51,1.6,1.12,1.6,1.19,0,2.44-1.42,3.66-3.18a32.14,32.14,0,0,0,2.52-5c.61-1.42,1-1.93,1.4-1.93a.6.6,0,0,1,.66.62,6.89,6.89,0,0,1-1.19,2.48c-.82,1.79-1.78,3.93-1.78,5.43,0,1.18.51,1.71,1.28,1.71S1776.65,224.55,1777.1,223.8Z"/><path d="M1486.21,247.64c.24-.8.72-1.31,1.14-1.31a.64.64,0,0,1,.72.64,6.87,6.87,0,0,1-1.19,2.47,52.46,52.46,0,0,0-1.86,5.34l-.9,2.62A13.49,13.49,0,0,0,1490,252s.19-.3.43-.3a.51.51,0,0,1,.55.54,1.16,1.16,0,0,1-.1.35,14.39,14.39,0,0,1-7.27,6.09c-1.35,3.45-3.37,6.1-5.83,6.1a2.43,2.43,0,0,1-2.66-2.28c0-2.4,2.63-3.2,7.35-4.57.53-1.44.85-2.51,1.14-3.39-1.27,1.73-2.73,3.07-4.32,3.07-1.78,0-3-1.18-3-3.31,0-4,4.06-8,7.32-8A2.81,2.81,0,0,1,1486.21,247.64Zm-4.16,11.53c-3.55,1-5.6,1.81-5.6,3.36a1.2,1.2,0,0,0,1.36,1.21C1479.16,263.74,1480.94,262,1482.05,259.17Zm3.61-10.27c-.14-.91-.85-1.47-2.1-1.47-2.47,0-5.78,3.72-5.78,7,0,1.37.74,2.09,1.64,2.09,1.36,0,2.76-1.39,4-3.21A22.79,22.79,0,0,0,1485.66,248.9Z"/><path d="M1496.8,252a.52.52,0,0,1,.45-.3.54.54,0,0,1,.53.54.71.71,0,0,1-.11.37c-1.64,2.57-3.58,5-5.75,5-1.49,0-2.47-.93-2.47-2.81a16,16,0,0,1,2-6.22c.82-1.61,1.25-2.28,1.64-2.28a.64.64,0,0,1,.72.64,6.46,6.46,0,0,1-1.14,2.47,14.12,14.12,0,0,0-1.75,5.45c0,1.2.5,1.68,1.22,1.68C1493.54,256.57,1495.29,254.38,1496.8,252Zm-1.65-9.81a.9.9,0,0,1,1,.93,1.31,1.31,0,0,1-1.19,1.26.9.9,0,0,1-1-.91A1.37,1.37,0,0,1,1495.15,242.22Z"/><path d="M1509.05,252s.19-.3.43-.3a.54.54,0,0,1,.55.56.88.88,0,0,1-.1.35c-1.6,2.46-3.29,3.8-5.23,3.8a4.06,4.06,0,0,1-2.23-.64,5.43,5.43,0,0,1-3.36,1.84c-1.62,0-2.66-1.23-2.66-3.61a15.67,15.67,0,0,1,1.57-5.4c.77-1.63,1.25-2.3,1.64-2.3a.64.64,0,0,1,.72.64,6.46,6.46,0,0,1-1.14,2.47,12.75,12.75,0,0,0-1.33,4.62c0,1.76.61,2.48,1.41,2.48a4,4,0,0,0,2.36-1.49s0-.05,0-.08a.62.62,0,0,1-.1-.38.77.77,0,0,1,1.11-.69,10.91,10.91,0,0,0,2.28-5.69c0-.59-.21-.89-.21-1.26s.29-.62.77-.62.87.64.87,1.53c0,2.22-1.32,4.94-3,6.95a2,2,0,0,0,1.51.59C1506.13,255.4,1507.59,254.27,1509.05,252Z"/><path d="M1519.69,252s.18-.3.42-.3a.53.53,0,0,1,.56.56.76.76,0,0,1-.11.35c-1.85,2.89-4.82,5-7.85,5-2.57,0-4-1.28-4-3.63,0-4.41,3.9-7.68,6.73-7.68,1.6,0,2.52.8,2.52,2.22,0,2.17-3.39,4.17-7.69,4.57,0,.3,0,.62,0,.91a2.33,2.33,0,0,0,2.62,2.46C1515,256.49,1518,254.73,1519.69,252Zm-9.15,0c3.42-.43,6-2,6-3.64a1,1,0,0,0-1.11-1C1513.8,247.43,1511.39,249.36,1510.54,252Z"/><path d="M1527,255.13c.14-.24.3-.32.43-.32a.44.44,0,0,1,.42.45,3.08,3.08,0,0,1-2.7,2.38c-1.43,0-2.36-1-2.36-2.67,0-2.14,2.3-4.52,2.3-6,0-.72-1-1-1.67-1.42-.82,1.63-1.77,3.29-2.89,5.06-.13.21-.26.37-.5.37a.51.51,0,0,1-.53-.48.81.81,0,0,1,.16-.48,38.7,38.7,0,0,0,2.76-5.08v-.35c0-1.79.9-3,1.56-3a.77.77,0,0,1,.88.77,5.33,5.33,0,0,1-.83,2.22c.88.7,2.52,1.07,2.52,2.33,0,1.79-2.36,4-2.36,6.23,0,.9.43,1.41,1.12,1.41S1526.58,255.88,1527,255.13Z"/><path d="M1553,248.42c0,2.3-2.44,4.57-2.44,7a1.05,1.05,0,0,0,1.08,1.2c1.41,0,3.16-2.19,4.67-4.54a.52.52,0,0,1,.45-.3.54.54,0,0,1,.53.54.69.69,0,0,1-.1.37c-1.65,2.57-3.58,5-5.76,5a2.2,2.2,0,0,1-2.28-2.46c0-2.4,2.49-5,2.49-6.87,0-.56-.29-.88-.79-.88-1.12,0-3,1.82-4.17,3.31a22.25,22.25,0,0,0-2.73,6.1c-.1.35-.26.8-.79.8a.55.55,0,0,1-.59-.56,2.66,2.66,0,0,1,.16-.7c.61-1.79,1.67-4.59,2.34-6.52a6.26,6.26,0,0,0,.34-1.55.77.77,0,0,0-.82-.88c-1.25,0-3.18,1.82-4.35,3.31a22.26,22.26,0,0,0-2.76,6.1c-.1.35-.26.8-.79.8a.5.5,0,0,1-.53-.53,1.94,1.94,0,0,1,.1-.65c1-3.2,2.44-6.73,3.56-9.43a.92.92,0,0,1,.85-.7.57.57,0,0,1,.63.59,3.82,3.82,0,0,1-.63,1.58l-.35.8c1.33-1.58,2.94-3,4.35-3a1.93,1.93,0,0,1,2.09,2.09,3.9,3.9,0,0,1-.21,1.15c1.33-1.66,3-3.24,4.33-3.24A2,2,0,0,1,1553,248.42Z"/><path d="M1563.11,252a.52.52,0,0,1,.45-.3.54.54,0,0,1,.53.54.71.71,0,0,1-.11.37c-1.64,2.57-3.58,5-5.75,5-1.49,0-2.47-.93-2.47-2.81a16,16,0,0,1,2-6.22c.82-1.61,1.25-2.28,1.64-2.28a.64.64,0,0,1,.72.64,6.46,6.46,0,0,1-1.14,2.47,14,14,0,0,0-1.75,5.45c0,1.2.5,1.68,1.22,1.68C1559.85,256.57,1561.6,254.38,1563.11,252Zm-1.65-9.81a.9.9,0,0,1,1,.93,1.31,1.31,0,0,1-1.2,1.26.9.9,0,0,1-1-.91A1.37,1.37,0,0,1,1561.46,242.22Z"/><path d="M1568.49,259c.77-2,1.17-3.39,1.54-4.46-1.27,1.73-2.73,3.07-4.32,3.07-1.78,0-3-1.18-3-3.31,0-4,4-8,7.32-8a2.81,2.81,0,0,1,2.62,1.31c.24-.8.72-1.31,1.14-1.31a.64.64,0,0,1,.72.64,6.87,6.87,0,0,1-1.19,2.47,52.46,52.46,0,0,0-1.86,5.34l-1.09,3.18c-1.32,3.88-3.47,6.85-6.12,6.85a3,3,0,0,1-3-1.66,1.26,1.26,0,0,1-.08-.48.58.58,0,0,1,.61-.64.68.68,0,0,1,.61.45c.43.75.8,1.26,1.81,1.26C1565.58,263.74,1567.38,261.89,1568.49,259Zm3.56-10.13c-.14-.91-.85-1.47-2.1-1.47-2.47,0-5.78,3.72-5.78,7,0,1.37.74,2.09,1.64,2.09,1.36,0,2.76-1.39,4-3.21A22.79,22.79,0,0,0,1572.05,248.9Z"/><path d="M1598.17,248.42c0,2.3-2.44,4.57-2.44,7a1.06,1.06,0,0,0,1.09,1.2c1.4,0,3.15-2.19,4.67-4.54a.52.52,0,0,1,.45-.3.54.54,0,0,1,.53.54.71.71,0,0,1-.11.37c-1.64,2.57-3.58,5-5.75,5a2.2,2.2,0,0,1-2.28-2.46c0-2.4,2.49-5,2.49-6.87,0-.56-.29-.88-.8-.88-1.11,0-3,1.82-4.16,3.31a22,22,0,0,0-2.73,6.1c-.11.35-.27.8-.8.8a.55.55,0,0,1-.58-.56,2.66,2.66,0,0,1,.16-.7c.61-1.79,1.67-4.59,2.33-6.52a6.39,6.39,0,0,0,.35-1.55.78.78,0,0,0-.83-.88c-1.24,0-3.18,1.82-4.35,3.31a22,22,0,0,0-2.75,6.1c-.11.35-.27.8-.8.8a.5.5,0,0,1-.53-.53,2,2,0,0,1,.11-.65c1-3.2,2.44-6.73,3.55-9.43a.94.94,0,0,1,.85-.7.57.57,0,0,1,.63.59,3.82,3.82,0,0,1-.63,1.58l-.35.8c1.33-1.58,3-3,4.35-3a1.94,1.94,0,0,1,2.1,2.09,3.9,3.9,0,0,1-.21,1.15c1.32-1.66,3-3.24,4.32-3.24A2,2,0,0,1,1598.17,248.42Z"/><path d="M1615.81,252a.52.52,0,0,1,.45-.3.54.54,0,0,1,.53.54.71.71,0,0,1-.11.37c-1.64,2.57-3.58,5-5.75,5a2.52,2.52,0,0,1-2.55-2.78,1.31,1.31,0,0,1,0-.35c-1.27,1.77-2.79,3.13-4.38,3.13a3,3,0,0,1-3-3.31c0-4,4.06-8,7.32-8a2.81,2.81,0,0,1,2.63,1.31c.24-.8.72-1.31,1.14-1.31a.64.64,0,0,1,.72.64,7,7,0,0,1-1.2,2.47c-.82,1.79-1.77,3.93-1.77,5.42,0,1.18.53,1.71,1.32,1.71C1612.55,256.57,1614.3,254.38,1615.81,252Zm-7.67,1.28a21.72,21.72,0,0,0,2.23-4.41c-.13-.91-.85-1.47-2.09-1.47-2.47,0-5.78,3.72-5.78,7,0,1.37.76,2.09,1.67,2.09C1605.52,256.52,1606.9,255.13,1608.14,253.31Z"/><path d="M1621.06,256.28a10.24,10.24,0,0,0,4.75-4.25s.19-.3.42-.3a.51.51,0,0,1,.56.54,1.27,1.27,0,0,1-.11.37,9.75,9.75,0,0,1-8.46,5c-2.49,0-3.79-1.36-3.79-2.91a7.42,7.42,0,0,1,1.38-2.7,37.47,37.47,0,0,0,2.65-5.06v-.37c0-1.76.85-3,1.57-3s.9.32.9.8a6.67,6.67,0,0,1-1.09,2.72c.56,2,2.47,4.1,2.47,6.56A3.19,3.19,0,0,1,1621.06,256.28Zm-2-7.73c-.69,1.34-1.48,2.68-2.38,4.09a4.68,4.68,0,0,0-1,1.93,2.28,2.28,0,0,0,2.44,2,2.74,2.74,0,0,0,2.73-2.86C1620.88,251.71,1619.79,250.34,1619.07,248.55Z"/><path d="M1631.06,256.28a10.24,10.24,0,0,0,4.75-4.25s.19-.3.42-.3a.51.51,0,0,1,.56.54,1.27,1.27,0,0,1-.11.37,9.75,9.75,0,0,1-8.46,5c-2.49,0-3.79-1.36-3.79-2.91a7.42,7.42,0,0,1,1.38-2.7,37.47,37.47,0,0,0,2.65-5.06v-.37c0-1.76.85-3,1.57-3s.9.32.9.8a6.67,6.67,0,0,1-1.09,2.72c.56,2,2.47,4.1,2.47,6.56A3.19,3.19,0,0,1,1631.06,256.28Zm-2-7.73c-.69,1.34-1.48,2.68-2.38,4.09a4.68,4.68,0,0,0-1,1.93,2.28,2.28,0,0,0,2.44,2,2.74,2.74,0,0,0,2.73-2.86C1630.88,251.71,1629.79,250.34,1629.07,248.55Z"/><path d="M1646.45,252s.18-.3.42-.3a.54.54,0,0,1,.56.56.89.89,0,0,1-.11.35c-1.86,2.89-4.83,5-7.85,5-2.57,0-4-1.28-4-3.63,0-4.41,3.9-7.68,6.73-7.68,1.59,0,2.52.8,2.52,2.22,0,2.17-3.39,4.17-7.69,4.57,0,.3,0,.62,0,.91a2.33,2.33,0,0,0,2.62,2.46C1641.78,256.49,1644.72,254.73,1646.45,252Zm-9.15,0c3.42-.43,6-2,6-3.64a1,1,0,0,0-1.11-1C1640.56,247.43,1638.15,249.36,1637.3,252Z"/><path d="M1653.79,255.13c.14-.24.29-.32.43-.32a.44.44,0,0,1,.42.45,3.08,3.08,0,0,1-2.7,2.38c-1.44,0-2.36-1-2.36-2.67,0-2.14,2.3-4.52,2.3-6,0-.72-1-1-1.67-1.42-.82,1.63-1.77,3.29-2.89,5.06-.13.21-.26.37-.5.37a.51.51,0,0,1-.53-.48.81.81,0,0,1,.16-.48,38.7,38.7,0,0,0,2.76-5.08v-.35c0-1.79.9-3,1.56-3a.77.77,0,0,1,.88.77,5.33,5.33,0,0,1-.83,2.22c.88.7,2.52,1.07,2.52,2.33,0,1.79-2.36,4-2.36,6.23,0,.9.43,1.41,1.12,1.41S1653.34,255.88,1653.79,255.13Z"/><path d="M1678.94,252a.52.52,0,0,1,.45-.3.54.54,0,0,1,.53.54.71.71,0,0,1-.11.37c-1.64,2.57-3.58,5-5.75,5a2.52,2.52,0,0,1-2.55-2.78,1.31,1.31,0,0,1,0-.35c-1.28,1.77-2.79,3.13-4.38,3.13a3,3,0,0,1-3.05-3.31c0-4,4.06-8,7.32-8a2.84,2.84,0,0,1,2.63,1.31c.24-.8.71-1.31,1.14-1.31a.64.64,0,0,1,.71.64,6.87,6.87,0,0,1-1.19,2.47c-.82,1.79-1.78,3.93-1.78,5.42,0,1.18.53,1.71,1.33,1.71C1675.67,256.57,1677.42,254.38,1678.94,252Zm-7.67,1.28a21.72,21.72,0,0,0,2.23-4.41c-.13-.91-.85-1.47-2.09-1.47-2.47,0-5.79,3.72-5.79,7,0,1.37.77,2.09,1.67,2.09C1668.65,256.52,1670,255.13,1671.27,253.31Z"/><path d="M1680.4,255.5a.84.84,0,0,1-.32-.56.55.55,0,0,1,.5-.53,1.21,1.21,0,0,1,.8.4,4.66,4.66,0,0,1,1.14,3.26c0,3.5-2,6.52-4,6.52-1.27,0-2.15-.91-2.15-2.78a29.54,29.54,0,0,1,1.78-7.64,84.36,84.36,0,0,1,4.75-11.15c1.16-2.33,2.23-3,3.1-3,1.11,0,1.86.75,1.86,2.22,0,3.66-3.72,8.93-7.93,10.9l-.53,1.5a27.51,27.51,0,0,0-1.67,7.19c0,1.18.39,1.63.92,1.63,1.22,0,2.58-2.38,2.58-5.4A4.18,4.18,0,0,0,1680.4,255.5Zm.1-3.87c3.48-2.19,6.16-6.71,6.16-9.41,0-.83-.29-1.13-.67-1.13s-.84.4-1.88,2.49C1682.89,246,1681.62,248.85,1680.5,251.63Z"/><path d="M1706.26,252a.52.52,0,0,1,.45-.3.54.54,0,0,1,.53.54.71.71,0,0,1-.11.37c-1.67,2.62-3.71,5-6.15,5-2,0-3.29-1.31-4.16-3.66a1.73,1.73,0,0,1-.11-.59c0-.37.27-.61.82-.72,2.76-.54,5.17-2.59,5.17-4.3a.85.85,0,0,0-.92-.94c-1.33,0-3.72,1.74-5,3.31a21,21,0,0,0-2.73,6.1c-.1.35-.26.8-.79.8a.5.5,0,0,1-.53-.53,1.94,1.94,0,0,1,.1-.65c1.75-5.13,4.19-11.06,6.07-15.53.24-.58.64-.93,1-.93a.64.64,0,0,1,.71.64A8.75,8.75,0,0,1,1699,244l-2.26,5.45c1.51-1.69,3.61-3.16,5.12-3.16a2.07,2.07,0,0,1,2.26,2.14c0,2.06-2.84,4.41-6.08,5.22.59,1.81,1.73,2.88,3.13,2.88S1704.72,254.43,1706.26,252Z"/><path d="M1720.58,252a.52.52,0,0,1,.45-.3.54.54,0,0,1,.53.54.69.69,0,0,1-.1.37c-1.65,2.57-3.58,5-5.76,5a2.52,2.52,0,0,1-2.54-2.78,1.94,1.94,0,0,1,0-.35c-1.27,1.77-2.78,3.13-4.37,3.13-1.78,0-3-1.18-3-3.31,0-4,4-8,7.32-8a2.81,2.81,0,0,1,2.62,1.31c.24-.8.72-1.31,1.14-1.31a.64.64,0,0,1,.72.64,6.78,6.78,0,0,1-1.2,2.47c-.82,1.79-1.77,3.93-1.77,5.42,0,1.18.53,1.71,1.32,1.71C1717.32,256.57,1719.07,254.38,1720.58,252Zm-7.66,1.28a22.21,22.21,0,0,0,2.22-4.41c-.13-.91-.85-1.47-2.09-1.47-2.47,0-5.78,3.72-5.78,7,0,1.37.77,2.09,1.67,2.09C1710.29,256.52,1711.67,255.13,1712.92,253.31Z"/><path d="M1729,252s.19-.3.43-.3a.54.54,0,0,1,.55.56.88.88,0,0,1-.1.35c-1.57,2.38-3.26,3.61-5.23,3.61a4.11,4.11,0,0,1-.77-.08,7.44,7.44,0,0,1,.3,1.9c0,3.5-2,6.52-4,6.52-1.27,0-2.15-.91-2.15-2.78a29.12,29.12,0,0,1,1.78-7.64,85.72,85.72,0,0,1,4.74-11.15c1.17-2.33,2.23-3,3.11-3,1.11,0,1.85.75,1.85,2.22,0,3.53-3.42,8.5-7.42,10.66a5.28,5.28,0,0,1,1.35,2,2.36,2.36,0,0,0,1.22.32C1725.94,255.21,1727.53,254.22,1729,252Zm-6.44,3.55a4,4,0,0,1-1.33-1.44l-.16.48a27.51,27.51,0,0,0-1.67,7.19c0,1.18.4,1.63.93,1.63,1.22,0,2.57-2.38,2.57-5.4A8.44,8.44,0,0,0,1722.52,255.58Zm3.21-12c-1.22,2.43-2.49,5.27-3.61,8,3.48-2.19,6.15-6.71,6.15-9.41,0-.83-.29-1.13-.66-1.13S1726.76,241.49,1725.73,243.58Z"/><path d="M1737.34,252s.19-.3.43-.3a.55.55,0,0,1,.56.56.89.89,0,0,1-.11.35c-1.56,2.38-3.26,3.61-5.22,3.61a3.94,3.94,0,0,1-.77-.08,7.85,7.85,0,0,1,.29,1.9c0,3.5-2,6.52-4,6.52-1.27,0-2.15-.91-2.15-2.78a29.12,29.12,0,0,1,1.78-7.64,84.36,84.36,0,0,1,4.75-11.15c1.16-2.33,2.22-3,3.1-3,1.11,0,1.86.75,1.86,2.22,0,3.53-3.43,8.5-7.43,10.66a5.28,5.28,0,0,1,1.35,2,2.36,2.36,0,0,0,1.22.32C1734.32,255.21,1735.91,254.22,1737.34,252Zm-6.44,3.55a4,4,0,0,1-1.32-1.44l-.16.48a27.1,27.1,0,0,0-1.67,7.19c0,1.18.39,1.63.92,1.63,1.22,0,2.58-2.38,2.58-5.4A8.42,8.42,0,0,0,1730.9,255.58Zm3.21-12c-1.22,2.43-2.49,5.27-3.61,8,3.48-2.19,6.16-6.71,6.16-9.41,0-.83-.3-1.13-.67-1.13S1735.14,241.49,1734.11,243.58Z"/><path d="M1743.79,246.33c1.59,0,2.52.8,2.52,2.22,0,2.17-3.39,4.17-7.69,4.57,0,.3,0,.62,0,.91a2.29,2.29,0,0,0,2.54,2.43,3.72,3.72,0,0,0,3.1-1.87.53.53,0,0,1,.46-.32.51.51,0,0,1,.47.54c0,.85-1.88,2.83-4.27,2.83s-3.82-1.31-3.82-3.63C1737.05,249.6,1741,246.33,1743.79,246.33Zm-4.91,5.7c3.43-.43,6-2,6-3.64,0-.59-.45-1-1.12-1C1742.15,247.43,1739.73,249.36,1738.88,252Z"/><path d="M1750,254.49c.64,0,1,.32,1,.93,0,1-.82,2.22-1.72,2.22a1,1,0,0,1-1-1A2.16,2.16,0,0,1,1750,254.49Zm1.83-2.54c-.16.48-.34.83-.87.83a.56.56,0,0,1-.61-.57,2,2,0,0,1,.13-.64c1.8-5.24,3.79-10.45,5.57-14.46.21-.45.5-.72.9-.72a.58.58,0,0,1,.64.61.92.92,0,0,1-.08.38C1755.75,241.36,1753.79,246.15,1751.8,252Z"/><ellipse class="cls-16" cx="1588.63" cy="969.63" rx="225" ry="26.5"/><path class="cls-5" d="M1332.63,928.93c26.7,49.74,138.29,61.17,216,37,16.86-5.25,65.37-20.36,97-62.13,16.69-22,13.4-31.49,20.86-88.2,3.12-23.78,4.15-41.37,12.46-76.22,13.7-57.45,31.28-74.35,37.93-130.91,3.09-26.33.72-34.88-2-41-14.57-33.47-61.59-49.29-94.33-52.41-63.32-6-110.56,31.89-119.06,38.74-45.49,36.68-44.78,76.62-70.16,145.43C1373.46,856.26,1308.67,884.27,1332.63,928.93Z"/><path class="cls-17" d="M1707.4,607.69c5.55,5.67,25.09-.54,38.07-10.58,24.68-19.08,33.6-58.09,19.92-68.73-7.16-5.56-21-3.75-29.65,2.13-8.81,6-7.89,13.39-16.64,38.77C1709.78,596.31,1703.36,603.57,1707.4,607.69Z"/><path class="cls-17" d="M1513.59,548.14c-8.62-.54-14.18-18.41-12.29-33.89,3.59-29.42,35.28-59.65,53.35-56.28,9.46,1.76,15.88,12.86,15.36,22.66-.53,10-8,13.85-26.93,35.64C1523,539.47,1519.85,548.54,1513.59,548.14Z"/><line class="cls-18" x1="1591.6" y1="591.46" x2="1605.58" y2="594.18"/><path d="M1564.12,579.56c7.72,0,7.74-12,0-12s-7.73,12,0,12Z"/><path d="M1627.44,592.61c7.72,0,7.74-12,0-12s-7.73,12,0,12Z"/><path class="cls-18" d="M1616.72,590.64a15.68,15.68,0,0,0,7.23,3.44,17.23,17.23,0,0,0,9.42-.85"/><path class="cls-18" d="M1553.34,576.65a14.83,14.83,0,0,0,6.47,4.46,17.33,17.33,0,0,0,9.45.55"/><polygon class="cls-19" points="1583.14 615.34 1597.06 618.26 1587.68 625.66 1583.14 615.34"/><line class="cls-19" x1="1587.79" y1="625.79" x2="1587.79" y2="636.61"/><ellipse cx="1587.79" cy="646.58" rx="8.46" ry="9.97"/><path class="cls-17" d="M1652.75,873.58c2.23,3.46,9.63,4.62,15.27,3.25,25.07-6.09,28.12-65.36,23.58-66.43-1.79-.42-3,8.61-14.63,26.2C1662.38,858.71,1649,867.72,1652.75,873.58Z"/><polygon class="cls-20" points="1584.8 570.95 1565.38 607.95 1569.26 608.35 1587.72 573.55 1584.8 570.95"/><polygon class="cls-20" points="1650.37 584.38 1630.96 621.37 1634.83 621.78 1653.3 586.98 1650.37 584.38"/><path class="cls-21" d="M1568.6,546.6a21.93,21.93,0,0,1,11-2,21.17,21.17,0,0,1,10.53,3.71"/><path class="cls-21" d="M1633.63,557.25a22.33,22.33,0,0,1,11.23-.18,20,20,0,0,1,9.57,5.36"/><ellipse class="cls-22" cx="1588.12" cy="651.14" rx="6.51" ry="5.7"/><ellipse class="cls-23" cx="1544.31" cy="615.23" rx="25.39" ry="23.74"/><ellipse class="cls-23" cx="1638.19" cy="636.81" rx="25.39" ry="23.74"/><ellipse class="cls-18" cx="1566.53" cy="586.56" rx="26.02" ry="22.79"/><ellipse class="cls-18" cx="1630.9" cy="599.43" rx="26.02" ry="22.79"/><line class="cls-24" x1="1476.95" y1="791.44" x2="1405.81" y2="973.14"/><line class="cls-24" x1="1579.98" y1="793.36" x2="1508.85" y2="975.06"/></svg>
