<svg id="Layer_1" data-name="Layer 1" xmlns="http://www.w3.org/2000/svg" xmlns:xlink="http://www.w3.org/1999/xlink" viewBox="0 0 1920 326.65">
  <defs>
    <style>
      .cls-1 {
        fill: none;
      }

      .cls-2 {
        clip-path: url(#clip-path);
      }

      .cls-3 {
        fill: #fff;
      }
    </style>
    <clipPath id="clip-path">
      <rect class="cls-1" x="-260.34" y="-464.38" width="2556.84" height="1438.22"/>
    </clipPath>
  </defs>
  <title>Artboard 1</title>
  <g class="cls-2">
    <path d="M976.8,326c-85.54,0-155.14-69.59-155.14-155.14S891.26,15.7,976.8,15.7s155.14,69.6,155.14,155.14S1062.35,326,976.8,326"/>
    <path d="M976.8,16.36A154.47,154.47,0,0,1,1086,280.07,154.47,154.47,0,0,1,867.57,61.61,153.46,153.46,0,0,1,976.8,16.36m0-1.33a155.81,155.81,0,1,0,155.81,155.81A155.8,155.8,0,0,0,976.8,15"/>
  </g>
  <g>
    <path class="cls-3" d="M903.49,115.83a8.78,8.78,0,0,1-6.64-2.73,15,15,0,0,1-2.63-5.43,19.41,19.41,0,0,1-.81-5.17,6.36,6.36,0,0,1,.45-2.47c.41-1,1-1.49,1.69-1.49a2,2,0,0,1,.91.26,3.18,3.18,0,0,1,1.32,2.06,18.15,18.15,0,0,1,.44,3,14.77,14.77,0,0,0,.39,2.72,7.83,7.83,0,0,0,1.25,2.52,2.59,2.59,0,0,0,1.9,1.15c.7,0,1.37-.52,2-1.56q1.89-3.48,2.4-10,.33-4.23.33-8.56c0-1.6,0-3.22-.1-4.87a99.31,99.31,0,0,0-1.14-12.81q-.25-1.31-.42-2.64a42,42,0,0,1-6.18.49c-1,0-1.58-.73-1.82-2.21,0-1.88,2.68-3.1,8-3.64,1.83-.17,3.09-.26,3.81-.26a3.25,3.25,0,0,1,1.14.2c2.1.28,3.3,2.18,3.61,5.72A157.11,157.11,0,0,1,914.93,91q0,3.48-.26,7.22-.61,10-4.58,14.63A9.2,9.2,0,0,1,903.49,115.83Z"/>
    <path class="cls-3" d="M924.91,72.46c0-.3,0-.59,0-.88a9.35,9.35,0,0,1,.77-4.26A3,3,0,0,1,928,65.83a17.19,17.19,0,0,1,2.31-.13q.88,0,1.92.06a2.58,2.58,0,0,0,.39,0h2.41c1.27,0,2.55,0,3.82,0a14,14,0,0,1,2.52.19,2.6,2.6,0,0,1,1.75,1.53,1.74,1.74,0,0,1,.1.59,1.94,1.94,0,0,1-.65,1.36,4.85,4.85,0,0,1-3.35,1h-1.14a7.9,7.9,0,0,0-1.07-.07,6.5,6.5,0,0,0-2.6.46q-1.44.61-1.56,3.57v.65q0,4.39-.23,8.71c0,.63,0,1.27-.1,1.92,0,1.37.27,2.19.82,2.47a3.61,3.61,0,0,0,1.52.26l.88,0a12.77,12.77,0,0,1,1.3-.06c.22,0,.48,0,.78,0s.82,0,1.24,0l1.33,0a4,4,0,0,1,2.05.56,2.34,2.34,0,0,1,.84,1.75,2.71,2.71,0,0,1-.09.68,2.43,2.43,0,0,1-2.38,1.63h-.48l-1.4,0-2.08,0H935.8a5.12,5.12,0,0,0-2.18.32,3.82,3.82,0,0,0-1.07,2.47c0,.28,0,.57,0,.85a12.74,12.74,0,0,0,.16,2,12.64,12.64,0,0,1,.13,1.34,3.64,3.64,0,0,1,0,.48,36.13,36.13,0,0,0,.44,3.82,9.2,9.2,0,0,0,1.34,3.52,4.45,4.45,0,0,0,3,1.9c.73.06,1.47.09,2.21.09s1.47,0,2.21-.09l1.88-.13a2.75,2.75,0,0,1,2.38,1.17,2.07,2.07,0,0,1,.36,1.14,2.38,2.38,0,0,1-.36,1.17c-.5.78-1.64,1.24-3.42,1.39-1.23.09-2.63.13-4.19.13l-1.92,0a23,23,0,0,1-5.92-.71,6.57,6.57,0,0,1-4-3.45,20.19,20.19,0,0,1-1.54-5.3A74,74,0,0,1,924.29,92v-.39q0-7.12.39-14C924.77,75.86,924.85,74.13,924.91,72.46Z"/>
    <path class="cls-3" d="M951.93,100.58a53.52,53.52,0,0,1-1.11-7.34c-.11-1.37-.16-2.83-.16-4.39,0-1.17,0-2.4.1-3.68a44.46,44.46,0,0,1,1.35-8.86,20.57,20.57,0,0,1,3.62-7.59,11.71,11.71,0,0,1,6.77-4.22,16.14,16.14,0,0,1,3.51-.39,15.54,15.54,0,0,1,3.57.42,9,9,0,0,1,5.5,4.13,15.08,15.08,0,0,1,1.62,4.5,31.24,31.24,0,0,1,.59,4.76l0,.56c0,.84.07,1.68.07,2.5a2.42,2.42,0,0,1-.78,1.59,2.35,2.35,0,0,1-1.57.55H975a2.26,2.26,0,0,1-2.15-2.34v-.42a36.25,36.25,0,0,0-.36-4.71,11.69,11.69,0,0,0-1.72-5,3.85,3.85,0,0,0-3.48-1.82,5.73,5.73,0,0,0-.81.06,6.49,6.49,0,0,0-4.6,3.58,21.18,21.18,0,0,0-2.2,7.09,51.16,51.16,0,0,0-.58,7.6v.39a61.24,61.24,0,0,0,.26,6.28c.09,1,.32,2.6.7,4.81a46,46,0,0,0,1.69,6.7,12.4,12.4,0,0,0,2.88,5.07,2.72,2.72,0,0,0,1.91.85,4.09,4.09,0,0,0,2.31-.88,10.13,10.13,0,0,0,3.24-6,51.49,51.49,0,0,0,.73-7q0-.58,0-1.08a4.74,4.74,0,0,0-.68-2.82,5.06,5.06,0,0,0-3.22-1.53,5.93,5.93,0,0,1-2.08-.68,1.64,1.64,0,0,1-.78-1.53,3.46,3.46,0,0,1,0-.43A2.32,2.32,0,0,1,968,87.38a12.63,12.63,0,0,1,2.64-.29h1.13l.85,0a5.74,5.74,0,0,1,3.71.94c.82.72,1.25,2.24,1.3,4.59q0,1,0,2c0,1.89-.09,3.9-.26,6.05a29.43,29.43,0,0,1-1.69,7.77,11.3,11.3,0,0,1-9,7.41,14.56,14.56,0,0,1-2.47.23q-5.85,0-9-5.63a26.53,26.53,0,0,1-2-4.79A51.74,51.74,0,0,1,951.93,100.58Z"/>
    <path class="cls-3" d="M1004.18,72.46c0-.3,0-.59,0-.88a9.24,9.24,0,0,1,.76-4.26,3,3,0,0,1,2.33-1.49,17.19,17.19,0,0,1,2.31-.13c.58,0,1.22,0,1.91.06a2.58,2.58,0,0,0,.39,0h2.41c1.28,0,2.55,0,3.82,0a13.83,13.83,0,0,1,2.52.19,2.62,2.62,0,0,1,1.76,1.53,2,2,0,0,1,.09.59,1.9,1.9,0,0,1-.65,1.36,4.85,4.85,0,0,1-3.35,1h-1.13a8,8,0,0,0-1.08-.07,6.54,6.54,0,0,0-2.6.46q-1.43.61-1.56,3.57v.65q0,4.39-.23,8.71,0,.95-.09,1.92c0,1.37.27,2.19.81,2.47a3.69,3.69,0,0,0,1.53.26l.87,0a12.92,12.92,0,0,1,1.3-.06c.22,0,.48,0,.79,0s.82,0,1.23,0l1.33,0a4,4,0,0,1,2.05.56,2.32,2.32,0,0,1,.85,1.75,2.73,2.73,0,0,1-.1.68,2.41,2.41,0,0,1-2.37,1.63h-.49l-1.4,0c-.69,0-1.39,0-2.08,0h-1.07a5.09,5.09,0,0,0-2.18.32,3.77,3.77,0,0,0-1.07,2.47,8.06,8.06,0,0,0,0,.85,12.78,12.78,0,0,0,.17,2c.06.46.1.9.13,1.34a3.64,3.64,0,0,1,0,.48,31.54,31.54,0,0,0,.44,3.82,9.18,9.18,0,0,0,1.33,3.52,4.45,4.45,0,0,0,3,1.9c.74.06,1.47.09,2.21.09s1.47,0,2.21-.09l1.89-.13a2.74,2.74,0,0,1,2.37,1.17,2.07,2.07,0,0,1,.36,1.14,2.38,2.38,0,0,1-.36,1.17c-.5.78-1.64,1.24-3.41,1.39-1.24.09-2.64.13-4.2.13l-1.91,0a22.88,22.88,0,0,1-5.92-.71,6.59,6.59,0,0,1-4-3.45,20.57,20.57,0,0,1-1.54-5.3A75,75,0,0,1,1003.56,92v-.39q0-7.12.39-14C1004,75.86,1004.11,74.13,1004.18,72.46Z"/>
    <path class="cls-3" d="M1051.9,116.9a3.07,3.07,0,0,1-2.21-.84q-1.59-1.53-2.73-5.69l-1.85-5.75q-2.11-6.93-5-13.89a2.93,2.93,0,0,1-.26-1,2.45,2.45,0,0,1,1.46-2.25,14.45,14.45,0,0,0,6.61-6.34,9.16,9.16,0,0,0,1-4q0-6.63-9.36-9.07l-.07,20.48q0,17.55.16,22.21a9,9,0,0,1-.65,3.47c-.5,1.22-1.65,1.85-3.47,1.89-2.58-.15-4-1.74-4.17-4.75l0-1.66c0-.71,0-1.43.07-2.14q.15-12.42.16-19.61,0-6.63-.16-19.57a5.89,5.89,0,0,1,1-3.67,4.9,4.9,0,0,1,4.07-1.56,18.64,18.64,0,0,1,5.07.71,20.14,20.14,0,0,1,7.23,3.56,12.72,12.72,0,0,1,4.28,5.94,10.29,10.29,0,0,1,.52,3.31,15,15,0,0,1-.81,4.65,17.74,17.74,0,0,1-7.64,9.2q2.51,5.85,4.91,11.71l3.51,8.32a10,10,0,0,1,1,3.8,3.71,3.71,0,0,1-.16,1.08C1054.11,116.35,1053.29,116.82,1051.9,116.9Z"/>
  </g>
  <g>
    <path class="cls-3" d="M889.58,128.39a8.51,8.51,0,0,1,0-.88,9.16,9.16,0,0,1,.76-4.25,3,3,0,0,1,2.32-1.5,17.19,17.19,0,0,1,2.31-.13c.59,0,1.23,0,1.92.07a2.56,2.56,0,0,0,.39,0h2.41c1.27,0,2.55,0,3.82,0a14,14,0,0,1,2.52.19,2.6,2.6,0,0,1,1.75,1.53,1.74,1.74,0,0,1,.1.59,1.92,1.92,0,0,1-.65,1.36,4.8,4.8,0,0,1-3.35.95h-1.14a7.9,7.9,0,0,0-1.07-.07,6.5,6.5,0,0,0-2.6.46c-1,.41-1.48,1.6-1.56,3.57V131c0,2.93-.08,5.83-.23,8.72,0,.63-.05,1.26-.1,1.91,0,1.37.27,2.19.82,2.48a3.85,3.85,0,0,0,1.52.26,8.77,8.77,0,0,0,.88,0,12.92,12.92,0,0,1,1.3-.06l.78,0c.41,0,.83,0,1.24,0s.88,0,1.33,0a3.91,3.91,0,0,1,2,.55,2.34,2.34,0,0,1,.84,1.75,2.84,2.84,0,0,1-.09.69,2.42,2.42,0,0,1-2.38,1.62H905l-1.4,0-2.08,0h-1.08a5.19,5.19,0,0,0-2.17.32,3.79,3.79,0,0,0-1.08,2.47c0,.29,0,.57,0,.85a12.74,12.74,0,0,0,.16,2,12.64,12.64,0,0,1,.13,1.34,3.6,3.6,0,0,1,0,.49,32,32,0,0,0,.44,3.82,9,9,0,0,0,1.33,3.51,4.45,4.45,0,0,0,3,1.9c.73.06,1.47.1,2.21.1s1.47,0,2.21-.1l1.88-.13a2.75,2.75,0,0,1,2.38,1.17,2.07,2.07,0,0,1,.36,1.14,2.33,2.33,0,0,1-.36,1.17c-.5.78-1.64,1.24-3.42,1.4-1.23.08-2.63.13-4.19.13-.61,0-1.25,0-1.92,0a22.85,22.85,0,0,1-5.91-.71,6.56,6.56,0,0,1-4-3.45,20.57,20.57,0,0,1-1.54-5.3A73.89,73.89,0,0,1,889,147.93v-.39q0-7.11.4-13.95C889.44,131.8,889.52,130.06,889.58,128.39Z"/>
    <path class="cls-3" d="M943.84,167.7c-.49,1.6-1.12,2.41-1.88,2.41a1.86,1.86,0,0,1-.33,0,6,6,0,0,1-2.86-2.5A38.31,38.31,0,0,1,936,163c-.82-1.63-1.43-2.87-1.82-3.74-.09-.22-.16-.39-.23-.52-1.12-3-2.22-5.77-3.28-8.19-.59-1.37-1.18-2.74-1.79-4.1-.13-.33-.27-.65-.42-1-.35-.78-.68-1.57-1-2.37q-1.07-2.53-2.18-5l-.09-.19c-.18-.37-.29-.55-.33-.55v1.1c0,2.49-.06,5-.06,7.51q0,8.75.32,17.53c0,.43,0,.86,0,1.3a18.32,18.32,0,0,1-.13,2.21,5.13,5.13,0,0,1-1.23,2.87A4.27,4.27,0,0,1,920.5,171a3.37,3.37,0,0,1-2.79-1.29,5.78,5.78,0,0,1-1-2.91c0-.58-.06-1.16-.06-1.72s0-1.12.06-1.66,0-.83,0-1.2q.08-4.06.07-8.16,0-5.12-.1-10.21l-.06-8v-5.53a17,17,0,0,1,.19-2.53,5.67,5.67,0,0,1,1.19-2.72,3.46,3.46,0,0,1,2.84-1.12,4.61,4.61,0,0,1,3.17,1.27,9.51,9.51,0,0,1,2.07,3,36.42,36.42,0,0,1,1.4,3.53c.23.67.46,1.29.68,1.85.09.24.23.59.42,1l2.55,6.31q1.68,4.13,3.56,8.6t3.4,8.16q1.51,3.69,2,4.05h.07c.11,0,.19-.14.26-.42a8.78,8.78,0,0,0,.13-1.22c0-.49,0-1,0-1.45s0-.84,0-1.1v-.23a188.7,188.7,0,0,0-1.3-19.22c-.46-4.11-.83-8.28-1.11-12.48v-.16c0-.31,0-.61,0-.91s0-.65,0-1a3,3,0,0,1,.82-1.8,3.42,3.42,0,0,1,2.56-.77,1.8,1.8,0,0,1,1.74.93,5.35,5.35,0,0,1,.6,2.23c0,.62.07,1.24.07,1.85v1.79c.09,2.25.18,4.54.29,6.86q.3,6.63.46,13.33,0,1.78,0,3.57c0,3.9-.09,7.43-.26,10.57A25.9,25.9,0,0,1,943.84,167.7Z"/>
    <path class="cls-3" d="M970.6,156.52a52.36,52.36,0,0,1-1.1-7.35c-.11-1.37-.17-2.83-.17-4.39,0-1.17,0-2.4.1-3.68a44.46,44.46,0,0,1,1.35-8.86,20.58,20.58,0,0,1,3.63-7.59,11.69,11.69,0,0,1,6.76-4.22,16.14,16.14,0,0,1,3.51-.39,15.69,15.69,0,0,1,3.58.42,8.94,8.94,0,0,1,5.49,4.13,15.48,15.48,0,0,1,1.63,4.5,31.34,31.34,0,0,1,.58,4.76l0,.56c0,.84.06,1.68.06,2.5a2.38,2.38,0,0,1-.78,1.59,2.31,2.31,0,0,1-1.56.56h-.1a2.42,2.42,0,0,1-1.59-.78,2.34,2.34,0,0,1-.55-1.56v-.43a36.25,36.25,0,0,0-.36-4.71,11.7,11.7,0,0,0-1.73-5,3.86,3.86,0,0,0-3.47-1.82,5.87,5.87,0,0,0-.82.06,6.55,6.55,0,0,0-4.6,3.58,21.25,21.25,0,0,0-2.19,7.09,51.23,51.23,0,0,0-.59,7.61v.39a61,61,0,0,0,.26,6.27c.09,1,.32,2.6.7,4.81a45.66,45.66,0,0,0,1.69,6.7,12.4,12.4,0,0,0,2.88,5.07,2.68,2.68,0,0,0,1.92.85,4.14,4.14,0,0,0,2.31-.88,10.17,10.17,0,0,0,3.23-6,50,50,0,0,0,.73-7c0-.39,0-.75,0-1.07a4.68,4.68,0,0,0-.69-2.83,5,5,0,0,0-3.22-1.53,5.93,5.93,0,0,1-2.08-.68,1.64,1.64,0,0,1-.78-1.53,2.12,2.12,0,0,1,0-.42,2.28,2.28,0,0,1,2-1.82,11.86,11.86,0,0,1,2.63-.3h1.14q.42,0,.84,0a5.73,5.73,0,0,1,3.71.94c.82.72,1.26,2.25,1.3,4.59q0,1,0,2c0,1.89-.08,3.9-.26,6.05a28.86,28.86,0,0,1-1.69,7.77,11.28,11.28,0,0,1-9,7.41,14.58,14.58,0,0,1-2.48.23q-5.85,0-9-5.62a27.69,27.69,0,0,1-2-4.8C971.39,159.87,971,158.18,970.6,156.52Z"/>
    <path class="cls-3" d="M1021.22,120.3a10.15,10.15,0,0,1,6.39,2.91,16.13,16.13,0,0,1,3.64,5.87,36.87,36.87,0,0,1,1.81,6.76,59.18,59.18,0,0,1,.78,9.56,60.08,60.08,0,0,1-1.43,12.94,28.17,28.17,0,0,1-3,7.31,14.16,14.16,0,0,1-5.24,5.24,10.83,10.83,0,0,1-5.33,1.26,16.85,16.85,0,0,1-2.67-.22,9.63,9.63,0,0,1-5-2.56,14.42,14.42,0,0,1-3.07-4.56,39.36,39.36,0,0,1-1.86-5.3,56.59,56.59,0,0,1-1.75-11.06c-.07-1.19-.1-2.37-.1-3.54a56.73,56.73,0,0,1,.68-8.75,26.31,26.31,0,0,1,3.81-10.37,12.32,12.32,0,0,1,5.3-4.55,13.41,13.41,0,0,1,5.36-1A14.41,14.41,0,0,1,1021.22,120.3Zm6,39.66a49.54,49.54,0,0,0,1.24-7.87c.23-2.45.35-5,.35-7.64,0-1.06,0-2.13-.06-3.22a39.91,39.91,0,0,0-1.56-10.24q-1.37-4.49-4.36-5.88a4.76,4.76,0,0,0-1.75-.36,3.92,3.92,0,0,0-2,.59,8.52,8.52,0,0,0-2.93,2.78,14.26,14.26,0,0,0-1.75,3.46,41.84,41.84,0,0,0-1.63,10.27c0,.93-.06,1.87-.06,2.8a61.72,61.72,0,0,0,.65,9,31.7,31.7,0,0,0,2.89,9.92q1.79,3.28,3.83,3.54a3.15,3.15,0,0,0,.53,0,4.79,4.79,0,0,0,3.34-1.53,12.45,12.45,0,0,0,2.9-4.49Q1027.08,160.57,1027.27,160Z"/>
    <path class="cls-3" d="M1043.23,126.57c0-.37,0-.71,0-1a8.43,8.43,0,0,1,1-4.49c.65-1,2-1.49,3.93-1.49.43,0,.89,0,1.37.06a15.11,15.11,0,0,1,7.34,2.8,22.52,22.52,0,0,1,5.51,5.75,30.21,30.21,0,0,1,3.56,7.12l.13.43a40.76,40.76,0,0,1,1.79,10.34c0,.67.07,1.34.07,2a35.16,35.16,0,0,1-1.08,8.68,23.75,23.75,0,0,1-4.51,9.19,18.88,18.88,0,0,1-8.68,5.93,11.91,11.91,0,0,1-3.61.62,7.79,7.79,0,0,1-3.42-.75c-2-1-3.1-3-3.31-6,0-.59,0-1.18,0-1.79,0-1.21,0-2.48.1-3.8,0-1,.05-2,.07-2.93q0-4.71,0-9.43Q1043.43,137.17,1043.23,126.57Zm14,2.28q-2.73-2.92-4-2.93a1.36,1.36,0,0,0-.29,0c-.84.26-1.33,1.2-1.46,2.8-.07.87-.1,1.77-.1,2.7s0,1.57.07,2.37,0,1.29.06,1.86v1.07q.1,5.16.1,10.34,0,7.11-.2,14.2,0,.56,0,1.08a17.6,17.6,0,0,0,.13,2.08,2.49,2.49,0,0,0,1.11,2,1.24,1.24,0,0,0,.58.13,5.12,5.12,0,0,0,2.47-.94,15.24,15.24,0,0,0,5.5-6.71,26.3,26.3,0,0,0,2-8.89c0-.79.06-1.55.06-2.31a35.13,35.13,0,0,0-.58-6.54A29.18,29.18,0,0,0,1057.25,128.85Z"/>
  </g>
  <g>
    <path class="cls-3" d="M935.58,195.07q.6-5.69,1-11.31A9.78,9.78,0,0,1,938,179a3.33,3.33,0,0,1,3.05-1.73,4.79,4.79,0,0,1,1.26.18,4.1,4.1,0,0,1,2.93,3.83c0,.56.06,1.13.06,1.73a20.69,20.69,0,0,1-.36,3.83q-.12.9-.24,1.62c-.12,1.11-.22,2.23-.3,3.35q-1.48,14.9-3.59,30.56a273.27,273.27,0,0,1-5.62,29.86c0,.12-.08.26-.12.41a70,70,0,0,1-3,9.4,15.52,15.52,0,0,1-5.65,7.53,11.66,11.66,0,0,1-5.63,1.62,8.74,8.74,0,0,1-3.47-.72,12.38,12.38,0,0,1-6.58-6.52,100.07,100.07,0,0,1-5.5-16.57q-2.5-10-3.89-17.35-2.32-13-4.25-26.14-1.06-7.18-2.21-14.3a16.76,16.76,0,0,1-.36-3.29,8.52,8.52,0,0,1,.78-3.83q1.32-2.69,6.4-2.93H902a6.93,6.93,0,0,1,5.92,2.63,16.28,16.28,0,0,1,2.75,6.58,66.11,66.11,0,0,1,1.08,7.54c.08,1,.18,2,.3,2.81a413.87,413.87,0,0,0,9.75,51.93q1.38,5,2.28,5.5a.59.59,0,0,0,.35.12c.48,0,.92-.56,1.32-1.67a40.2,40.2,0,0,0,1.32-5.09c.15-.72.31-1.41.47-2.09q3-13,4.85-26.26T935.58,195.07Z"/>
    <path class="cls-3" d="M958.55,191.84q0-.84.06-1.62.06-5.5,1.41-7.84a5.56,5.56,0,0,1,4.27-2.75,32.68,32.68,0,0,1,4.25-.24c1.08,0,2.25,0,3.53.12a4.37,4.37,0,0,0,.72.06h4.43q3.53,0,7,.06a24,24,0,0,1,4.63.36,4.76,4.76,0,0,1,3.23,2.81,3.4,3.4,0,0,1,.18,1.08,3.54,3.54,0,0,1-1.2,2.51c-1.11,1.12-3.17,1.7-6.16,1.74h-2.09a16.91,16.91,0,0,0-2-.12,12.42,12.42,0,0,0-4.79.83c-1.76.76-2.71,3-2.87,6.58v1.2q0,8.08-.42,16c0,1.16-.1,2.34-.18,3.53,0,2.52.5,4,1.5,4.55a6.93,6.93,0,0,0,2.81.48c.51,0,1.05,0,1.61-.06a21.81,21.81,0,0,1,2.39-.12q.6,0,1.44-.06c.76,0,1.52-.06,2.27-.06s1.62,0,2.46.06a7.33,7.33,0,0,1,3.77,1,4.31,4.31,0,0,1,1.55,3.23,4.72,4.72,0,0,1-.18,1.25c-.52,1.76-2,2.75-4.37,3H987q-1.08,0-2.58-.06c-1.27,0-2.55-.06-3.82-.06h-2a9.42,9.42,0,0,0-4,.6,7,7,0,0,0-2,4.55c0,.52-.06,1-.06,1.55a23.87,23.87,0,0,0,.3,3.71q.18,1.26.24,2.46a6.23,6.23,0,0,1,.06.89,60.93,60.93,0,0,0,.81,7,16.57,16.57,0,0,0,2.45,6.46,8.13,8.13,0,0,0,5.59,3.5c1.36.12,2.71.18,4.07.18s2.71-.06,4.07-.18l3.47-.24A5,5,0,0,1,998,262a3.79,3.79,0,0,1,.66,2.09,4.27,4.27,0,0,1-.66,2.15c-.91,1.44-3,2.3-6.28,2.58q-3.41.24-7.71.24c-1.12,0-2.3,0-3.53-.06a41.75,41.75,0,0,1-10.89-1.32,12,12,0,0,1-7.33-6.34,37.65,37.65,0,0,1-2.84-9.75,136.67,136.67,0,0,1-2-23.81v-.72q0-13.09.71-25.66Q958.37,196.45,958.55,191.84Z"/>
    <path class="cls-3" d="M1058.39,264.16q-1.37,4.43-3.47,4.43a3,3,0,0,1-.59-.06c-1.68-.48-3.43-2-5.27-4.61a66.21,66.21,0,0,1-5-8.37c-1.52-3-2.63-5.29-3.35-6.88q-.24-.6-.42-1-3.12-8.37-6-15.08-1.62-3.76-3.29-7.53-.36-.9-.78-1.8c-.64-1.43-1.26-2.89-1.86-4.36q-2-4.68-4-9.22l-.18-.36c-.32-.67-.52-1-.6-1v2q-.12,6.88-.12,13.82,0,16.1.6,32.24.06,1.2.06,2.4a34.55,34.55,0,0,1-.24,4.06,9.53,9.53,0,0,1-2.28,5.3c-1.23,1.37-3.27,2.06-6.1,2.06-2.43-.12-4.15-.91-5.14-2.36a10.72,10.72,0,0,1-1.74-5.36c-.08-1.07-.12-2.13-.12-3.17s0-2.05.12-3.05c0-.79,0-1.53.06-2.21q.12-7.47.12-15,0-9.39-.18-18.78l-.12-14.72V195.42a31.27,31.27,0,0,1,.36-4.66,10.27,10.27,0,0,1,2.19-5,6.4,6.4,0,0,1,5.23-2.06,8.53,8.53,0,0,1,5.83,2.33,17.73,17.73,0,0,1,3.8,5.48,61.11,61.11,0,0,1,2.57,6.49c.44,1.23.86,2.37,1.26,3.41.16.44.42,1.07.78,1.91q1.61,4,4.69,11.61t6.55,15.82q3.48,8.22,6.26,15c1.85,4.52,3.1,7,3.73,7.44h.12c.2,0,.36-.26.48-.77a15.2,15.2,0,0,0,.24-2.25c0-.9,0-1.78,0-2.66s0-1.56,0-2v-.42a345.14,345.14,0,0,0-2.39-35.36q-1.26-11.35-2-23v-.3c0-.56-.06-1.11-.06-1.67s0-1.2.06-1.8a5.43,5.43,0,0,1,1.49-3.32c.88-.94,2.45-1.4,4.73-1.4a3.33,3.33,0,0,1,3.2,1.7,10.06,10.06,0,0,1,1.1,4.1c.08,1.16.12,2.29.12,3.41v3.29q.24,6.23.54,12.62.54,12.21.84,24.53c0,2.19.06,4.39.06,6.58q0,10.77-.48,19.44A48.76,48.76,0,0,1,1058.39,264.16Z"/>
  </g>
  <g class="cls-2">
    <path d="M976.8,326c-85.54,0-155.14-69.59-155.14-155.14S891.26,15.7,976.8,15.7s155.14,69.6,155.14,155.14S1062.35,326,976.8,326"/>
    <path d="M976.8,16.36A154.47,154.47,0,0,1,1086,280.07,154.47,154.47,0,0,1,867.57,61.61,153.46,153.46,0,0,1,976.8,16.36m0-1.33a155.81,155.81,0,1,0,155.81,155.81A155.8,155.8,0,0,0,976.8,15"/>
  </g>
  <g>
    <path class="cls-3" d="M903.49,118.5a8.76,8.76,0,0,1-6.64-2.74,15,15,0,0,1-2.63-5.42,19.47,19.47,0,0,1-.81-5.17,6.29,6.29,0,0,1,.45-2.47c.41-1,1-1.5,1.69-1.5a2.12,2.12,0,0,1,.91.26,3.18,3.18,0,0,1,1.32,2.06,18.43,18.43,0,0,1,.44,3,14.65,14.65,0,0,0,.39,2.71,7.63,7.63,0,0,0,1.25,2.52,2.6,2.6,0,0,0,1.9,1.16c.7,0,1.37-.52,2-1.56q1.89-3.48,2.4-10,.33-4.23.33-8.55c0-1.6,0-3.23-.1-4.88a99.31,99.31,0,0,0-1.14-12.81c-.17-.86-.31-1.74-.42-2.63a43.37,43.37,0,0,1-6.18.49c-1,0-1.58-.74-1.82-2.21,0-1.89,2.68-3.1,8-3.65,1.83-.17,3.09-.26,3.81-.26a3.25,3.25,0,0,1,1.14.2q3.15.42,3.61,5.72a157.23,157.23,0,0,1,1.49,20.87q0,3.48-.26,7.22-.61,10-4.58,14.63A9.21,9.21,0,0,1,903.49,118.5Z"/>
    <path class="cls-3" d="M924.91,75.12q0-.45,0-.87a9.29,9.29,0,0,1,.77-4.26,3,3,0,0,1,2.32-1.5,19,19,0,0,1,2.31-.13c.59,0,1.23,0,1.92.07a2.56,2.56,0,0,0,.39,0h2.41c1.27,0,2.55,0,3.82,0a12.84,12.84,0,0,1,2.52.2,2.56,2.56,0,0,1,1.75,1.53,1.69,1.69,0,0,1,.1.58,2,2,0,0,1-.65,1.37,4.85,4.85,0,0,1-3.35.94h-1.14A9.93,9.93,0,0,0,937,73a6.68,6.68,0,0,0-2.6.46c-1,.41-1.48,1.6-1.56,3.58v.65c0,2.92-.08,5.83-.23,8.71,0,.63,0,1.27-.1,1.92,0,1.36.27,2.19.82,2.47a3.78,3.78,0,0,0,1.52.26l.88,0a10.3,10.3,0,0,1,1.3-.07l.78,0c.41,0,.82,0,1.24,0l1.33,0a4,4,0,0,1,2.05.55,2.36,2.36,0,0,1,.84,1.76,2.83,2.83,0,0,1-.09.68,2.45,2.45,0,0,1-2.38,1.63h-.48c-.4,0-.86,0-1.4,0l-2.08,0H935.8a5.28,5.28,0,0,0-2.18.32,3.83,3.83,0,0,0-1.07,2.48q0,.42,0,.84a13,13,0,0,0,.16,2,12.46,12.46,0,0,1,.13,1.33,3.68,3.68,0,0,1,0,.49,36.74,36.74,0,0,0,.44,3.82,9.21,9.21,0,0,0,1.34,3.51,4.41,4.41,0,0,0,3,1.9c.73.07,1.47.1,2.21.1s1.47,0,2.21-.1l1.88-.13a2.75,2.75,0,0,1,2.38,1.17,2.07,2.07,0,0,1,.36,1.14,2.33,2.33,0,0,1-.36,1.17c-.5.78-1.64,1.25-3.42,1.4-1.23.08-2.63.13-4.19.13l-1.92,0a23.4,23.4,0,0,1-5.92-.72,6.51,6.51,0,0,1-4-3.45,20.19,20.19,0,0,1-1.54-5.3,73.89,73.89,0,0,1-1.08-12.94v-.39q0-7.11.39-13.94C924.77,78.53,924.85,76.79,924.91,75.12Z"/>
    <path class="cls-3" d="M951.93,103.25a53.89,53.89,0,0,1-1.11-7.35c-.11-1.37-.16-2.83-.16-4.39,0-1.17,0-2.39.1-3.67A44.35,44.35,0,0,1,952.11,79a20.42,20.42,0,0,1,3.62-7.59,11.68,11.68,0,0,1,6.77-4.23,16.14,16.14,0,0,1,3.51-.39,15.54,15.54,0,0,1,3.57.42,9,9,0,0,1,5.5,4.13,15.28,15.28,0,0,1,1.62,4.5,31.37,31.37,0,0,1,.59,4.77l0,.55c0,.84.07,1.68.07,2.5a2.47,2.47,0,0,1-.78,1.6,2.4,2.4,0,0,1-1.57.55H975a2.47,2.47,0,0,1-1.6-.78,2.38,2.38,0,0,1-.55-1.56V83a36.26,36.26,0,0,0-.36-4.72,11.69,11.69,0,0,0-1.72-5,3.87,3.87,0,0,0-3.48-1.82,4.59,4.59,0,0,0-.81.07,6.5,6.5,0,0,0-4.6,3.57,21.33,21.33,0,0,0-2.2,7.09,51.29,51.29,0,0,0-.58,7.61v.39a61,61,0,0,0,.26,6.27c.09,1,.32,2.6.7,4.81a45.35,45.35,0,0,0,1.69,6.7,12.26,12.26,0,0,0,2.88,5.07,2.68,2.68,0,0,0,1.91.85,4,4,0,0,0,2.31-.88,10.13,10.13,0,0,0,3.24-6,51.49,51.49,0,0,0,.73-7c0-.39,0-.75,0-1.07a4.77,4.77,0,0,0-.68-2.83,5.06,5.06,0,0,0-3.22-1.53,5.73,5.73,0,0,1-2.08-.68,1.62,1.62,0,0,1-.78-1.53,3.19,3.19,0,0,1,0-.42A2.3,2.3,0,0,1,968,90.05a12,12,0,0,1,2.64-.29h1.13a8.19,8.19,0,0,1,.85,0,5.74,5.74,0,0,1,3.71,1c.82.71,1.25,2.24,1.3,4.58,0,.65,0,1.32,0,2,0,1.88-.09,3.9-.26,6a29.25,29.25,0,0,1-1.69,7.77,11.32,11.32,0,0,1-9,7.42,14.51,14.51,0,0,1-2.47.22q-5.85,0-9-5.62a26.63,26.63,0,0,1-2-4.8A51.56,51.56,0,0,1,951.93,103.25Z"/>
    <path class="cls-3" d="M1004.18,75.12q0-.45,0-.87A9.18,9.18,0,0,1,1005,70a3,3,0,0,1,2.33-1.5,19,19,0,0,1,2.31-.13c.58,0,1.22,0,1.91.07a2.56,2.56,0,0,0,.39,0h2.41c1.28,0,2.55,0,3.82,0a12.68,12.68,0,0,1,2.52.2,2.57,2.57,0,0,1,1.76,1.53,2,2,0,0,1,.09.58,1.92,1.92,0,0,1-.65,1.37,4.85,4.85,0,0,1-3.35.94h-1.13a10.11,10.11,0,0,0-1.08-.07,6.72,6.72,0,0,0-2.6.46c-1,.41-1.47,1.6-1.56,3.58v.65c0,2.92-.08,5.83-.23,8.71q0,.94-.09,1.92c0,1.36.27,2.19.81,2.47a3.86,3.86,0,0,0,1.53.26l.87,0a10.41,10.41,0,0,1,1.3-.07l.79,0q.61,0,1.23,0l1.33,0a4,4,0,0,1,2.05.55,2.34,2.34,0,0,1,.85,1.76,2.87,2.87,0,0,1-.1.68,2.43,2.43,0,0,1-2.37,1.63h-.49c-.39,0-.86,0-1.4,0-.69,0-1.39,0-2.08,0h-1.07a5.25,5.25,0,0,0-2.18.32,3.78,3.78,0,0,0-1.07,2.48,7.87,7.87,0,0,0,0,.84,13,13,0,0,0,.17,2c.06.45.1.9.13,1.33a3.68,3.68,0,0,1,0,.49,32,32,0,0,0,.44,3.82,9.2,9.2,0,0,0,1.33,3.51,4.41,4.41,0,0,0,3,1.9c.74.07,1.47.1,2.21.1s1.47,0,2.21-.1l1.89-.13a2.74,2.74,0,0,1,2.37,1.17,2.07,2.07,0,0,1,.36,1.14,2.33,2.33,0,0,1-.36,1.17c-.5.78-1.64,1.25-3.41,1.4-1.24.08-2.64.13-4.2.13l-1.91,0a23.28,23.28,0,0,1-5.92-.72,6.53,6.53,0,0,1-4-3.45,20.57,20.57,0,0,1-1.54-5.3,74.89,74.89,0,0,1-1.07-12.94v-.39q0-7.11.39-13.94C1004,78.53,1004.11,76.79,1004.18,75.12Z"/>
    <path class="cls-3" d="M1051.9,119.57a3,3,0,0,1-2.21-.85c-1.06-1-2-2.91-2.73-5.69l-1.85-5.75q-2.11-6.93-5-13.88a3,3,0,0,1-.26-1,2.45,2.45,0,0,1,1.46-2.24,14.55,14.55,0,0,0,6.61-6.34,9.23,9.23,0,0,0,1-4q0-6.63-9.36-9.07l-.07,20.48q0,17.56.16,22.21A9,9,0,0,1,1039,117c-.5,1.21-1.65,1.84-3.47,1.88q-3.87-.22-4.17-4.74l0-1.66c0-.72,0-1.43.07-2.15q.15-12.42.16-19.6,0-6.63-.16-19.57a5.9,5.9,0,0,1,1-3.68,4.9,4.9,0,0,1,4.07-1.56,18.27,18.27,0,0,1,5.07.72,20,20,0,0,1,7.23,3.56A12.64,12.64,0,0,1,1053,76.1a10.35,10.35,0,0,1,.52,3.32,15,15,0,0,1-.81,4.65,17.81,17.81,0,0,1-7.64,9.2q2.51,5.85,4.91,11.7l3.51,8.32a10,10,0,0,1,1,3.81,3.59,3.59,0,0,1-.16,1.07C1054.11,119,1053.29,119.48,1051.9,119.57Z"/>
  </g>
  <g>
    <path class="cls-3" d="M888.25,131.06c0-.31,0-.6,0-.88a9.16,9.16,0,0,1,.77-4.26,3,3,0,0,1,2.32-1.5,19,19,0,0,1,2.31-.13c.59,0,1.22,0,1.92.07a2.56,2.56,0,0,0,.39,0h2.4c1.28,0,2.56,0,3.82,0a13.53,13.53,0,0,1,2.52.2,2.55,2.55,0,0,1,1.76,1.53,1.76,1.76,0,0,1-.55,1.95,4.87,4.87,0,0,1-3.35.94h-1.14a10.1,10.1,0,0,0-1.07-.07,6.68,6.68,0,0,0-2.6.46c-1,.41-1.48,1.6-1.56,3.58v.65c0,2.92-.08,5.83-.23,8.71,0,.63-.06,1.27-.1,1.92,0,1.36.27,2.19.81,2.47a3.86,3.86,0,0,0,1.53.26l.88,0a10.3,10.3,0,0,1,1.3-.07l.78,0c.41,0,.82,0,1.24,0l1.33,0a4,4,0,0,1,2,.55,2.36,2.36,0,0,1,.84,1.76,2.31,2.31,0,0,1-2.47,2.31h-.49c-.39,0-.85,0-1.39,0-.7,0-1.39,0-2.09,0h-1.07a5.08,5.08,0,0,0-2.18.33,3.73,3.73,0,0,0-1.07,2.47q0,.42,0,.84a13,13,0,0,0,.16,2,12.46,12.46,0,0,1,.13,1.33,3.68,3.68,0,0,1,0,.49,36.43,36.43,0,0,0,.44,3.82,9.05,9.05,0,0,0,1.34,3.51,4.41,4.41,0,0,0,3,1.9c.73.07,1.47.1,2.21.1s1.47,0,2.21-.1l1.88-.13a2.79,2.79,0,0,1,2.38,1.17,2.14,2.14,0,0,1,.35,1.14,2.41,2.41,0,0,1-.35,1.17c-.5.78-1.64,1.25-3.42,1.4-1.23.08-2.63.13-4.19.13l-1.92,0a23,23,0,0,1-5.92-.72,6.51,6.51,0,0,1-4-3.45,20.19,20.19,0,0,1-1.54-5.3,73.85,73.85,0,0,1-1.08-12.93v-.4q0-7.11.39-13.94C888.11,134.46,888.19,132.72,888.25,131.06Z"/>
    <path class="cls-3" d="M942.51,170.36c-.5,1.61-1.12,2.41-1.88,2.41l-.33,0a6,6,0,0,1-2.86-2.51,35.12,35.12,0,0,1-2.73-4.55c-.82-1.63-1.43-2.87-1.82-3.74-.09-.21-.16-.39-.23-.52q-1.7-4.54-3.28-8.19c-.59-1.37-1.18-2.73-1.79-4.1-.13-.32-.27-.65-.42-1-.35-.78-.69-1.57-1-2.38-.72-1.69-1.44-3.36-2.18-5l-.1-.2c-.17-.37-.28-.55-.32-.55v1.1q-.07,3.75-.07,7.51,0,8.76.33,17.53c0,.43,0,.87,0,1.3a18.2,18.2,0,0,1-.13,2.21,5.19,5.19,0,0,1-1.23,2.88,4.32,4.32,0,0,1-3.32,1.12,3.37,3.37,0,0,1-2.8-1.29,5.87,5.87,0,0,1-.94-2.91c0-.58-.06-1.15-.06-1.72s0-1.11.06-1.66,0-.83,0-1.2q.07-4.07.07-8.16c0-3.4,0-6.81-.1-10.21l-.06-8V133a17.09,17.09,0,0,1,.19-2.54,5.5,5.5,0,0,1,1.19-2.71,3.47,3.47,0,0,1,2.84-1.13,4.66,4.66,0,0,1,3.17,1.27,9.72,9.72,0,0,1,2.07,3,35.16,35.16,0,0,1,1.39,3.52c.24.68.47,1.29.69,1.86.08.24.22.58.42,1q.88,2.17,2.55,6.31t3.56,8.59c1.26,3,2.39,5.71,3.4,8.17s1.68,3.8,2,4h.07c.1,0,.19-.14.26-.42a10.64,10.64,0,0,0,.13-1.22c0-.49,0-1,0-1.45s0-.84,0-1.1V160a188.3,188.3,0,0,0-1.3-19.21q-.69-6.18-1.11-12.49v-.16c0-.3,0-.61,0-.91s0-.65,0-1a3,3,0,0,1,.81-1.8,3.46,3.46,0,0,1,2.57-.76,1.79,1.79,0,0,1,1.74.92,5.35,5.35,0,0,1,.6,2.23c.05.63.07,1.25.07,1.85v1.79q.12,3.38.29,6.86.3,6.63.46,13.33c0,1.19,0,2.38,0,3.58q0,5.85-.26,10.56A26.55,26.55,0,0,1,942.51,170.36Z"/>
    <path class="cls-3" d="M969.27,159.18a52.36,52.36,0,0,1-1.1-7.35c-.11-1.36-.17-2.83-.17-4.39,0-1.17,0-2.39.1-3.67a44.35,44.35,0,0,1,1.35-8.86,20.43,20.43,0,0,1,3.63-7.59,11.62,11.62,0,0,1,6.76-4.23,16.14,16.14,0,0,1,3.51-.39,15.54,15.54,0,0,1,3.57.42,9,9,0,0,1,5.5,4.13,15.28,15.28,0,0,1,1.62,4.5,30.15,30.15,0,0,1,.59,4.77l0,.55c.05.85.07,1.68.07,2.5a2.45,2.45,0,0,1-.78,1.6,2.34,2.34,0,0,1-1.56.55h-.1a2.42,2.42,0,0,1-1.59-.78,2.31,2.31,0,0,1-.56-1.56V139a37.91,37.91,0,0,0-.35-4.72,11.83,11.83,0,0,0-1.73-5,3.87,3.87,0,0,0-3.48-1.82,4.59,4.59,0,0,0-.81.07,6.52,6.52,0,0,0-4.6,3.57,21.33,21.33,0,0,0-2.19,7.09,51.33,51.33,0,0,0-.59,7.61v.39a61,61,0,0,0,.26,6.27c.09,1,.32,2.6.7,4.82a45.54,45.54,0,0,0,1.69,6.69,12.26,12.26,0,0,0,2.88,5.07,2.68,2.68,0,0,0,1.92.85,4,4,0,0,0,2.3-.88,10.13,10.13,0,0,0,3.24-6,50,50,0,0,0,.73-7c0-.39,0-.75,0-1.07a4.7,4.7,0,0,0-.68-2.83,5.06,5.06,0,0,0-3.22-1.53,5.73,5.73,0,0,1-2.08-.68,1.62,1.62,0,0,1-.78-1.53,3.19,3.19,0,0,1,0-.42,2.31,2.31,0,0,1,2-1.82,12,12,0,0,1,2.64-.29h1.14a7.87,7.87,0,0,1,.84,0,5.74,5.74,0,0,1,3.71.95c.82.71,1.25,2.24,1.3,4.58,0,.65,0,1.32,0,2,0,1.88-.09,3.9-.26,6a28.86,28.86,0,0,1-1.69,7.77,11.32,11.32,0,0,1-9,7.42,14.42,14.42,0,0,1-2.47.22q-5.85,0-9-5.62a27.37,27.37,0,0,1-2-4.8Q969.79,161.68,969.27,159.18Z"/>
    <path class="cls-3" d="M1019.89,123a10.15,10.15,0,0,1,6.39,2.91,16.35,16.35,0,0,1,3.64,5.87,37.68,37.68,0,0,1,1.81,6.76,59.27,59.27,0,0,1,.78,9.56,60,60,0,0,1-1.43,12.94,28.19,28.19,0,0,1-3,7.31,14.06,14.06,0,0,1-5.23,5.24,10.86,10.86,0,0,1-5.33,1.27,16.81,16.81,0,0,1-2.67-.23,9.54,9.54,0,0,1-5.05-2.55,14.66,14.66,0,0,1-3.08-4.57,38.82,38.82,0,0,1-1.85-5.3,56.6,56.6,0,0,1-1.75-11c-.07-1.2-.1-2.38-.1-3.55a56.5,56.5,0,0,1,.68-8.74,26.51,26.51,0,0,1,3.8-10.38,12.51,12.51,0,0,1,5.3-4.55,13.5,13.5,0,0,1,5.37-1A14.41,14.41,0,0,1,1019.89,123Zm6.05,39.66a48.64,48.64,0,0,0,1.23-7.86q.36-3.67.36-7.64c0-1.07,0-2.14-.06-3.22a39.84,39.84,0,0,0-1.56-10.24c-.91-3-2.37-5-4.36-5.89a4.77,4.77,0,0,0-1.76-.36,3.91,3.91,0,0,0-2,.59,8.61,8.61,0,0,0-2.93,2.78,14.88,14.88,0,0,0-1.76,3.46,41.88,41.88,0,0,0-1.62,10.28c-.05.93-.07,1.86-.07,2.79a63.29,63.29,0,0,0,.65,9,31.9,31.9,0,0,0,2.9,9.91q1.79,3.28,3.83,3.55l.52,0a4.81,4.81,0,0,0,3.35-1.53,12.41,12.41,0,0,0,2.9-4.48C1025.67,163.43,1025.81,163,1025.94,162.62Z"/>
    <path class="cls-3" d="M1041.9,129.23c0-.36,0-.71,0-1a8.4,8.4,0,0,1,1-4.48c.66-1,2-1.5,3.94-1.5a12.91,12.91,0,0,1,1.36.07,15,15,0,0,1,7.35,2.79,22.57,22.57,0,0,1,5.51,5.76,30,30,0,0,1,3.56,7.12l.13.42a40.76,40.76,0,0,1,1.79,10.34c0,.67.07,1.34.07,2a35.22,35.22,0,0,1-1.08,8.68,23.65,23.65,0,0,1-4.52,9.18,18.7,18.7,0,0,1-8.68,5.93,11.56,11.56,0,0,1-3.61.62,7.78,7.78,0,0,1-3.41-.75c-2-1-3.1-3-3.32-6,0-.58,0-1.18,0-1.79,0-1.21,0-2.48.1-3.8,0-1,0-2,.06-2.93q0-4.71,0-9.42Q1042.1,139.83,1041.9,129.23Zm14,2.28c-1.83-1.95-3.17-2.93-4-2.93a1.27,1.27,0,0,0-.29,0c-.84.26-1.33,1.19-1.46,2.79-.07.87-.1,1.77-.1,2.7,0,.78,0,1.57.06,2.38s.05,1.28.07,1.85v1.07c.06,3.45.1,6.89.1,10.34q0,7.13-.2,14.21c0,.37,0,.72,0,1.07a15.59,15.59,0,0,0,.13,2.08,2.53,2.53,0,0,0,1.11,2,1.34,1.34,0,0,0,.58.13,5.15,5.15,0,0,0,2.47-.95,15.25,15.25,0,0,0,5.5-6.71,26,26,0,0,0,2-8.89c.05-.78.07-1.55.07-2.31a34.93,34.93,0,0,0-.59-6.53A29.08,29.08,0,0,0,1055.92,131.51Z"/>
  </g>
  <g>
    <path class="cls-3" d="M935.58,197.73q.6-5.68,1-11.31A9.75,9.75,0,0,1,938,181.7a3.32,3.32,0,0,1,3.05-1.74,4.79,4.79,0,0,1,1.26.18,4.11,4.11,0,0,1,2.93,3.83c0,.56.06,1.14.06,1.73a20.61,20.61,0,0,1-.36,3.83q-.12.9-.24,1.62c-.12,1.12-.22,2.23-.3,3.35q-1.48,14.9-3.59,30.57a272.63,272.63,0,0,1-5.62,29.85q-.06.18-.12.42a70.33,70.33,0,0,1-3,9.39,15.6,15.6,0,0,1-5.65,7.54,11.75,11.75,0,0,1-5.63,1.61,8.74,8.74,0,0,1-3.47-.72,12.34,12.34,0,0,1-6.58-6.52,99.76,99.76,0,0,1-5.5-16.57q-2.5-10-3.89-17.35-2.32-13-4.25-26.14-1.06-7.17-2.21-14.3a16.76,16.76,0,0,1-.36-3.29,8.44,8.44,0,0,1,.78-3.82q1.32-2.7,6.4-2.94H902a6.91,6.91,0,0,1,5.92,2.64,16.22,16.22,0,0,1,2.75,6.58,65.48,65.48,0,0,1,1.08,7.54c.08,1,.18,2,.3,2.81a413.72,413.72,0,0,0,9.75,51.92q1.38,5,2.28,5.51a.59.59,0,0,0,.35.12q.72,0,1.32-1.68a40,40,0,0,0,1.32-5.08c.15-.72.31-1.42.47-2.1q3-13,4.85-26.26T935.58,197.73Z"/>
    <path class="cls-3" d="M958.55,194.5q0-.84.06-1.62.06-5.5,1.41-7.83a5.54,5.54,0,0,1,4.27-2.76,34.74,34.74,0,0,1,4.25-.23c1.08,0,2.25,0,3.53.12a4.36,4.36,0,0,0,.72,0h4.43c2.35,0,4.69,0,7,.06a24,24,0,0,1,4.63.36,4.75,4.75,0,0,1,3.23,2.82,3.29,3.29,0,0,1,.18,1.07,3.52,3.52,0,0,1-1.2,2.51c-1.11,1.12-3.17,1.7-6.16,1.74h-2.09a16.91,16.91,0,0,0-2-.12,12.22,12.22,0,0,0-4.79.84c-1.76.76-2.71,3-2.87,6.58v1.19q0,8.08-.42,16c0,1.15-.1,2.33-.18,3.53q0,3.77,1.5,4.54a6.93,6.93,0,0,0,2.81.48c.51,0,1.05,0,1.61-.06a21.81,21.81,0,0,1,2.39-.12q.6,0,1.44-.06c.76,0,1.52-.06,2.27-.06s1.62,0,2.46.06a7.33,7.33,0,0,1,3.77,1,4.33,4.33,0,0,1,1.55,3.23,4.79,4.79,0,0,1-.18,1.26c-.52,1.75-2,2.75-4.37,3H987q-1.08,0-2.58-.06c-1.27,0-2.55-.06-3.82-.06h-2a9.42,9.42,0,0,0-4,.6,7,7,0,0,0-2,4.54q-.06.78-.06,1.56a24.07,24.07,0,0,0,.3,3.71c.12.83.2,1.65.24,2.45a6.37,6.37,0,0,1,.06.9,61,61,0,0,0,.81,7,16.62,16.62,0,0,0,2.45,6.47,8.17,8.17,0,0,0,5.59,3.5c1.36.11,2.71.18,4.07.18s2.71-.07,4.07-.18l3.47-.24a5,5,0,0,1,4.36,2.15,3.81,3.81,0,0,1,.66,2.09,4.33,4.33,0,0,1-.66,2.16c-.91,1.43-3,2.29-6.28,2.57q-3.41.24-7.71.24c-1.12,0-2.3,0-3.53-.06a41.75,41.75,0,0,1-10.89-1.32,12,12,0,0,1-7.33-6.34,37.65,37.65,0,0,1-2.84-9.75,136.59,136.59,0,0,1-2-23.81v-.72q0-13.09.71-25.66Q958.37,199.11,958.55,194.5Z"/>
    <path class="cls-3" d="M1058.39,266.82c-.91,3-2.07,4.43-3.47,4.43a3,3,0,0,1-.59-.06c-1.68-.48-3.43-2-5.27-4.61a66.21,66.21,0,0,1-5-8.37c-1.52-3-2.63-5.29-3.35-6.88q-.24-.6-.42-1-3.12-8.37-6-15.07-1.62-3.78-3.29-7.54-.36-.9-.78-1.8c-.64-1.43-1.26-2.89-1.86-4.36q-2-4.66-4-9.21l-.18-.36q-.48-1-.6-1v2q-.12,6.89-.12,13.82,0,16.09.6,32.25c0,.8.06,1.59.06,2.39a34.72,34.72,0,0,1-.24,4.07,9.5,9.5,0,0,1-2.28,5.29c-1.23,1.38-3.27,2.07-6.1,2.07-2.43-.12-4.15-.91-5.14-2.37a10.68,10.68,0,0,1-1.74-5.35c-.08-1.08-.12-2.13-.12-3.17s0-2.06.12-3.05q0-1.2.06-2.22.12-7.47.12-15,0-9.39-.18-18.79l-.12-14.71V198.09a31.4,31.4,0,0,1,.36-4.67,10.24,10.24,0,0,1,2.19-5,6.38,6.38,0,0,1,5.23-2.07,8.49,8.49,0,0,1,5.83,2.34,17.69,17.69,0,0,1,3.8,5.47,62,62,0,0,1,2.57,6.49c.44,1.24.86,2.37,1.26,3.41.16.44.42,1.08.78,1.91q1.61,4,4.69,11.61t6.55,15.82q3.48,8.24,6.26,15c1.85,4.52,3.1,7,3.73,7.45h.12q.3,0,.48-.78a15.21,15.21,0,0,0,.24-2.24q.06-1.35,0-2.67c0-.87,0-1.55,0-2v-.42a344.94,344.94,0,0,0-2.39-35.35q-1.26-11.37-2-23v-.3c0-.55-.06-1.11-.06-1.67s0-1.2.06-1.8a5.43,5.43,0,0,1,1.49-3.32c.88-.93,2.45-1.4,4.73-1.4a3.35,3.35,0,0,1,3.2,1.7,10.1,10.1,0,0,1,1.1,4.1c.08,1.16.12,2.3.12,3.41v3.29q.24,6.22.54,12.62.54,12.21.84,24.53.06,3.3.06,6.58,0,10.77-.48,19.44A48.76,48.76,0,0,1,1058.39,266.82Z"/>
  </g>
</svg>
